  0
SECTION
  2
HEADER
  9
$ACADVER
  1
AC1014
  9
$HANDSEED
  5
FFFF
  9
$INSUNITS
 70
     4
  9
$MEASUREMENT
 70
     1
  0
ENDSEC
  0
SECTION
  2
TABLES
  0
TABLE
  2
VPORT
  5
8
330
0
100
AcDbSymbolTable
 70
     4
  0
VPORT
  5
2E
330
8
100
AcDbSymbolTableRecord
100
AcDbViewportTableRecord
  2
*ACTIVE
 70
     0
 10
0.0
 20
0.0
 11
1.0
 21
1.0
 12
210.0
 22
148.5
 13
0.0
 23
0.0
 14
10.0
 24
10.0
 15
10.0
 25
10.0
 16
0.0
 26
0.0
 36
1.0
 17
0.0
 27
0.0
 37
0.0
 40
341.0
 41
1.24
 42
50.0
 43
0.0
 44
0.0
 50
0.0
 51
0.0
 71
     0
 72
   100
 73
     1
 74
     3
 75
     0
 76
     0
 77
     0
 78
     0
  0
ENDTAB
  0
TABLE
  2
LTYPE
  5
5
330
0
100
AcDbSymbolTable
 70
     1
  0
LTYPE
  5
14
330
5
100
AcDbSymbolTableRecord
100
AcDbLinetypeTableRecord
  2
BYBLOCK
 70
     0
  3

 72
    65
 73
     0
 40
0.0
  0
LTYPE
  5
15
330
5
100
AcDbSymbolTableRecord
100
AcDbLinetypeTableRecord
  2
BYLAYER
 70
     0
  3

 72
    65
 73
     0
 40
0.0
  0
LTYPE
  5
16
330
5
100
AcDbSymbolTableRecord
100
AcDbLinetypeTableRecord
  2
CONTINUOUS
 70
     0
  3
Solid line
 72
    65
 73
     0
 40
0.0
  0
ENDTAB
  0
TABLE
  2
LAYER
  5
2
100
AcDbSymbolTable
 70
1
  0
LAYER
  5
50
100
AcDbSymbolTableRecord
100
AcDbLayerTableRecord
  2
0
 70
0
  6
CONTINUOUS
  0
ENDTAB
  0
TABLE
  2
STYLE
  5
3
330
0
100
AcDbSymbolTable
 70
     1
  0
STYLE
  5
11
330
3
100
AcDbSymbolTableRecord
100
AcDbTextStyleTableRecord
  2
STANDARD
 70
     0
 40
0.0
 41
1.0
 50
0.0
 71
     0
 42
2.5
  3
txt
  4

  0
ENDTAB
  0
TABLE
  2
VIEW
  5
6
330
0
100
AcDbSymbolTable
 70
     0
  0
ENDTAB
  0
TABLE
  2
UCS
  5
7
330
0
100
AcDbSymbolTable
 70
     0
  0
ENDTAB
  0
TABLE
  2
APPID
  5
9
330
0
100
AcDbSymbolTable
 70
     2
  0
APPID
  5
12
330
9
100
AcDbSymbolTableRecord
100
AcDbRegAppTableRecord
  2
ACAD
 70
     0
  0
ENDTAB
  0
TABLE
  2
DIMSTYLE
  5
A
330
0
100
AcDbSymbolTable
 70
     1
  0
DIMSTYLE
105
27
330
A
100
AcDbSymbolTableRecord
100
AcDbDimStyleTableRecord
  2
ISO-25
 70
     0
  3

  4

  5

  6

  7

 40
1.0
 41
2.5
 42
0.625
 43
3.75
 44
1.25
 45
0.0
 46
0.0
 47
0.0
 48
0.0
140
2.5
141
2.5
142
0.0
143
0.03937007874016
144
1.0
145
0.0
146
1.0
147
0.625
 71
     0
 72
     0
 73
     0
 74
     0
 75
     0
 76
     0
 77
     1
 78
     8
170
     0
171
     3
172
     1
173
     0
174
     0
175
     0
176
     0
177
     0
178
     0
270
     2
271
     2
272
     2
273
     2
274
     3
340
11
275
     0
280
     0
281
     0
282
     0
283
     0
284
     8
285
     0
286
     0
287
     3
288
     0
  0
ENDTAB
  0
TABLE
  2
BLOCK_RECORD
  5
1
330
0
100
AcDbSymbolTable
 70
     1
  0
BLOCK_RECORD
  5
1F
330
1
100
AcDbSymbolTableRecord
100
AcDbBlockTableRecord
  2
*MODEL_SPACE
  0
BLOCK_RECORD
  5
1B
330
1
100
AcDbSymbolTableRecord
100
AcDbBlockTableRecord
  2
*PAPER_SPACE
  0
ENDTAB
  0
ENDSEC
  0
SECTION
  2
BLOCKS
  0
BLOCK
  5
20
330
1F
100
AcDbEntity
  8
0
100
AcDbBlockBegin
  2
*MODEL_SPACE
 70
     0
 10
0.0
 20
0.0
 30
0.0
  3
*MODEL_SPACE
  1

  0
ENDBLK
  5
21
330
1F
100
AcDbEntity
  8
0
100
AcDbBlockEnd
  0
BLOCK
  5
1C
330
1B
100
AcDbEntity
 67
     1
  8
0
100
AcDbBlockBegin
  2
*PAPER_SPACE
  1

  0
ENDBLK
  5
1D
330
1B
100
AcDbEntity
 67
     1
  8
0
100
AcDbBlockEnd
  0
ENDSEC
  0
SECTION
  2
ENTITIES
  0
LWPOLYLINE
  5
100
100
AcDbEntity
  8
0
 62
7
100
AcDbPolyline
 90
1178
 70
1
 10
130.732047
 20
84.917946
 30
0.0
 10
136.447947
 20
84.667146
 30
0.0
 10
142.489147
 20
84.267646
 30
0.0
 10
143.235347
 20
84.206646
 30
0.0
 10
148.731247
 20
83.739046
 30
0.0
 10
155.087846
 20
83.088746
 30
0.0
 10
161.397246
 20
82.343246
 30
0.0
 10
167.552946
 20
81.516746
 30
0.0
 10
173.412446
 20
80.629147
 30
0.0
 10
174.599446
 20
80.425947
 30
0.0
 10
178.860146
 20
79.701047
 30
0.0
 10
183.790746
 20
78.738847
 30
0.0
 10
188.280546
 20
77.763147
 30
0.0
 10
192.483145
 20
76.773947
 30
0.0
 10
193.718345
 20
76.469047
 30
0.0
 10
194.379045
 20
76.306347
 30
0.0
 10
196.513945
 20
75.784747
 30
0.0
 10
200.515745
 20
74.795446
 30
0.0
 10
203.407645
 20
73.955446
 30
0.0
 10
206.356045
 20
72.979746
 30
0.0
 10
209.400745
 20
71.767346
 30
0.0
 10
212.569545
 20
70.350946
 30
0.0
 10
212.579545
 20
70.350946
 30
0.0
 10
215.892345
 20
68.759046
 30
0.0
 10
219.166045
 20
67.003846
 30
0.0
 10
222.277945
 20
65.100046
 30
0.0
 10
225.198145
 20
63.054047
 30
0.0
 10
227.926545
 20
60.885847
 30
0.0
 10
230.415145
 20
58.603150
 30
0.0
 10
232.655445
 20
56.224650
 30
0.0
 10
234.637644
 20
53.765050
 30
0.0
 10
236.341744
 20
51.224450
 30
0.0
 10
237.758644
 20
48.636250
 30
0.0
 10
238.859344
 20
46.001050
 30
0.0
 10
239.663644
 20
43.399350
 30
0.0
 10
239.663644
 20
43.392350
 30
0.0
 10
240.142644
 20
40.831150
 30
0.0
 10
240.305344
 20
38.263550
 30
0.0
 10
240.142644
 20
35.715850
 30
0.0
 10
239.663644
 20
33.202350
 30
0.0
 10
238.859344
 20
30.756850
 30
0.0
 10
237.758644
 20
28.391850
 30
0.0
 10
237.040644
 20
27.281050
 30
0.0
 10
234.637644
 20
24.482550
 30
0.0
 10
232.655445
 20
22.720950
 30
0.0
 10
230.415045
 20
20.858151
 30
0.0
 10
227.926545
 20
19.035451
 30
0.0
 10
225.198145
 20
17.334851
 30
0.0
 10
222.277945
 20
16.081251
 30
0.0
 10
219.166045
 20
15.187151
 30
0.0
 10
215.892245
 20
14.529851
 30
0.0
 10
212.484045
 20
14.129851
 30
0.0
 10
208.970345
 20
13.981251
 30
0.0
 10
205.370345
 20
14.089251
 30
0.0
 10
201.713045
 20
14.448751
 30
0.0
 10
198.026745
 20
15.051451
 30
0.0
 10
192.838045
 20
16.074751
 30
0.0
 10
187.658446
 20
17.104551
 30
0.0
 10
184.511646
 20
17.724851
 30
0.0
 10
185.046946
 20
17.531651
 30
0.0
 10
185.179446
 20
17.482451
 30
0.0
 10
185.310146
 20
17.431851
 30
0.0
 10
185.438646
 20
17.379451
 30
0.0
 10
185.564146
 20
17.324851
 30
0.0
 10
185.616646
 20
17.299951
 30
0.0
 10
185.667446
 20
17.273951
 30
0.0
 10
185.717046
 20
17.247051
 30
0.0
 10
185.765846
 20
17.219751
 30
0.0
 10
185.863346
 20
17.165051
 30
0.0
 10
185.913146
 20
17.138151
 30
0.0
 10
185.964246
 20
17.112151
 30
0.0
 10
189.438046
 20
14.101651
 30
0.0
 10
189.561046
 20
13.882151
 30
0.0
 10
189.680046
 20
13.661851
 30
0.0
 10
189.794746
 20
13.440951
 30
0.0
 10
189.905246
 20
13.219251
 30
0.0
 10
190.011246
 20
12.997051
 30
0.0
 10
190.112546
 20
12.774051
 30
0.0
 10
190.208946
 20
12.550551
 30
0.0
 10
190.300446
 20
12.326451
 30
0.0
 10
190.312846
 20
12.293951
 30
0.0
 10
190.324246
 20
12.261451
 30
0.0
 10
190.334746
 20
12.228851
 30
0.0
 10
190.344746
 20
12.196151
 30
0.0
 10
190.362446
 20
12.130651
 30
0.0
 10
190.378346
 20
12.064951
 30
0.0
 10
190.408246
 20
11.933351
 30
0.0
 10
190.423846
 20
11.867551
 30
0.0
 10
190.441046
 20
11.801851
 30
0.0
 10
190.540046
 20
11.446151
 30
0.0
 10
190.591646
 20
11.268451
 30
0.0
 10
190.646046
 20
11.091051
 30
0.0
 10
190.691546
 20
10.950651
 30
0.0
 10
190.738946
 20
10.810451
 30
0.0
 10
190.788246
 20
10.670551
 30
0.0
 10
190.839446
 20
10.530651
 30
0.0
 10
190.885146
 20
10.409651
 30
0.0
 10
190.932646
 20
10.288851
 30
0.0
 10
190.981646
 20
10.168251
 30
0.0
 10
191.032046
 20
10.047851
 30
0.0
 10
191.083246
 20
9.928151
 30
0.0
 10
191.135746
 20
9.808551
 30
0.0
 10
191.189946
 20
9.689251
 30
0.0
 10
191.246146
 20
9.570251
 30
0.0
 10
191.311346
 20
9.435351
 30
0.0
 10
191.377946
 20
9.300851
 30
0.0
 10
191.412446
 20
9.233751
 30
0.0
 10
191.448146
 20
9.166851
 30
0.0
 10
191.485346
 20
9.100251
 30
0.0
 10
191.524246
 20
9.033951
 30
0.0
 10
191.610746
 20
8.893051
 30
0.0
 10
191.655545
 20
8.822851
 30
0.0
 10
191.701845
 20
8.752951
 30
0.0
 10
191.749945
 20
8.683551
 30
0.0
 10
191.800245
 20
8.614551
 30
0.0
 10
191.852945
 20
8.546251
 30
0.0
 10
191.908545
 20
8.478851
 30
0.0
 10
191.968045
 20
8.409951
 30
0.0
 10
192.029045
 20
8.341551
 30
0.0
 10
192.092145
 20
8.273651
 30
0.0
 10
192.157645
 20
8.206551
 30
0.0
 10
192.225845
 20
8.140351
 30
0.0
 10
192.261145
 20
8.107651
 30
0.0
 10
192.297345
 20
8.075351
 30
0.0
 10
192.334345
 20
8.043351
 30
0.0
 10
192.372345
 20
8.011651
 30
0.0
 10
192.411345
 20
7.980351
 30
0.0
 10
192.451445
 20
7.949551
 30
0.0
 10
192.549245
 20
7.878051
 30
0.0
 10
192.651145
 20
7.808251
 30
0.0
 10
192.756645
 20
7.740051
 30
0.0
 10
192.865845
 20
7.673551
 30
0.0
 10
192.978245
 20
7.608851
 30
0.0
 10
193.093745
 20
7.545851
 30
0.0
 10
193.212045
 20
7.484751
 30
0.0
 10
193.332945
 20
7.425551
 30
0.0
 10
193.491145
 20
7.352151
 30
0.0
 10
193.652945
 20
7.281151
 30
0.0
 10
193.818245
 20
7.212651
 30
0.0
 10
193.986845
 20
7.146651
 30
0.0
 10
194.158545
 20
7.083351
 30
0.0
 10
194.333345
 20
7.022651
 30
0.0
 10
194.510845
 20
6.964851
 30
0.0
 10
194.690945
 20
6.909751
 30
0.0
 10
194.913145
 20
6.846351
 30
0.0
 10
195.138545
 20
6.786151
 30
0.0
 10
195.366945
 20
6.729451
 30
0.0
 10
195.598145
 20
6.676351
 30
0.0
 10
195.831945
 20
6.626851
 30
0.0
 10
196.067945
 20
6.581251
 30
0.0
 10
196.306145
 20
6.539651
 30
0.0
 10
196.546145
 20
6.502151
 30
0.0
 10
196.825545
 20
6.464351
 30
0.0
 10
197.107345
 20
6.432351
 30
0.0
 10
197.391045
 20
6.405451
 30
0.0
 10
197.676345
 20
6.382951
 30
0.0
 10
198.249645
 20
6.348151
 30
0.0
 10
198.823845
 20
6.322351
 30
0.0
 10
199.142245
 20
6.311851
 30
0.0
 10
199.460845
 20
6.305851
 30
0.0
 10
200.098845
 20
6.302851
 30
0.0
 10
201.375445
 20
6.316551
 30
0.0
 10
204.034145
 20
6.388851
 30
0.0
 10
205.326945
 20
6.409851
 30
0.0
 10
205.973145
 20
6.410751
 30
0.0
 10
206.295845
 20
6.405751
 30
0.0
 10
206.618145
 20
6.395151
 30
0.0
 10
207.208845
 20
6.365651
 30
0.0
 10
207.503745
 20
6.346751
 30
0.0
 10
207.797845
 20
6.324451
 30
0.0
 10
208.090745
 20
6.298351
 30
0.0
 10
208.382145
 20
6.267951
 30
0.0
 10
208.671645
 20
6.232751
 30
0.0
 10
208.958945
 20
6.192451
 30
0.0
 10
209.049445
 20
6.177251
 30
0.0
 10
209.138345
 20
6.159451
 30
0.0
 10
209.226245
 20
6.139851
 30
0.0
 10
209.313545
 20
6.119051
 30
0.0
 10
209.487945
 20
6.076951
 30
0.0
 10
209.576045
 20
6.056951
 30
0.0
 10
209.665345
 20
6.038551
 30
0.0
 10
213.432145
 20
2.774251
 30
0.0
 10
213.402645
 20
2.655351
 30
0.0
 10
213.365445
 20
2.540051
 30
0.0
 10
213.321045
 20
2.428151
 30
0.0
 10
213.270145
 20
2.319751
 30
0.0
 10
213.213245
 20
2.214851
 30
0.0
 10
213.150845
 20
2.113551
 30
0.0
 10
213.083645
 20
2.015851
 30
0.0
 10
213.012045
 20
1.921651
 30
0.0
 10
212.936745
 20
1.831151
 30
0.0
 10
212.858345
 20
1.744251
 30
0.0
 10
212.777345
 20
1.660951
 30
0.0
 10
212.694245
 20
1.581351
 30
0.0
 10
212.524245
 20
1.433251
 30
0.0
 10
212.352845
 20
1.300051
 30
0.0
 10
212.184645
 20
1.181951
 30
0.0
 10
212.024245
 20
1.079051
 30
0.0
 10
211.876045
 20
0.991551
 30
0.0
 10
211.744545
 20
0.919651
 30
0.0
 10
211.550245
 20
0.823051
 30
0.0
 10
211.477345
 20
0.790551
 30
0.0
 10
211.451045
 20
0.780551
 30
0.0
 10
211.425645
 20
0.770351
 30
0.0
 10
211.376045
 20
0.749151
 30
0.0
 10
211.351245
 20
0.738751
 30
0.0
 10
211.326045
 20
0.728651
 30
0.0
 10
211.300145
 20
0.719651
 30
0.0
 10
211.286745
 20
0.714651
 30
0.0
 10
211.273145
 20
0.710651
 30
0.0
 10
211.124945
 20
0.668351
 30
0.0
 10
210.974145
 20
0.629151
 30
0.0
 10
210.820945
 20
0.592551
 30
0.0
 10
210.665945
 20
0.558251
 30
0.0
 10
210.509345
 20
0.526051
 30
0.0
 10
210.351745
 20
0.495651
 30
0.0
 10
210.034745
 20
0.438651
 30
0.0
 10
209.651345
 20
0.375851
 30
0.0
 10
209.458245
 20
0.347151
 30
0.0
 10
209.264245
 20
0.320551
 30
0.0
 10
209.069445
 20
0.296051
 30
0.0
 10
208.873745
 20
0.274051
 30
0.0
 10
208.677245
 20
0.254551
 30
0.0
 10
208.480045
 20
0.237751
 30
0.0
 10
208.244545
 20
0.220951
 30
0.0
 10
208.008245
 20
0.207251
 30
0.0
 10
207.771345
 20
0.196451
 30
0.0
 10
207.534045
 20
0.188451
 30
0.0
 10
207.296545
 20
0.183451
 30
0.0
 10
207.058845
 20
0.181451
 30
0.0
 10
206.821345
 20
0.182251
 30
0.0
 10
206.584145
 20
0.186251
 30
0.0
 10
206.306845
 20
0.194251
 30
0.0
 10
206.029945
 20
0.206351
 30
0.0
 10
205.753545
 20
0.222151
 30
0.0
 10
205.477645
 20
0.241151
 30
0.0
 10
204.927545
 20
0.287351
 30
0.0
 10
204.380345
 20
0.341851
 30
0.0
 10
203.802245
 20
0.408251
 30
0.0
 10
203.227945
 20
0.484551
 30
0.0
 10
202.657645
 20
0.570151
 30
0.0
 10
202.091845
 20
0.664351
 30
0.0
 10
201.554345
 20
0.763351
 30
0.0
 10
201.021745
 20
0.871151
 30
0.0
 10
200.494045
 20
0.986451
 30
0.0
 10
199.971045
 20
1.107851
 30
0.0
 10
199.484345
 20
1.228051
 30
0.0
 10
199.002945
 20
1.354851
 30
0.0
 10
198.525745
 20
1.486751
 30
0.0
 10
198.051945
 20
1.622451
 30
0.0
 10
197.607245
 20
1.755451
 30
0.0
 10
197.166945
 20
1.893051
 30
0.0
 10
196.291345
 20
2.173451
 30
0.0
 10
195.433545
 20
2.453151
 30
0.0
 10
195.004845
 20
2.593251
 30
0.0
 10
194.573045
 20
2.730251
 30
0.0
 10
194.127545
 20
2.866251
 30
0.0
 10
193.679345
 20
2.999451
 30
0.0
 10
192.780945
 20
3.263651
 30
0.0
 10
191.856445
 20
3.534351
 30
0.0
 10
191.394546
 20
3.670151
 30
0.0
 10
190.934946
 20
3.808251
 30
0.0
 10
190.015546
 20
4.088751
 30
0.0
 10
189.559746
 20
4.233051
 30
0.0
 10
189.110446
 20
4.383351
 30
0.0
 10
188.689346
 20
4.530651
 30
0.0
 10
188.272646
 20
4.681951
 30
0.0
 10
188.066946
 20
4.759851
 30
0.0
 10
187.863746
 20
4.839651
 30
0.0
 10
187.663246
 20
4.921551
 30
0.0
 10
187.466046
 20
5.005951
 30
0.0
 10
187.292246
 20
5.083151
 30
0.0
 10
187.120046
 20
5.161651
 30
0.0
 10
186.949946
 20
5.241751
 30
0.0
 10
186.782546
 20
5.323651
 30
0.0
 10
186.618246
 20
5.407351
 30
0.0
 10
186.457646
 20
5.493251
 30
0.0
 10
186.301246
 20
5.581451
 30
0.0
 10
186.149546
 20
5.672151
 30
0.0
 10
186.017446
 20
5.755151
 30
0.0
 10
185.888046
 20
5.839751
 30
0.0
 10
185.762146
 20
5.926051
 30
0.0
 10
185.640146
 20
6.014151
 30
0.0
 10
185.522646
 20
6.104051
 30
0.0
 10
185.410246
 20
6.195951
 30
0.0
 10
185.356246
 20
6.242651
 30
0.0
 10
185.303646
 20
6.289851
 30
0.0
 10
185.252646
 20
6.337551
 30
0.0
 10
185.203346
 20
6.385851
 30
0.0
 10
185.159646
 20
6.430551
 30
0.0
 10
185.117346
 20
6.475751
 30
0.0
 10
185.076646
 20
6.521351
 30
0.0
 10
185.037246
 20
6.567351
 30
0.0
 10
184.999146
 20
6.613851
 30
0.0
 10
184.962446
 20
6.660651
 30
0.0
 10
184.927046
 20
6.707751
 30
0.0
 10
184.892846
 20
6.755151
 30
0.0
 10
184.859946
 20
6.802951
 30
0.0
 10
184.828146
 20
6.850951
 30
0.0
 10
184.797546
 20
6.899151
 30
0.0
 10
184.768046
 20
6.947651
 30
0.0
 10
184.712246
 20
7.045051
 30
0.0
 10
184.660446
 20
7.143051
 30
0.0
 10
184.636446
 20
7.191851
 30
0.0
 10
184.613946
 20
7.240951
 30
0.0
 10
184.592846
 20
7.290351
 30
0.0
 10
184.573046
 20
7.339851
 30
0.0
 10
184.554546
 20
7.389451
 30
0.0
 10
184.537246
 20
7.439351
 30
0.0
 10
184.505846
 20
7.539351
 30
0.0
 10
184.478246
 20
7.639851
 30
0.0
 10
184.453846
 20
7.740651
 30
0.0
 10
184.432046
 20
7.841551
 30
0.0
 10
184.412246
 20
7.942551
 30
0.0
 10
184.403246
 20
7.994851
 30
0.0
 10
184.395246
 20
8.047251
 30
0.0
 10
184.382146
 20
8.152251
 30
0.0
 10
184.373146
 20
8.257351
 30
0.0
 10
184.367146
 20
8.362551
 30
0.0
 10
184.363146
 20
8.467751
 30
0.0
 10
184.360146
 20
8.573051
 30
0.0
 10
184.357146
 20
8.783651
 30
0.0
 10
184.356446
 20
8.893451
 30
0.0
 10
184.358446
 20
9.003251
 30
0.0
 10
184.362446
 20
9.112951
 30
0.0
 10
184.367446
 20
9.222751
 30
0.0
 10
184.378346
 20
9.442351
 30
0.0
 10
184.382346
 20
9.552151
 30
0.0
 10
184.384346
 20
9.661851
 30
0.0
 10
184.385346
 20
10.112851
 30
0.0
 10
184.384346
 20
10.225651
 30
0.0
 10
184.381346
 20
10.338351
 30
0.0
 10
184.376346
 20
10.450951
 30
0.0
 10
184.368346
 20
10.563551
 30
0.0
 10
184.358346
 20
10.673551
 30
0.0
 10
184.347546
 20
10.783451
 30
0.0
 10
184.335046
 20
10.893351
 30
0.0
 10
184.320646
 20
11.003051
 30
0.0
 10
184.303946
 20
11.112751
 30
0.0
 10
184.284646
 20
11.222251
 30
0.0
 10
184.262346
 20
11.331551
 30
0.0
 10
184.236946
 20
11.440651
 30
0.0
 10
184.210146
 20
11.544551
 30
0.0
 10
184.181446
 20
11.648351
 30
0.0
 10
184.150446
 20
11.751951
 30
0.0
 10
184.116746
 20
11.855351
 30
0.0
 10
184.080046
 20
11.958351
 30
0.0
 10
184.039746
 20
12.060951
 30
0.0
 10
183.995646
 20
12.162851
 30
0.0
 10
183.947246
 20
12.264151
 30
0.0
 10
183.897546
 20
12.359551
 30
0.0
 10
183.844746
 20
12.454451
 30
0.0
 10
183.788546
 20
12.548751
 30
0.0
 10
183.729046
 20
12.642351
 30
0.0
 10
183.666146
 20
12.735251
 30
0.0
 10
183.599846
 20
12.827351
 30
0.0
 10
183.529946
 20
12.918651
 30
0.0
 10
183.456646
 20
13.009051
 30
0.0
 10
183.382046
 20
13.096851
 30
0.0
 10
183.304846
 20
13.184051
 30
0.0
 10
183.224746
 20
13.270551
 30
0.0
 10
183.141346
 20
13.356051
 30
0.0
 10
183.098246
 20
13.398251
 30
0.0
 10
183.054046
 20
13.440151
 30
0.0
 10
183.008846
 20
13.481651
 30
0.0
 10
182.962546
 20
13.522751
 30
0.0
 10
182.915146
 20
13.563351
 30
0.0
 10
182.866446
 20
13.603551
 30
0.0
 10
182.816446
 20
13.643151
 30
0.0
 10
182.765146
 20
13.682251
 30
0.0
 10
182.651146
 20
13.764651
 30
0.0
 10
182.532346
 20
13.845151
 30
0.0
 10
182.409046
 20
13.923551
 30
0.0
 10
182.281646
 20
13.999951
 30
0.0
 10
182.150146
 20
14.074251
 30
0.0
 10
182.014946
 20
14.146251
 30
0.0
 10
181.876246
 20
14.215851
 30
0.0
 10
181.734246
 20
14.283151
 30
0.0
 10
181.569046
 20
14.356851
 30
0.0
 10
181.399746
 20
14.427851
 30
0.0
 10
181.226746
 20
14.496051
 30
0.0
 10
181.050146
 20
14.561451
 30
0.0
 10
180.870346
 20
14.623851
 30
0.0
 10
180.687346
 20
14.683351
 30
0.0
 10
180.501546
 20
14.739751
 30
0.0
 10
180.313146
 20
14.793051
 30
0.0
 10
180.110946
 20
14.846451
 30
0.0
 10
179.905946
 20
14.896951
 30
0.0
 10
179.698246
 20
14.944251
 30
0.0
 10
179.488246
 20
14.988151
 30
0.0
 10
179.275846
 20
15.028251
 30
0.0
 10
179.061546
 20
15.064251
 30
0.0
 10
178.845246
 20
15.096051
 30
0.0
 10
178.627346
 20
15.123151
 30
0.0
 10
178.409246
 20
15.145351
 30
0.0
 10
178.189646
 20
15.162851
 30
0.0
 10
177.968746
 20
15.176051
 30
0.0
 10
177.746946
 20
15.185051
 30
0.0
 10
177.524746
 20
15.190051
 30
0.0
 10
177.302346
 20
15.191051
 30
0.0
 10
177.080146
 20
15.189051
 30
0.0
 10
176.858446
 20
15.184051
 30
0.0
 10
176.636146
 20
15.176051
 30
0.0
 10
176.414046
 20
15.164051
 30
0.0
 10
176.192546
 20
15.148351
 30
0.0
 10
175.971846
 20
15.129151
 30
0.0
 10
175.752046
 20
15.106551
 30
0.0
 10
175.533546
 20
15.080551
 30
0.0
 10
175.316446
 20
15.051351
 30
0.0
 10
175.101146
 20
15.018751
 30
0.0
 10
174.896346
 20
14.984051
 30
0.0
 10
174.693546
 20
14.945551
 30
0.0
 10
174.492746
 20
14.903651
 30
0.0
 10
174.293846
 20
14.858751
 30
0.0
 10
174.096746
 20
14.811251
 30
0.0
 10
173.901246
 20
14.761551
 30
0.0
 10
173.514946
 20
14.656951
 30
0.0
 10
173.331246
 20
14.604151
 30
0.0
 10
173.149446
 20
14.549251
 30
0.0
 10
172.969546
 20
14.492251
 30
0.0
 10
172.791446
 20
14.433451
 30
0.0
 10
172.615146
 20
14.372751
 30
0.0
 10
172.440646
 20
14.310551
 30
0.0
 10
172.097146
 20
14.181751
 30
0.0
 10
171.921946
 20
14.113051
 30
0.0
 10
171.748346
 20
14.042951
 30
0.0
 10
171.576646
 20
13.971351
 30
0.0
 10
171.407046
 20
13.898151
 30
0.0
 10
171.239946
 20
13.823251
 30
0.0
 10
171.075446
 20
13.746551
 30
0.0
 10
170.914046
 20
13.667951
 30
0.0
 10
170.755746
 20
13.587251
 30
0.0
 10
170.584146
 20
13.495651
 30
0.0
 10
170.415846
 20
13.402051
 30
0.0
 10
170.250846
 20
13.306451
 30
0.0
 10
170.089346
 20
13.209051
 30
0.0
 10
169.931146
 20
13.109851
 30
0.0
 10
169.776446
 20
13.008951
 30
0.0
 10
169.625246
 20
12.906451
 30
0.0
 10
169.477446
 20
12.802451
 30
0.0
 10
169.310946
 20
12.679251
 30
0.0
 10
169.150346
 20
12.553651
 30
0.0
 10
168.994646
 20
12.425951
 30
0.0
 10
168.842846
 20
12.296651
 30
0.0
 10
168.693946
 20
12.166251
 30
0.0
 10
168.546846
 20
12.035151
 30
0.0
 10
168.253946
 20
11.772651
 30
0.0
 10
168.102046
 20
11.634951
 30
0.0
 10
167.953546
 20
11.496151
 30
0.0
 10
167.662146
 20
11.216451
 30
0.0
 10
167.371546
 20
10.936351
 30
0.0
 10
167.224046
 20
10.797151
 30
0.0
 10
167.073646
 20
10.658951
 30
0.0
 10
166.931546
 20
10.532151
 30
0.0
 10
166.787446
 20
10.406151
 30
0.0
 10
166.495346
 20
10.155451
 30
0.0
 10
166.202246
 20
9.905051
 30
0.0
 10
165.913146
 20
9.653251
 30
0.0
 10
165.585346
 20
9.451651
 30
0.0
 10
164.846646
 20
9.018451
 30
0.0
 10
164.410046
 20
8.770951
 30
0.0
 10
163.975046
 20
8.532651
 30
0.0
 10
163.576346
 20
8.325851
 30
0.0
 10
163.401446
 20
8.241251
 30
0.0
 10
163.248646
 20
8.172951
 30
0.0
 10
163.095346
 20
8.113251
 30
0.0
 10
162.919146
 20
8.053151
 30
0.0
 10
162.515646
 20
7.933851
 30
0.0
 10
162.074746
 20
7.819751
 30
0.0
 10
161.632546
 20
7.715851
 30
0.0
 10
160.889646
 20
7.557051
 30
0.0
 10
160.577546
 20
7.495651
 30
0.0
 10
160.244246
 20
7.474051
 30
0.0
 10
159.910346
 20
7.455351
 30
0.0
 10
159.575846
 20
7.439951
 30
0.0
 10
159.241146
 20
7.428051
 30
0.0
 10
158.801946
 20
7.417551
 30
0.0
 10
158.362346
 20
7.411551
 30
0.0
 10
157.922646
 20
7.409551
 30
0.0
 10
157.483046
 20
7.410551
 30
0.0
 10
156.897546
 20
7.415551
 30
0.0
 10
156.312446
 20
7.425551
 30
0.0
 10
155.727546
 20
7.439651
 30
0.0
 10
155.143046
 20
7.458751
 30
0.0
 10
154.500846
 20
7.485151
 30
0.0
 10
153.859246
 20
7.517051
 30
0.0
 10
153.218546
 20
7.554051
 30
0.0
 10
152.579046
 20
7.596151
 30
0.0
 10
151.954246
 20
7.641651
 30
0.0
 10
151.330546
 20
7.691751
 30
0.0
 10
150.708446
 20
7.747851
 30
0.0
 10
150.088846
 20
7.811151
 30
0.0
 10
149.496546
 20
7.878451
 30
0.0
 10
148.906647
 20
7.951751
 30
0.0
 10
148.319947
 20
8.032451
 30
0.0
 10
147.737247
 20
8.121951
 30
0.0
 10
147.189647
 20
8.214851
 30
0.0
 10
146.645947
 20
8.315251
 30
0.0
 10
146.107147
 20
8.423651
 30
0.0
 10
145.574047
 20
8.540151
 30
0.0
 10
145.138047
 20
8.641551
 30
0.0
 10
144.705947
 20
8.748551
 30
0.0
 10
144.492347
 20
8.804951
 30
0.0
 10
144.281047
 20
8.863851
 30
0.0
 10
144.072347
 20
8.925451
 30
0.0
 10
143.866647
 20
8.990151
 30
0.0
 10
143.593347
 20
9.081551
 30
0.0
 10
143.458547
 20
9.129251
 30
0.0
 10
143.325847
 20
9.178651
 30
0.0
 10
143.195747
 20
9.230151
 30
0.0
 10
143.068947
 20
9.283851
 30
0.0
 10
142.945947
 20
9.340251
 30
0.0
 10
142.827447
 20
9.399551
 30
0.0
 10
142.782447
 20
9.423651
 30
0.0
 10
142.738447
 20
9.448351
 30
0.0
 10
142.695447
 20
9.473651
 30
0.0
 10
142.653347
 20
9.499351
 30
0.0
 10
142.571647
 20
9.552251
 30
0.0
 10
142.492947
 20
9.606651
 30
0.0
 10
142.416847
 20
9.662451
 30
0.0
 10
142.343047
 20
9.719151
 30
0.0
 10
142.271147
 20
9.776451
 30
0.0
 10
142.200747
 20
9.834251
 30
0.0
 10
142.128847
 20
9.895551
 30
0.0
 10
142.059847
 20
9.957851
 30
0.0
 10
141.993447
 20
10.021051
 30
0.0
 10
141.929247
 20
10.085051
 30
0.0
 10
141.867047
 20
10.149751
 30
0.0
 10
141.806647
 20
10.214951
 30
0.0
 10
141.747847
 20
10.280551
 30
0.0
 10
141.690247
 20
10.346451
 30
0.0
 10
141.633347
 20
10.413451
 30
0.0
 10
141.578247
 20
10.480951
 30
0.0
 10
141.524847
 20
10.548851
 30
0.0
 10
141.473147
 20
10.617151
 30
0.0
 10
141.423247
 20
10.685951
 30
0.0
 10
141.375147
 20
10.755151
 30
0.0
 10
141.328847
 20
10.824651
 30
0.0
 10
141.284347
 20
10.894551
 30
0.0
 10
141.242447
 20
10.964351
 30
0.0
 10
141.202947
 20
11.034651
 30
0.0
 10
141.165547
 20
11.105251
 30
0.0
 10
141.129747
 20
11.176251
 30
0.0
 10
141.095147
 20
11.247451
 30
0.0
 10
141.061547
 20
11.318751
 30
0.0
 10
140.995447
 20
11.461451
 30
0.0
 10
140.956647
 20
11.547551
 30
0.0
 10
140.919447
 20
11.633851
 30
0.0
 10
140.848447
 20
11.807051
 30
0.0
 10
140.778647
 20
11.980351
 30
0.0
 10
140.743147
 20
12.066951
 30
0.0
 10
140.706547
 20
12.153451
 30
0.0
 10
140.606947
 20
12.383251
 30
0.0
 10
140.506047
 20
12.612851
 30
0.0
 10
140.403647
 20
12.842251
 30
0.0
 10
140.299847
 20
13.071551
 30
0.0
 10
140.070347
 20
13.573551
 30
0.0
 10
139.952247
 20
13.824051
 30
0.0
 10
139.891447
 20
13.948951
 30
0.0
 10
139.829247
 20
14.073651
 30
0.0
 10
139.708247
 20
14.310551
 30
0.0
 10
139.584047
 20
14.546851
 30
0.0
 10
139.520047
 20
14.664651
 30
0.0
 10
139.454247
 20
14.782151
 30
0.0
 10
139.386347
 20
14.899251
 30
0.0
 10
139.316247
 20
15.015951
 30
0.0
 10
139.168547
 20
15.252551
 30
0.0
 10
139.092547
 20
15.370451
 30
0.0
 10
139.014447
 20
15.487951
 30
0.0
 10
138.934147
 20
15.604851
 30
0.0
 10
138.851247
 20
15.721251
 30
0.0
 10
138.765447
 20
15.836851
 30
0.0
 10
138.676247
 20
15.951651
 30
0.0
 10
138.582047
 20
16.068251
 30
0.0
 10
138.485047
 20
16.184151
 30
0.0
 10
138.385447
 20
16.299251
 30
0.0
 10
138.283047
 20
16.413651
 30
0.0
 10
138.177947
 20
16.527151
 30
0.0
 10
138.070147
 20
16.639951
 30
0.0
 10
137.959547
 20
16.751751
 30
0.0
 10
137.846147
 20
16.862751
 30
0.0
 10
137.730447
 20
16.972551
 30
0.0
 10
137.611847
 20
17.081351
 30
0.0
 10
137.490547
 20
17.189351
 30
0.0
 10
137.366647
 20
17.296351
 30
0.0
 10
137.240147
 20
17.402451
 30
0.0
 10
137.111147
 20
17.507551
 30
0.0
 10
136.979747
 20
17.611551
 30
0.0
 10
136.845947
 20
17.714551
 30
0.0
 10
136.711047
 20
17.815851
 30
0.0
 10
136.573947
 20
17.916251
 30
0.0
 10
136.434547
 20
18.015651
 30
0.0
 10
136.292747
 20
18.113951
 30
0.0
 10
136.148347
 20
18.211051
 30
0.0
 10
136.001347
 20
18.306851
 30
0.0
 10
135.851547
 20
18.401251
 30
0.0
 10
135.698847
 20
18.494051
 30
0.0
 10
135.558547
 20
18.576951
 30
0.0
 10
135.416547
 20
18.659051
 30
0.0
 10
135.272447
 20
18.740051
 30
0.0
 10
135.125947
 20
18.819651
 30
0.0
 10
134.976747
 20
18.897651
 30
0.0
 10
134.824647
 20
18.973551
 30
0.0
 10
134.669147
 20
19.047351
 30
0.0
 10
134.510147
 20
19.118451
 30
0.0
 10
134.376247
 20
19.175651
 30
0.0
 10
134.240247
 20
19.231351
 30
0.0
 10
134.102047
 20
19.285551
 30
0.0
 10
133.961547
 20
19.337751
 30
0.0
 10
133.818647
 20
19.387751
 30
0.0
 10
133.673247
 20
19.435251
 30
0.0
 10
133.525247
 20
19.479851
 30
0.0
 10
133.374647
 20
19.521451
 30
0.0
 10
133.229647
 20
19.557751
 30
0.0
 10
133.082347
 20
19.591251
 30
0.0
 10
132.933047
 20
19.622051
 30
0.0
 10
132.781947
 20
19.650251
 30
0.0
 10
132.629447
 20
19.675951
 30
0.0
 10
132.475847
 20
19.699351
 30
0.0
 10
132.321247
 20
19.720451
 30
0.0
 10
132.166047
 20
19.739451
 30
0.0
 10
131.980447
 20
19.758651
 30
0.0
 10
131.793647
 20
19.774151
 30
0.0
 10
131.606047
 20
19.786451
 30
0.0
 10
131.417747
 20
19.796451
 30
0.0
 10
131.039847
 20
19.809951
 30
0.0
 10
130.661947
 20
19.819951
 30
0.0
 10
130.124747
 20
19.826951
 30
0.0
 10
129.587147
 20
19.824951
 30
0.0
 10
128.512047
 20
19.807951
 30
0.0
 10
127.038847
 20
19.776351
 30
0.0
 10
126.303147
 20
19.751951
 30
0.0
 10
125.568647
 20
19.717451
 30
0.0
 10
124.775347
 20
19.672451
 30
0.0
 10
123.982847
 20
19.620351
 30
0.0
 10
123.587947
 20
19.589351
 30
0.0
 10
123.194447
 20
19.553751
 30
0.0
 10
122.802947
 20
19.512751
 30
0.0
 10
122.413647
 20
19.465451
 30
0.0
 10
122.072647
 20
19.418951
 30
0.0
 10
121.733147
 20
19.368651
 30
0.0
 10
121.395347
 20
19.314351
 30
0.0
 10
121.059747
 20
19.255851
 30
0.0
 10
120.726747
 20
19.192851
 30
0.0
 10
120.396747
 20
19.125351
 30
0.0
 10
120.070147
 20
19.052951
 30
0.0
 10
119.747447
 20
18.975551
 30
0.0
 10
119.489847
 20
18.909351
 30
0.0
 10
119.234747
 20
18.839651
 30
0.0
 10
118.982647
 20
18.766351
 30
0.0
 10
118.733947
 20
18.689451
 30
0.0
 10
118.488947
 20
18.608851
 30
0.0
 10
118.248247
 20
18.524451
 30
0.0
 10
118.012147
 20
18.436251
 30
0.0
 10
117.781047
 20
18.344051
 30
0.0
 10
117.611747
 20
18.272051
 30
0.0
 10
117.446147
 20
18.197151
 30
0.0
 10
117.284347
 20
18.119451
 30
0.0
 10
117.126347
 20
18.039251
 30
0.0
 10
116.972147
 20
17.956551
 30
0.0
 10
116.821947
 20
17.871751
 30
0.0
 10
116.675647
 20
17.784851
 30
0.0
 10
116.533447
 20
17.696151
 30
0.0
 10
116.474847
 20
17.657951
 30
0.0
 10
116.417547
 20
17.619051
 30
0.0
 10
116.306747
 20
17.539451
 30
0.0
 10
116.200147
 20
17.458051
 30
0.0
 10
116.096947
 20
17.375151
 30
0.0
 10
115.996147
 20
17.291151
 30
0.0
 10
115.896947
 20
17.206551
 30
0.0
 10
115.700047
 20
17.037051
 30
0.0
 10
115.603347
 20
16.953351
 30
0.0
 10
115.508247
 20
16.869051
 30
0.0
 10
115.414647
 20
16.784151
 30
0.0
 10
115.322347
 20
16.698851
 30
0.0
 10
115.140847
 20
16.527051
 30
0.0
 10
114.962147
 20
16.354451
 30
0.0
 10
114.785247
 20
16.181151
 30
0.0
 10
114.611347
 20
16.006951
 30
0.0
 10
114.525947
 20
15.919351
 30
0.0
 10
114.441647
 20
15.831451
 30
0.0
 10
114.358747
 20
15.743051
 30
0.0
 10
114.277347
 20
15.654251
 30
0.0
 10
114.198147
 20
15.565751
 30
0.0
 10
114.120647
 20
15.476751
 30
0.0
 10
114.044647
 20
15.387351
 30
0.0
 10
113.969747
 20
15.297651
 30
0.0
 10
113.822547
 20
15.117651
 30
0.0
 10
113.677147
 20
14.937051
 30
0.0
 10
113.526447
 20
14.746451
 30
0.0
 10
113.378747
 20
14.554951
 30
0.0
 10
113.087847
 20
14.171051
 30
0.0
 10
112.466147
 20
13.333951
 30
0.0
 10
112.302447
 20
13.119551
 30
0.0
 10
112.137147
 20
12.905451
 30
0.0
 10
111.803747
 20
12.478051
 30
0.0
 10
111.464547
 20
12.036251
 30
0.0
 10
111.378747
 20
11.926051
 30
0.0
 10
111.291347
 20
11.816251
 30
0.0
 10
111.201647
 20
11.707051
 30
0.0
 10
111.108947
 20
11.598751
 30
0.0
 10
111.074547
 20
11.563951
 30
0.0
 10
111.017547
 20
11.512351
 30
0.0
 10
110.846047
 20
11.366751
 30
0.0
 10
110.614447
 20
11.179151
 30
0.0
 10
110.342547
 20
10.966551
 30
0.0
 10
110.050347
 20
10.746051
 30
0.0
 10
109.757747
 20
10.534551
 30
0.0
 10
109.617547
 20
10.437551
 30
0.0
 10
109.484747
 20
10.349251
 30
0.0
 10
109.361847
 20
10.271651
 30
0.0
 10
109.251247
 20
10.207051
 30
0.0
 10
109.000547
 20
10.073751
 30
0.0
 10
108.679547
 20
9.911751
 30
0.0
 10
108.313847
 20
9.733251
 30
0.0
 10
107.928647
 20
9.550751
 30
0.0
 10
107.549447
 20
9.376551
 30
0.0
 10
107.201647
 20
9.223051
 30
0.0
 10
106.910747
 20
9.102551
 30
0.0
 10
106.702147
 20
9.027551
 30
0.0
 10
106.519447
 20
8.974451
 30
0.0
 10
106.299548
 20
8.914251
 30
0.0
 10
105.808548
 20
8.788251
 30
0.0
 10
105.567548
 20
8.730251
 30
0.0
 10
105.349648
 20
8.680651
 30
0.0
 10
105.169948
 20
8.643551
 30
0.0
 10
105.043648
 20
8.622851
 30
0.0
 10
104.666848
 20
8.581551
 30
0.0
 10
104.288448
 20
8.545251
 30
0.0
 10
103.530448
 20
8.475951
 30
0.0
 10
102.547048
 20
8.377451
 30
0.0
 10
102.054848
 20
8.329651
 30
0.0
 10
101.561548
 20
8.286251
 30
0.0
 10
100.964948
 20
8.238651
 30
0.0
 10
100.367548
 20
8.194551
 30
0.0
 10
99.769052
 20
8.155851
 30
0.0
 10
99.169252
 20
8.124651
 30
0.0
 10
98.495052
 20
8.096651
 30
0.0
 10
97.819652
 20
8.075151
 30
0.0
 10
97.143852
 20
8.063351
 30
0.0
 10
96.805952
 20
8.062351
 30
0.0
 10
96.468252
 20
8.064351
 30
0.0
 10
96.055652
 20
8.083951
 30
0.0
 10
95.545452
 20
8.127751
 30
0.0
 10
94.984752
 20
8.187451
 30
0.0
 10
94.420552
 20
8.254951
 30
0.0
 10
93.069152
 20
8.436151
 30
0.0
 10
87.315952
 20
10.757651
 30
0.0
 10
87.168652
 20
10.981551
 30
0.0
 10
87.009152
 20
11.232351
 30
0.0
 10
86.814452
 20
11.550051
 30
0.0
 10
86.601052
 20
11.915251
 30
0.0
 10
86.492452
 20
12.109651
 30
0.0
 10
86.385252
 20
12.308651
 30
0.0
 10
86.281652
 20
12.509851
 30
0.0
 10
86.183652
 20
12.710851
 30
0.0
 10
86.093352
 20
12.909351
 30
0.0
 10
86.012752
 20
13.102651
 30
0.0
 10
85.983152
 20
13.180551
 30
0.0
 10
85.955552
 20
13.258651
 30
0.0
 10
85.905552
 20
13.415551
 30
0.0
 10
85.861052
 20
13.572951
 30
0.0
 10
85.820152
 20
13.730751
 30
0.0
 10
85.742252
 20
14.046851
 30
0.0
 10
85.701652
 20
14.204651
 30
0.0
 10
85.657452
 20
14.362151
 30
0.0
 10
85.492752
 20
14.920351
 30
0.0
 10
85.406152
 20
15.199051
 30
0.0
 10
85.360652
 20
15.338151
 30
0.0
 10
85.313052
 20
15.477051
 30
0.0
 10
85.230752
 20
15.709451
 30
0.0
 10
85.188452
 20
15.825551
 30
0.0
 10
85.144752
 20
15.941551
 30
0.0
 10
85.099452
 20
16.057251
 30
0.0
 10
85.051852
 20
16.172651
 30
0.0
 10
85.001752
 20
16.287751
 30
0.0
 10
84.948652
 20
16.402251
 30
0.0
 10
84.869852
 20
16.570551
 30
0.0
 10
84.829752
 20
16.654651
 30
0.0
 10
84.787552
 20
16.738351
 30
0.0
 10
84.765352
 20
16.779951
 30
0.0
 10
84.742252
 20
16.821451
 30
0.0
 10
84.717952
 20
16.862551
 30
0.0
 10
84.692452
 20
16.903551
 30
0.0
 10
84.665552
 20
16.944151
 30
0.0
 10
84.637152
 20
16.984351
 30
0.0
 10
84.607052
 20
17.024251
 30
0.0
 10
84.575052
 20
17.063751
 30
0.0
 10
84.534652
 20
17.111051
 30
0.0
 10
84.492252
 20
17.158251
 30
0.0
 10
84.470252
 20
17.181751
 30
0.0
 10
84.447652
 20
17.204951
 30
0.0
 10
84.424252
 20
17.227951
 30
0.0
 10
84.400052
 20
17.250651
 30
0.0
 10
84.375052
 20
17.272951
 30
0.0
 10
84.349052
 20
17.294951
 30
0.0
 10
84.322152
 20
17.316451
 30
0.0
 10
84.294252
 20
17.337451
 30
0.0
 10
84.265252
 20
17.357951
 30
0.0
 10
84.235052
 20
17.377851
 30
0.0
 10
84.203552
 20
17.397051
 30
0.0
 10
84.170852
 20
17.415551
 30
0.0
 10
84.146452
 20
17.428351
 30
0.0
 10
84.121252
 20
17.440551
 30
0.0
 10
84.095352
 20
17.452151
 30
0.0
 10
84.068652
 20
17.463351
 30
0.0
 10
84.041252
 20
17.474051
 30
0.0
 10
84.013352
 20
17.484351
 30
0.0
 10
83.955852
 20
17.503751
 30
0.0
 10
83.896752
 20
17.521651
 30
0.0
 10
83.836452
 20
17.538451
 30
0.0
 10
83.775452
 20
17.554351
 30
0.0
 10
83.714352
 20
17.569451
 30
0.0
 10
83.651852
 20
17.583651
 30
0.0
 10
83.588352
 20
17.596451
 30
0.0
 10
83.524052
 20
17.607851
 30
0.0
 10
83.459152
 20
17.618151
 30
0.0
 10
83.393552
 20
17.627151
 30
0.0
 10
83.327752
 20
17.635151
 30
0.0
 10
83.195552
 20
17.650851
 30
0.0
 10
83.123352
 20
17.658851
 30
0.0
 10
83.050952
 20
17.665851
 30
0.0
 10
82.978152
 20
17.671851
 30
0.0
 10
82.905152
 20
17.676851
 30
0.0
 10
82.758752
 20
17.684851
 30
0.0
 10
82.611952
 20
17.689851
 30
0.0
 10
82.524652
 20
17.690851
 30
0.0
 10
82.437252
 20
17.691251
 30
0.0
 10
82.262352
 20
17.689251
 30
0.0
 10
82.087552
 20
17.684251
 30
0.0
 10
81.913052
 20
17.676251
 30
0.0
 10
81.676652
 20
17.662551
 30
0.0
 10
81.441152
 20
17.645051
 30
0.0
 10
81.206252
 20
17.624851
 30
0.0
 10
80.971752
 20
17.602851
 30
0.0
 10
80.650552
 20
17.569151
 30
0.0
 10
80.330552
 20
17.531851
 30
0.0
 10
79.690952
 20
17.455951
 30
0.0
 10
78.944952
 20
17.371951
 30
0.0
 10
78.197652
 20
17.291451
 30
0.0
 10
77.420852
 20
17.214951
 30
0.0
 10
76.642152
 20
17.144651
 30
0.0
 10
75.848952
 20
17.079751
 30
0.0
 10
75.054252
 20
17.020651
 30
0.0
 10
74.646652
 20
16.993951
 30
0.0
 10
74.238452
 20
16.969551
 30
0.0
 10
73.830352
 20
16.944551
 30
0.0
 10
73.423152
 20
16.916151
 30
0.0
 10
72.627552
 20
16.852251
 30
0.0
 10
72.231052
 20
16.815851
 30
0.0
 10
71.836052
 20
16.774551
 30
0.0
 10
71.465252
 20
16.731351
 30
0.0
 10
71.095752
 20
16.684251
 30
0.0
 10
70.728352
 20
16.632151
 30
0.0
 10
70.364352
 20
16.573651
 30
0.0
 10
70.038852
 20
16.515851
 30
0.0
 10
69.716052
 20
16.453251
 30
0.0
 10
69.556152
 20
16.419651
 30
0.0
 10
69.397352
 20
16.384451
 30
0.0
 10
69.240052
 20
16.347351
 30
0.0
 10
69.084352
 20
16.308151
 30
0.0
 10
68.963852
 20
16.275851
 30
0.0
 10
68.844652
 20
16.242151
 30
0.0
 10
68.726652
 20
16.207051
 30
0.0
 10
68.609852
 20
16.170551
 30
0.0
 10
68.494252
 20
16.132951
 30
0.0
 10
68.379852
 20
16.094051
 30
0.0
 10
68.266652
 20
16.054151
 30
0.0
 10
68.154752
 20
16.013251
 30
0.0
 10
68.056852
 20
15.975851
 30
0.0
 10
67.960452
 20
15.937251
 30
0.0
 10
67.865452
 20
15.897551
 30
0.0
 10
67.771452
 20
15.856951
 30
0.0
 10
67.586248
 20
15.773751
 30
0.0
 10
67.403448
 20
15.689051
 30
0.0
 10
67.210648
 20
15.597951
 30
0.0
 10
67.020648
 20
15.505151
 30
0.0
 10
66.926948
 20
15.457851
 30
0.0
 10
66.834548
 20
15.409851
 30
0.0
 10
66.743548
 20
15.361051
 30
0.0
 10
66.653948
 20
15.311251
 30
0.0
 10
66.469548
 20
15.205451
 30
0.0
 10
66.378748
 20
15.151651
 30
0.0
 10
66.289548
 20
15.097051
 30
0.0
 10
66.202248
 20
15.041551
 30
0.0
 10
66.117348
 20
14.984951
 30
0.0
 10
66.035348
 20
14.927051
 30
0.0
 10
65.956648
 20
14.867751
 30
0.0
 10
65.917148
 20
14.836351
 30
0.0
 10
65.878548
 20
14.804651
 30
0.0
 10
65.803848
 20
14.740151
 30
0.0
 10
65.732248
 20
14.674551
 30
0.0
 10
65.663348
 20
14.607951
 30
0.0
 10
65.596948
 20
14.540551
 30
0.0
 10
65.532648
 20
14.472451
 30
0.0
 10
65.470048
 20
14.403851
 30
0.0
 10
65.408848
 20
14.334951
 30
0.0
 10
65.347648
 20
14.263551
 30
0.0
 10
65.288648
 20
14.191451
 30
0.0
 10
65.231948
 20
14.118751
 30
0.0
 10
65.177248
 20
14.045551
 30
0.0
 10
65.124548
 20
13.971951
 30
0.0
 10
65.073748
 20
13.897851
 30
0.0
 10
65.024648
 20
13.823451
 30
0.0
 10
64.977248
 20
13.748751
 30
0.0
 10
64.928148
 20
13.668551
 30
0.0
 10
64.880748
 20
13.587951
 30
0.0
 10
64.835148
 20
13.507051
 30
0.0
 10
64.791648
 20
13.425851
 30
0.0
 10
64.750348
 20
13.344251
 30
0.0
 10
64.711348
 20
13.262251
 30
0.0
 10
64.674848
 20
13.179951
 30
0.0
 10
64.641048
 20
13.097251
 30
0.0
 10
64.603548
 20
12.997451
 30
0.0
 10
64.569048
 20
12.897351
 30
0.0
 10
64.537548
 20
12.796751
 30
0.0
 10
64.508948
 20
12.695951
 30
0.0
 10
64.483248
 20
12.594951
 30
0.0
 10
64.460348
 20
12.493651
 30
0.0
 10
64.440148
 20
12.392251
 30
0.0
 10
64.422748
 20
12.290751
 30
0.0
 10
64.413748
 20
12.227551
 30
0.0
 10
64.405748
 20
12.164251
 30
0.0
 10
64.393748
 20
12.037551
 30
0.0
 10
64.385748
 20
11.910651
 30
0.0
 10
64.380748
 20
11.783751
 30
0.0
 10
64.376748
 20
11.529651
 30
0.0
 10
64.374748
 20
11.275651
 30
0.0
 10
64.373848
 20
11.137651
 30
0.0
 10
64.374848
 20
10.999551
 30
0.0
 10
64.380848
 20
10.723551
 30
0.0
 10
64.387848
 20
10.447451
 30
0.0
 10
64.390848
 20
10.171351
 30
0.0
 10
64.391048
 20
9.910051
 30
0.0
 10
64.389048
 20
9.648751
 30
0.0
 10
64.384048
 20
9.387551
 30
0.0
 10
64.374048
 20
9.126251
 30
0.0
 10
64.362948
 20
8.900751
 30
0.0
 10
64.349248
 20
8.675151
 30
0.0
 10
64.340248
 20
8.562451
 30
0.0
 10
64.329848
 20
8.449751
 30
0.0
 10
64.317648
 20
8.337151
 30
0.0
 10
64.303148
 20
8.224651
 30
0.0
 10
64.291048
 20
8.148551
 30
0.0
 10
64.283048
 20
8.106751
 30
0.0
 10
64.273048
 20
8.061951
 30
0.0
 10
64.261448
 20
8.013751
 30
0.0
 10
64.247648
 20
7.961951
 30
0.0
 10
64.231348
 20
7.906051
 30
0.0
 10
64.212248
 20
7.845851
 30
0.0
 10
64.190148
 20
7.780951
 30
0.0
 10
64.164748
 20
7.711051
 30
0.0
 10
64.135748
 20
7.635751
 30
0.0
 10
64.102848
 20
7.554751
 30
0.0
 10
64.065948
 20
7.467651
 30
0.0
 10
64.024548
 20
7.374151
 30
0.0
 10
63.978548
 20
7.273951
 30
0.0
 10
63.927548
 20
7.166651
 30
0.0
 10
63.896248
 20
7.108451
 30
0.0
 10
63.856349
 20
7.045151
 30
0.0
 10
63.752649
 20
6.904551
 30
0.0
 10
63.620849
 20
6.748351
 30
0.0
 10
63.465249
 20
6.579751
 30
0.0
 10
63.290049
 20
6.402151
 30
0.0
 10
63.099749
 20
6.218651
 30
0.0
 10
62.898449
 20
6.032851
 30
0.0
 10
62.690649
 20
5.847851
 30
0.0
 10
62.480549
 20
5.666951
 30
0.0
 10
62.272449
 20
5.493551
 30
0.0
 10
62.070749
 20
5.330951
 30
0.0
 10
61.879749
 20
5.182351
 30
0.0
 10
61.703749
 20
5.051251
 30
0.0
 10
61.546949
 20
4.940751
 30
0.0
 10
61.413849
 20
4.854351
 30
0.0
 10
61.308649
 20
4.795251
 30
0.0
 10
61.098649
 20
4.699151
 30
0.0
 10
60.840249
 20
4.592351
 30
0.0
 10
60.552349
 20
4.480751
 30
0.0
 10
60.254049
 20
4.370151
 30
0.0
 10
59.701749
 20
4.175951
 30
0.0
 10
59.334749
 20
4.056851
 30
0.0
 10
59.052949
 20
3.976451
 30
0.0
 10
58.767649
 20
3.899751
 30
0.0
 10
58.479449
 20
3.826551
 30
0.0
 10
58.188649
 20
3.756451
 30
0.0
 10
57.600749
 20
3.624551
 30
0.0
 10
57.007249
 20
3.501751
 30
0.0
 10
56.357549
 20
3.377751
 30
0.0
 10
55.701349
 20
3.264651
 30
0.0
 10
55.039549
 20
3.162751
 30
0.0
 10
54.372649
 20
3.072351
 30
0.0
 10
53.684749
 20
2.992051
 30
0.0
 10
52.992549
 20
2.924051
 30
0.0
 10
52.297049
 20
2.867051
 30
0.0
 10
51.599449
 20
2.820251
 30
0.0
 10
50.904849
 20
2.783851
 30
0.0
 10
50.208449
 20
2.757951
 30
0.0
 10
49.511149
 20
2.742251
 30
0.0
 10
48.813749
 20
2.736251
 30
0.0
 10
48.148249
 20
2.739251
 30
0.0
 10
47.483049
 20
2.751951
 30
0.0
 10
46.818649
 20
2.774351
 30
0.0
 10
46.155849
 20
2.807051
 30
0.0
 10
45.577349
 20
2.843651
 30
0.0
 10
45.000549
 20
2.888451
 30
0.0
 10
44.426749
 20
2.943451
 30
0.0
 10
44.141449
 20
2.975551
 30
0.0
 10
43.857349
 20
3.010951
 30
0.0
 10
43.631049
 20
3.042751
 30
0.0
 10
43.405949
 20
3.078051
 30
0.0
 10
42.959349
 20
3.156451
 30
0.0
 10
42.076049
 20
3.322251
 30
0.0
 10
41.872649
 20
3.361551
 30
0.0
 10
41.623349
 20
3.414251
 30
0.0
 10
41.344449
 20
3.477851
 30
0.0
 10
41.052449
 20
3.549851
 30
0.0
 10
40.763649
 20
3.627851
 30
0.0
 10
40.494349
 20
3.709351
 30
0.0
 10
40.372149
 20
3.750751
 30
0.0
 10
40.260949
 20
3.792051
 30
0.0
 10
40.162849
 20
3.832951
 30
0.0
 10
40.079749
 20
3.873251
 30
0.0
 10
37.491449
 20
5.248651
 30
0.0
 10
36.103949
 20
5.999451
 30
0.0
 10
35.481649
 20
6.344551
 30
0.0
 10
34.943349
 20
6.651751
 30
0.0
 10
34.925649
 20
6.664451
 30
0.0
 10
34.906449
 20
6.679651
 30
0.0
 10
34.885949
 20
6.697051
 30
0.0
 10
34.864349
 20
6.716351
 30
0.0
 10
34.818849
 20
6.759151
 30
0.0
 10
34.772049
 20
6.804951
 30
0.0
 10
34.681849
 20
6.894451
 30
0.0
 10
34.642549
 20
6.932351
 30
0.0
 10
34.625149
 20
6.948351
 30
0.0
 10
34.609649
 20
6.961951
 30
0.0
 10
34.570049
 20
7.000751
 30
0.0
 10
34.529449
 20
7.042151
 30
0.0
 10
34.445749
 20
7.131951
 30
0.0
 10
34.358949
 20
7.228851
 30
0.0
 10
34.269249
 20
7.330651
 30
0.0
 10
34.177149
 20
7.434851
 30
0.0
 10
34.083049
 20
7.539251
 30
0.0
 10
33.987149
 20
7.641451
 30
0.0
 10
33.938649
 20
7.690951
 30
0.0
 10
33.889949
 20
7.739051
 30
0.0
 10
33.709449
 20
7.915551
 30
0.0
 10
33.620449
 20
8.004351
 30
0.0
 10
33.532649
 20
8.093451
 30
0.0
 10
33.446149
 20
8.182951
 30
0.0
 10
33.361449
 20
8.272951
 30
0.0
 10
33.278449
 20
8.363551
 30
0.0
 10
33.197649
 20
8.454551
 30
0.0
 10
33.117949
 20
8.546751
 30
0.0
 10
33.039649
 20
8.639351
 30
0.0
 10
32.962849
 20
8.732351
 30
0.0
 10
32.887949
 20
8.825751
 30
0.0
 10
32.815249
 20
8.919751
 30
0.0
 10
32.744849
 20
9.014251
 30
0.0
 10
32.677149
 20
9.109451
 30
0.0
 10
32.612449
 20
9.205251
 30
0.0
 10
32.546649
 20
9.307851
 30
0.0
 10
32.483349
 20
9.410851
 30
0.0
 10
32.422649
 20
9.514351
 30
0.0
 10
32.364849
 20
9.618451
 30
0.0
 10
32.309849
 20
9.722951
 30
0.0
 10
32.257949
 20
9.827951
 30
0.0
 10
32.209049
 20
9.933451
 30
0.0
 10
32.163449
 20
10.039451
 30
0.0
 10
32.119649
 20
10.147851
 30
0.0
 10
32.078349
 20
10.256751
 30
0.0
 10
32.039849
 20
10.366051
 30
0.0
 10
32.004649
 20
10.475651
 30
0.0
 10
31.973149
 20
10.585551
 30
0.0
 10
31.945849
 20
10.695851
 30
0.0
 10
31.933849
 20
10.751051
 30
0.0
 10
31.923049
 20
10.806351
 30
0.0
 10
31.913049
 20
10.861651
 30
0.0
 10
31.905049
 20
10.917051
 30
0.0
 10
31.898049
 20
10.970251
 30
0.0
 10
31.892049
 20
11.023551
 30
0.0
 10
31.885049
 20
11.130251
 30
0.0
 10
31.882049
 20
11.237051
 30
0.0
 10
31.882949
 20
11.343851
 30
0.0
 10
31.887949
 20
11.450651
 30
0.0
 10
31.895949
 20
11.557451
 30
0.0
 10
31.907249
 20
11.664051
 30
0.0
 10
31.921549
 20
11.770551
 30
0.0
 10
31.938749
 20
11.875151
 30
0.0
 10
31.959449
 20
11.979651
 30
0.0
 10
31.983449
 20
12.083951
 30
0.0
 10
32.010849
 20
12.188051
 30
0.0
 10
32.041249
 20
12.291851
 30
0.0
 10
32.074849
 20
12.395351
 30
0.0
 10
32.111349
 20
12.498451
 30
0.0
 10
32.150649
 20
12.601151
 30
0.0
 10
32.191549
 20
12.700651
 30
0.0
 10
32.235149
 20
12.799751
 30
0.0
 10
32.281549
 20
12.898451
 30
0.0
 10
32.330849
 20
12.996851
 30
0.0
 10
32.383249
 20
13.094551
 30
0.0
 10
32.438849
 20
13.191751
 30
0.0
 10
32.497649
 20
13.288351
 30
0.0
 10
32.559849
 20
13.384251
 30
0.0
 10
32.595449
 20
13.436951
 30
0.0
 10
32.632149
 20
13.489851
 30
0.0
 10
32.670249
 20
13.542551
 30
0.0
 10
32.710149
 20
13.594751
 30
0.0
 10
32.730949
 20
13.620551
 30
0.0
 10
32.752349
 20
13.646151
 30
0.0
 10
32.774349
 20
13.671351
 30
0.0
 10
32.797149
 20
13.696251
 30
0.0
 10
32.820649
 20
13.720751
 30
0.0
 10
32.844949
 20
13.744751
 30
0.0
 10
32.870049
 20
13.768251
 30
0.0
 10
32.896049
 20
13.791251
 30
0.0
 10
32.916049
 20
13.808051
 30
0.0
 10
32.936149
 20
13.824251
 30
0.0
 10
32.976649
 20
13.855051
 30
0.0
 10
33.017349
 20
13.884251
 30
0.0
 10
33.058149
 20
13.912451
 30
0.0
 10
33.139749
 20
13.968651
 30
0.0
 10
33.180349
 20
13.997851
 30
0.0
 10
33.220649
 20
14.028651
 30
0.0
 10
31.517349
 20
13.977551
 30
0.0
 10
27.993649
 20
14.126151
 30
0.0
 10
24.585449
 20
14.526151
 30
0.0
 10
21.320749
 20
15.183551
 30
0.0
 10
18.209750
 20
16.077551
 30
0.0
 10
15.279550
 20
17.331151
 30
0.0
 10
12.561150
 20
19.031751
 30
0.0
 10
10.071750
 20
20.854551
 30
0.0
 10
7.821450
 20
22.717250
 30
0.0
 10
5.840050
 20
24.478950
 30
0.0
 10
3.446950
 20
27.277350
 30
0.0
 10
2.728150
 20
28.381750
 30
0.0
 10
2.728150
 20
28.388750
 30
0.0
 10
1.618350
 20
30.753150
 30
0.0
 10
0.823150
 20
33.199150
 30
0.0
 10
0.345050
 20
35.712750
 30
0.0
 10
0.181450
 20
38.260350
 30
0.0
 10
0.345050
 20
40.828050
 30
0.0
 10
0.823150
 20
43.389150
 30
0.0
 10
0.823150
 20
43.395150
 30
0.0
 10
1.618350
 20
45.996850
 30
0.0
 10
2.728150
 20
48.632650
 30
0.0
 10
4.145050
 20
51.220850
 30
0.0
 10
5.840050
 20
53.761450
 30
0.0
 10
7.821450
 20
56.220950
 30
0.0
 10
10.071750
 20
58.598850
 30
0.0
 10
12.561150
 20
60.882147
 30
0.0
 10
15.279550
 20
63.050347
 30
0.0
 10
18.209750
 20
65.096346
 30
0.0
 10
21.320749
 20
67.000246
 30
0.0
 10
24.585449
 20
68.755446
 30
0.0
 10
27.907349
 20
70.347346
 30
0.0
 10
31.086549
 20
71.763646
 30
0.0
 10
34.130349
 20
72.976046
 30
0.0
 10
37.079549
 20
73.951746
 30
0.0
 10
39.970749
 20
74.791746
 30
0.0
 10
43.963349
 20
75.781047
 30
0.0
 10
48.003249
 20
76.770247
 30
0.0
 10
52.196749
 20
77.759447
 30
0.0
 10
56.696549
 20
78.735147
 30
0.0
 10
61.627149
 20
79.697347
 30
0.0
 10
64.939148
 20
80.259547
 30
0.0
 10
65.590748
 20
80.374647
 30
0.0
 10
67.064948
 20
80.625447
 30
0.0
 10
72.933452
 20
81.513046
 30
0.0
 10
79.089252
 20
82.339546
 30
0.0
 10
85.398552
 20
83.085046
 30
0.0
 10
91.756052
 20
83.735346
 30
0.0
 10
95.872352
 20
84.080746
 30
0.0
 10
97.988152
 20
84.263946
 30
0.0
 10
104.029448
 20
84.663446
 30
0.0
 10
109.754347
 20
84.914246
 30
0.0
 10
115.058447
 20
84.995346
 30
0.0
 10
125.426847
 20
84.995346
 30
0.0
  0
LWPOLYLINE
  5
101
100
AcDbEntity
  8
0
 62
7
100
AcDbPolyline
 90
515
 70
1
 10
130.617547
 20
25.085950
 30
0.0
 10
135.796347
 20
24.855650
 30
0.0
 10
140.985847
 20
24.482650
 30
0.0
 10
146.174647
 20
23.988050
 30
0.0
 10
151.354246
 20
23.385350
 30
0.0
 10
156.542946
 20
22.680450
 30
0.0
 10
161.732546
 20
21.887950
 30
0.0
 10
166.911346
 20
21.027451
 30
0.0
 10
172.100846
 20
20.099251
 30
0.0
 10
173.729546
 20
19.794451
 30
0.0
 10
173.270246
 20
19.802451
 30
0.0
 10
173.155546
 20
19.803151
 30
0.0
 10
173.041046
 20
19.802451
 30
0.0
 10
172.926546
 20
19.800451
 30
0.0
 10
172.812246
 20
19.795451
 30
0.0
 10
172.627446
 20
19.784751
 30
0.0
 10
172.442946
 20
19.771551
 30
0.0
 10
172.258846
 20
19.755851
 30
0.0
 10
172.075446
 20
19.737751
 30
0.0
 10
171.892746
 20
19.717351
 30
0.0
 10
171.710846
 20
19.694651
 30
0.0
 10
171.530146
 20
19.669751
 30
0.0
 10
171.350546
 20
19.642751
 30
0.0
 10
171.171246
 20
19.613551
 30
0.0
 10
170.992846
 20
19.582351
 30
0.0
 10
170.815546
 20
19.549051
 30
0.0
 10
170.639646
 20
19.513551
 30
0.0
 10
170.465346
 20
19.475551
 30
0.0
 10
170.292846
 20
19.435251
 30
0.0
 10
170.122446
 20
19.392251
 30
0.0
 10
169.954346
 20
19.346651
 30
0.0
 10
169.795846
 20
19.300251
 30
0.0
 10
169.639646
 20
19.251351
 30
0.0
 10
169.485846
 20
19.199951
 30
0.0
 10
169.334246
 20
19.146351
 30
0.0
 10
169.184946
 20
19.090751
 30
0.0
 10
169.037846
 20
19.033351
 30
0.0
 10
168.892846
 20
18.974251
 30
0.0
 10
168.749946
 20
18.913751
 30
0.0
 10
168.618946
 20
18.856151
 30
0.0
 10
168.489846
 20
18.797051
 30
0.0
 10
168.362846
 20
18.736451
 30
0.0
 10
168.238146
 20
18.674351
 30
0.0
 10
168.115946
 20
18.610651
 30
0.0
 10
167.996446
 20
18.545451
 30
0.0
 10
167.879846
 20
18.478651
 30
0.0
 10
167.766346
 20
18.410351
 30
0.0
 10
167.655846
 20
18.340151
 30
0.0
 10
167.548746
 20
18.268351
 30
0.0
 10
167.444746
 20
18.194951
 30
0.0
 10
167.343646
 20
18.120351
 30
0.0
 10
167.245346
 20
18.044451
 30
0.0
 10
167.149646
 20
17.967551
 30
0.0
 10
167.056346
 20
17.889751
 30
0.0
 10
166.965246
 20
17.811151
 30
0.0
 10
166.868346
 20
17.723851
 30
0.0
 10
166.774846
 20
17.635451
 30
0.0
 10
166.684446
 20
17.545851
 30
0.0
 10
166.596946
 20
17.455451
 30
0.0
 10
166.512046
 20
17.364151
 30
0.0
 10
166.429346
 20
17.272151
 30
0.0
 10
166.348646
 20
17.179751
 30
0.0
 10
166.269646
 20
17.086851
 30
0.0
 10
166.182546
 20
16.980451
 30
0.0
 10
166.098846
 20
16.873251
 30
0.0
 10
166.018046
 20
16.765251
 30
0.0
 10
165.939646
 20
16.656751
 30
0.0
 10
165.787546
 20
16.438551
 30
0.0
 10
165.638046
 20
16.219851
 30
0.0
 10
165.554546
 20
16.095651
 30
0.0
 10
165.473346
 20
15.971051
 30
0.0
 10
165.315146
 20
15.721051
 30
0.0
 10
165.158146
 20
15.470651
 30
0.0
 10
165.078546
 20
15.345751
 30
0.0
 10
164.997246
 20
15.221151
 30
0.0
 10
164.660546
 20
14.710451
 30
0.0
 10
164.574546
 20
14.583151
 30
0.0
 10
164.486646
 20
14.456351
 30
0.0
 10
164.396446
 20
14.329951
 30
0.0
 10
164.303246
 20
14.204351
 30
0.0
 10
164.126346
 20
13.973651
 30
0.0
 10
164.035746
 20
13.858851
 30
0.0
 10
163.943146
 20
13.744451
 30
0.0
 10
163.848146
 20
13.630751
 30
0.0
 10
163.750346
 20
13.517851
 30
0.0
 10
163.649246
 20
13.405851
 30
0.0
 10
163.544546
 20
13.295051
 30
0.0
 10
163.448746
 20
13.196751
 30
0.0
 10
163.351146
 20
13.098851
 30
0.0
 10
163.251346
 20
13.001751
 30
0.0
 10
163.148846
 20
12.905451
 30
0.0
 10
163.043046
 20
12.810451
 30
0.0
 10
162.933546
 20
12.716851
 30
0.0
 10
162.819746
 20
12.624851
 30
0.0
 10
162.701246
 20
12.534951
 30
0.0
 10
162.591946
 20
12.455351
 30
0.0
 10
162.480546
 20
12.376351
 30
0.0
 10
162.366246
 20
12.298451
 30
0.0
 10
162.248546
 20
12.222351
 30
0.0
 10
162.126646
 20
12.148551
 30
0.0
 10
161.999946
 20
12.077751
 30
0.0
 10
161.934546
 20
12.043651
 30
0.0
 10
161.867646
 20
12.010551
 30
0.0
 10
161.799246
 20
11.978451
 30
0.0
 10
161.729246
 20
11.947451
 30
0.0
 10
161.567246
 20
11.881451
 30
0.0
 10
161.399746
 20
11.819751
 30
0.0
 10
161.227346
 20
11.762051
 30
0.0
 10
161.050546
 20
11.708351
 30
0.0
 10
160.870046
 20
11.658651
 30
0.0
 10
160.686346
 20
11.612751
 30
0.0
 10
160.500246
 20
11.570651
 30
0.0
 10
160.312346
 20
11.532151
 30
0.0
 10
160.065946
 20
11.488551
 30
0.0
 10
159.816046
 20
11.451951
 30
0.0
 10
159.563346
 20
11.421251
 30
0.0
 10
159.308346
 20
11.395351
 30
0.0
 10
158.794646
 20
11.353651
 30
0.0
 10
158.280346
 20
11.317751
 30
0.0
 10
157.734146
 20
11.285251
 30
0.0
 10
157.186246
 20
11.262851
 30
0.0
 10
156.637246
 20
11.248851
 30
0.0
 10
156.088146
 20
11.241851
 30
0.0
 10
155.566146
 20
11.241151
 30
0.0
 10
155.044046
 20
11.248151
 30
0.0
 10
154.522346
 20
11.261051
 30
0.0
 10
154.001346
 20
11.279451
 30
0.0
 10
153.491246
 20
11.302251
 30
0.0
 10
152.982046
 20
11.330551
 30
0.0
 10
152.474046
 20
11.364751
 30
0.0
 10
151.967646
 20
11.405651
 30
0.0
 10
151.462846
 20
11.451451
 30
0.0
 10
150.959346
 20
11.502451
 30
0.0
 10
150.708646
 20
11.531051
 30
0.0
 10
150.459246
 20
11.562251
 30
0.0
 10
150.211146
 20
11.596451
 30
0.0
 10
149.964646
 20
11.634251
 30
0.0
 10
149.512846
 20
11.709251
 30
0.0
 10
149.288046
 20
11.749351
 30
0.0
 10
149.064946
 20
11.792251
 30
0.0
 10
148.844347
 20
11.838551
 30
0.0
 10
148.627147
 20
11.889051
 30
0.0
 10
148.414047
 20
11.944451
 30
0.0
 10
148.205747
 20
12.005451
 30
0.0
 10
148.030647
 20
12.062351
 30
0.0
 10
147.858847
 20
12.122951
 30
0.0
 10
147.690747
 20
12.187151
 30
0.0
 10
147.526747
 20
12.254651
 30
0.0
 10
147.367347
 20
12.325651
 30
0.0
 10
147.212947
 20
12.399851
 30
0.0
 10
147.064047
 20
12.477151
 30
0.0
 10
146.920847
 20
12.557651
 30
0.0
 10
146.857647
 20
12.595451
 30
0.0
 10
146.795947
 20
12.634051
 30
0.0
 10
146.735747
 20
12.673451
 30
0.0
 10
146.677047
 20
12.713551
 30
0.0
 10
146.619647
 20
12.754351
 30
0.0
 10
146.563647
 20
12.795851
 30
0.0
 10
146.508947
 20
12.837951
 30
0.0
 10
146.455547
 20
12.880551
 30
0.0
 10
146.403347
 20
12.923651
 30
0.0
 10
146.352447
 20
12.967251
 30
0.0
 10
146.302747
 20
13.011351
 30
0.0
 10
146.254147
 20
13.055751
 30
0.0
 10
146.160447
 20
13.145751
 30
0.0
 10
146.070847
 20
13.236651
 30
0.0
 10
146.030247
 20
13.280251
 30
0.0
 10
145.991147
 20
13.324251
 30
0.0
 10
145.953647
 20
13.368751
 30
0.0
 10
145.917447
 20
13.413551
 30
0.0
 10
145.882647
 20
13.458751
 30
0.0
 10
145.849047
 20
13.504251
 30
0.0
 10
145.785147
 20
13.596151
 30
0.0
 10
145.724947
 20
13.688851
 30
0.0
 10
145.667647
 20
13.782251
 30
0.0
 10
145.612447
 20
13.875951
 30
0.0
 10
145.558647
 20
13.969751
 30
0.0
 10
145.534147
 20
14.014151
 30
0.0
 10
145.510647
 20
14.058751
 30
0.0
 10
145.466847
 20
14.148351
 30
0.0
 10
145.426147
 20
14.238351
 30
0.0
 10
145.387747
 20
14.328851
 30
0.0
 10
145.313847
 20
14.510151
 30
0.0
 10
145.276447
 20
14.600751
 30
0.0
 10
145.237447
 20
14.691151
 30
0.0
 10
145.089147
 20
15.028251
 30
0.0
 10
145.014347
 20
15.196651
 30
0.0
 10
144.937747
 20
15.364951
 30
0.0
 10
144.851847
 20
15.548751
 30
0.0
 10
144.764547
 20
15.732651
 30
0.0
 10
144.675547
 20
15.916151
 30
0.0
 10
144.584147
 20
16.099251
 30
0.0
 10
144.470347
 20
16.320451
 30
0.0
 10
144.353747
 20
16.541151
 30
0.0
 10
144.234647
 20
16.761551
 30
0.0
 10
144.113547
 20
16.981551
 30
0.0
 10
143.982147
 20
17.217951
 30
0.0
 10
143.849247
 20
17.454051
 30
0.0
 10
143.712547
 20
17.689451
 30
0.0
 10
143.642047
 20
17.806751
 30
0.0
 10
143.569847
 20
17.923751
 30
0.0
 10
143.501847
 20
18.031151
 30
0.0
 10
143.432647
 20
18.138151
 30
0.0
 10
143.290647
 20
18.351551
 30
0.0
 10
143.144247
 20
18.563951
 30
0.0
 10
142.993747
 20
18.775551
 30
0.0
 10
142.924347
 20
18.869951
 30
0.0
 10
142.853147
 20
18.964051
 30
0.0
 10
142.707247
 20
19.151451
 30
0.0
 10
142.560847
 20
19.338651
 30
0.0
 10
142.488947
 20
19.432551
 30
0.0
 10
142.418547
 20
19.526851
 30
0.0
 10
142.298647
 20
19.693051
 30
0.0
 10
142.181447
 20
19.859951
 30
0.0
 10
141.948747
 20
20.194151
 30
0.0
 10
141.664847
 20
20.598251
 30
0.0
 10
136.651247
 20
23.207650
 30
0.0
 10
136.007747
 20
23.347050
 30
0.0
 10
135.684047
 20
23.413450
 30
0.0
 10
135.357147
 20
23.474850
 30
0.0
 10
134.837647
 20
23.563350
 30
0.0
 10
134.314347
 20
23.645150
 30
0.0
 10
133.787647
 20
23.719650
 30
0.0
 10
133.257947
 20
23.786250
 30
0.0
 10
132.679147
 20
23.849150
 30
0.0
 10
132.097347
 20
23.903050
 30
0.0
 10
131.513347
 20
23.949350
 30
0.0
 10
130.927947
 20
23.989450
 30
0.0
 10
130.275347
 20
24.026350
 30
0.0
 10
129.621147
 20
24.054850
 30
0.0
 10
128.966047
 20
24.077450
 30
0.0
 10
128.310747
 20
24.096350
 30
0.0
 10
122.676247
 20
24.172750
 30
0.0
 10
122.657747
 20
24.173250
 30
0.0
 10
122.639147
 20
24.174050
 30
0.0
 10
122.601947
 20
24.176050
 30
0.0
 10
122.564847
 20
24.178050
 30
0.0
 10
122.546247
 20
24.178550
 30
0.0
 10
122.527647
 20
24.178650
 30
0.0
 10
121.825647
 20
24.177650
 30
0.0
 10
121.123747
 20
24.164950
 30
0.0
 10
120.422447
 20
24.142550
 30
0.0
 10
119.722047
 20
24.112450
 30
0.0
 10
119.033647
 20
24.076650
 30
0.0
 10
118.346447
 20
24.033450
 30
0.0
 10
117.661647
 20
23.980450
 30
0.0
 10
116.980347
 20
23.915050
 30
0.0
 10
116.374847
 20
23.847450
 30
0.0
 10
115.772247
 20
23.770950
 30
0.0
 10
115.473047
 20
23.728150
 30
0.0
 10
115.175847
 20
23.681550
 30
0.0
 10
114.881047
 20
23.630650
 30
0.0
 10
114.588947
 20
23.574950
 30
0.0
 10
114.125147
 20
23.477950
 30
0.0
 10
113.895047
 20
23.425850
 30
0.0
 10
113.667547
 20
23.370450
 30
0.0
 10
113.443347
 20
23.311150
 30
0.0
 10
113.223447
 20
23.247550
 30
0.0
 10
113.008747
 20
23.179050
 30
0.0
 10
112.800147
 20
23.104950
 30
0.0
 10
112.633847
 20
23.040350
 30
0.0
 10
112.471247
 20
22.972250
 30
0.0
 10
112.312847
 20
22.900750
 30
0.0
 10
112.159347
 20
22.825850
 30
0.0
 10
112.011447
 20
22.747650
 30
0.0
 10
111.939747
 20
22.707250
 30
0.0
 10
111.869747
 20
22.666050
 30
0.0
 10
111.801347
 20
22.623950
 30
0.0
 10
111.734747
 20
22.581150
 30
0.0
 10
111.670047
 20
22.537450
 30
0.0
 10
111.607347
 20
22.492950
 30
0.0
 10
111.549647
 20
22.449650
 30
0.0
 10
111.494047
 20
22.405450
 30
0.0
 10
111.440647
 20
22.360550
 30
0.0
 10
111.389047
 20
22.314750
 30
0.0
 10
111.339447
 20
22.268250
 30
0.0
 10
111.291547
 20
22.221150
 30
0.0
 10
111.245347
 20
22.173450
 30
0.0
 10
111.200747
 20
22.125150
 30
0.0
 10
111.157647
 20
22.076450
 30
0.0
 10
111.115947
 20
22.027250
 30
0.0
 10
111.075547
 20
21.977750
 30
0.0
 10
111.036447
 20
21.927950
 30
0.0
 10
110.961347
 20
21.827650
 30
0.0
 10
110.890147
 20
21.726850
 30
0.0
 10
110.854747
 20
21.673750
 30
0.0
 10
110.821447
 20
21.620250
 30
0.0
 10
110.790047
 20
21.566350
 30
0.0
 10
110.760447
 20
21.512050
 30
0.0
 10
110.732447
 20
21.457550
 30
0.0
 10
110.705847
 20
21.402750
 30
0.0
 10
110.656247
 20
21.292551
 30
0.0
 10
110.610447
 20
21.181651
 30
0.0
 10
110.566947
 20
21.070451
 30
0.0
 10
110.481747
 20
20.848151
 30
0.0
 10
110.436047
 20
20.725651
 30
0.0
 10
110.393747
 20
20.602751
 30
0.0
 10
110.354147
 20
20.479651
 30
0.0
 10
110.316447
 20
20.356251
 30
0.0
 10
110.243547
 20
20.109251
 30
0.0
 10
110.168847
 20
19.862451
 30
0.0
 10
110.082347
 20
19.578251
 30
0.0
 10
109.998247
 20
19.293951
 30
0.0
 10
109.955147
 20
19.151851
 30
0.0
 10
109.910547
 20
19.009851
 30
0.0
 10
109.863547
 20
18.868251
 30
0.0
 10
109.813547
 20
18.726951
 30
0.0
 10
109.753047
 20
18.564651
 30
0.0
 10
109.690747
 20
18.402551
 30
0.0
 10
109.626447
 20
18.240751
 30
0.0
 10
109.560047
 20
18.079151
 30
0.0
 10
109.491347
 20
17.917951
 30
0.0
 10
109.420147
 20
17.757051
 30
0.0
 10
109.346347
 20
17.596551
 30
0.0
 10
109.269847
 20
17.436351
 30
0.0
 10
109.101447
 20
17.096951
 30
0.0
 10
109.014247
 20
16.927651
 30
0.0
 10
108.924347
 20
16.758851
 30
0.0
 10
108.830947
 20
16.590651
 30
0.0
 10
108.733547
 20
16.423151
 30
0.0
 10
108.631647
 20
16.256651
 30
0.0
 10
108.524447
 20
16.091151
 30
0.0
 10
108.415247
 20
15.929951
 30
0.0
 10
108.302647
 20
15.769351
 30
0.0
 10
108.186147
 20
15.609551
 30
0.0
 10
108.065547
 20
15.450751
 30
0.0
 10
107.940447
 20
15.293051
 30
0.0
 10
107.810447
 20
15.136751
 30
0.0
 10
107.675147
 20
14.981951
 30
0.0
 10
107.534247
 20
14.828751
 30
0.0
 10
107.399047
 20
14.687851
 30
0.0
 10
107.260147
 20
14.547751
 30
0.0
 10
107.117247
 20
14.409051
 30
0.0
 10
106.969547
 20
14.271851
 30
0.0
 10
106.816747
 20
14.136651
 30
0.0
 10
106.658047
 20
14.003651
 30
0.0
 10
106.493147
 20
13.873151
 30
0.0
 10
106.321448
 20
13.745551
 30
0.0
 10
106.162648
 20
13.634451
 30
0.0
 10
105.998648
 20
13.525651
 30
0.0
 10
105.829548
 20
13.419051
 30
0.0
 10
105.655648
 20
13.314951
 30
0.0
 10
105.477248
 20
13.213351
 30
0.0
 10
105.294448
 20
13.114151
 30
0.0
 10
105.107648
 20
13.017651
 30
0.0
 10
104.917048
 20
12.923751
 30
0.0
 10
104.748448
 20
12.844851
 30
0.0
 10
104.576148
 20
12.768451
 30
0.0
 10
104.400448
 20
12.694451
 30
0.0
 10
104.221548
 20
12.622751
 30
0.0
 10
104.039748
 20
12.553451
 30
0.0
 10
103.855248
 20
12.486451
 30
0.0
 10
103.668348
 20
12.421751
 30
0.0
 10
103.479348
 20
12.359251
 30
0.0
 10
103.317848
 20
12.308351
 30
0.0
 10
103.154348
 20
12.259251
 30
0.0
 10
102.989048
 20
12.212151
 30
0.0
 10
102.821848
 20
12.167151
 30
0.0
 10
102.652848
 20
12.124351
 30
0.0
 10
102.482248
 20
12.083751
 30
0.0
 10
102.310048
 20
12.045551
 30
0.0
 10
102.136348
 20
12.009751
 30
0.0
 10
101.987748
 20
11.981251
 30
0.0
 10
101.838048
 20
11.954451
 30
0.0
 10
101.687248
 20
11.929651
 30
0.0
 10
101.535348
 20
11.906851
 30
0.0
 10
101.382648
 20
11.886351
 30
0.0
 10
101.228948
 20
11.868251
 30
0.0
 10
101.074548
 20
11.852751
 30
0.0
 10
100.919448
 20
11.839951
 30
0.0
 10
100.779848
 20
11.830951
 30
0.0
 10
100.639848
 20
11.824951
 30
0.0
 10
100.499348
 20
11.820951
 30
0.0
 10
100.358648
 20
11.818951
 30
0.0
 10
100.217748
 20
11.819351
 30
0.0
 10
100.077048
 20
11.821351
 30
0.0
 10
99.796352
 20
11.830351
 30
0.0
 10
99.655952
 20
11.837351
 30
0.0
 10
99.515952
 20
11.846351
 30
0.0
 10
99.376352
 20
11.857551
 30
0.0
 10
99.237052
 20
11.870451
 30
0.0
 10
98.959852
 20
11.900451
 30
0.0
 10
98.684052
 20
11.934351
 30
0.0
 10
98.400152
 20
11.973651
 30
0.0
 10
98.118252
 20
12.017951
 30
0.0
 10
97.838352
 20
12.066151
 30
0.0
 10
97.560152
 20
12.117051
 30
0.0
 10
97.299452
 20
12.166151
 30
0.0
 10
97.040152
 20
12.217551
 30
0.0
 10
96.911452
 20
12.244751
 30
0.0
 10
96.783852
 20
12.273351
 30
0.0
 10
96.657452
 20
12.303451
 30
0.0
 10
96.532552
 20
12.335551
 30
0.0
 10
96.423552
 20
12.365251
 30
0.0
 10
96.315352
 20
12.396051
 30
0.0
 10
96.208152
 20
12.427951
 30
0.0
 10
96.102252
 20
12.461251
 30
0.0
 10
95.997652
 20
12.495751
 30
0.0
 10
95.894652
 20
12.531751
 30
0.0
 10
95.793452
 20
12.569151
 30
0.0
 10
95.694152
 20
12.608151
 30
0.0
 10
95.604752
 20
12.645751
 30
0.0
 10
95.517452
 20
12.684951
 30
0.0
 10
95.432052
 20
12.725451
 30
0.0
 10
95.348252
 20
12.767151
 30
0.0
 10
95.265952
 20
12.809751
 30
0.0
 10
95.184752
 20
12.853151
 30
0.0
 10
95.025152
 20
12.941251
 30
0.0
 10
94.945852
 20
12.986851
 30
0.0
 10
94.868552
 20
13.033451
 30
0.0
 10
94.792852
 20
13.080851
 30
0.0
 10
94.718152
 20
13.128851
 30
0.0
 10
94.569952
 20
13.225451
 30
0.0
 10
94.495452
 20
13.273551
 30
0.0
 10
94.420052
 20
13.321251
 30
0.0
 10
93.708652
 20
13.761251
 30
0.0
 10
93.227952
 20
14.055251
 30
0.0
 10
93.108652
 20
14.129251
 30
0.0
 10
92.991052
 20
14.203951
 30
0.0
 10
92.875652
 20
14.279751
 30
0.0
 10
92.763152
 20
14.356851
 30
0.0
 10
92.731252
 20
14.380451
 30
0.0
 10
92.700252
 20
14.405251
 30
0.0
 10
92.641152
 20
14.458451
 30
0.0
 10
92.585752
 20
14.515851
 30
0.0
 10
92.533952
 20
14.576851
 30
0.0
 10
92.485452
 20
14.640651
 30
0.0
 10
92.440252
 20
14.706651
 30
0.0
 10
92.398052
 20
14.774251
 30
0.0
 10
92.358652
 20
14.842651
 30
0.0
 10
92.321952
 20
14.911251
 30
0.0
 10
92.287752
 20
14.979451
 30
0.0
 10
92.226252
 20
15.111551
 30
0.0
 10
92.125752
 20
15.340851
 30
0.0
 10
92.017052
 20
15.584251
 30
0.0
 10
91.917952
 20
15.814951
 30
0.0
 10
91.870752
 20
15.929051
 30
0.0
 10
91.824552
 20
16.044251
 30
0.0
 10
91.778852
 20
16.162051
 30
0.0
 10
91.733052
 20
16.283651
 30
0.0
 10
91.685552
 20
16.417951
 30
0.0
 10
91.644352
 20
16.544751
 30
0.0
 10
91.608052
 20
16.665851
 30
0.0
 10
91.574852
 20
16.782751
 30
0.0
 10
91.511752
 20
17.010651
 30
0.0
 10
91.478752
 20
17.124951
 30
0.0
 10
91.442552
 20
17.241751
 30
0.0
 10
91.422452
 20
17.335051
 30
0.0
 10
91.404252
 20
17.429651
 30
0.0
 10
91.387252
 20
17.527551
 30
0.0
 10
91.370952
 20
17.630451
 30
0.0
 10
91.297352
 20
18.127551
 30
0.0
 10
91.257452
 20
18.247651
 30
0.0
 10
91.213052
 20
18.362751
 30
0.0
 10
91.164352
 20
18.473151
 30
0.0
 10
91.111452
 20
18.578951
 30
0.0
 10
91.054752
 20
18.680451
 30
0.0
 10
90.994252
 20
18.777851
 30
0.0
 10
90.930252
 20
18.871451
 30
0.0
 10
90.862952
 20
18.961451
 30
0.0
 10
90.792452
 20
19.047951
 30
0.0
 10
90.719052
 20
19.131251
 30
0.0
 10
90.642952
 20
19.211651
 30
0.0
 10
90.564252
 20
19.289251
 30
0.0
 10
90.483252
 20
19.364351
 30
0.0
 10
90.400152
 20
19.437151
 30
0.0
 10
90.315052
 20
19.507851
 30
0.0
 10
90.228152
 20
19.576751
 30
0.0
 10
89.969652
 20
19.749651
 30
0.0
 10
89.564952
 20
19.983651
 30
0.0
 10
89.044252
 20
20.260251
 30
0.0
 10
88.438152
 20
20.560351
 30
0.0
 10
87.776752
 20
20.865451
 30
0.0
 10
87.090552
 20
21.156651
 30
0.0
 10
86.747652
 20
21.291151
 30
0.0
 10
86.409852
 20
21.415050
 30
0.0
 10
86.081052
 20
21.526250
 30
0.0
 10
85.764952
 20
21.622150
 30
0.0
 10
85.659552
 20
21.650550
 30
0.0
 10
85.550852
 20
21.677050
 30
0.0
 10
85.325752
 20
21.724450
 30
0.0
 10
85.094552
 20
21.764450
 30
0.0
 10
84.861852
 20
21.797150
 30
0.0
 10
84.632452
 20
21.822750
 30
0.0
 10
84.411152
 20
21.841350
 30
0.0
 10
84.202652
 20
21.853150
 30
0.0
 10
84.011852
 20
21.858150
 30
0.0
 10
83.598552
 20
21.858750
 30
0.0
 10
83.185252
 20
21.852750
 30
0.0
 10
82.772252
 20
21.841150
 30
0.0
 10
82.359952
 20
21.824350
 30
0.0
 10
81.916452
 20
21.799250
 30
0.0
 10
81.473952
 20
21.767450
 30
0.0
 10
80.591152
 20
21.694450
 30
0.0
 10
78.823052
 20
21.529450
 30
0.0
 10
78.433052
 20
21.493150
 30
0.0
 10
78.095352
 20
21.458050
 30
0.0
 10
77.789752
 20
21.422350
 30
0.0
 10
77.495952
 20
21.384550
 30
0.0
 10
77.274552
 20
21.367950
 30
0.0
 10
77.079352
 20
21.351250
 30
0.0
 10
76.732752
 20
21.318550
 30
0.0
 10
76.385652
 20
21.288451
 30
0.0
 10
76.189952
 20
21.274951
 30
0.0
 10
75.967652
 20
21.262751
 30
0.0
 10
75.070352
 20
21.275651
 30
0.0
 10
78.755852
 20
21.887750
 30
0.0
 10
83.944552
 20
22.680150
 30
0.0
 10
89.124152
 20
23.385050
 30
0.0
 10
94.312952
 20
23.987750
 30
0.0
 10
99.502552
 20
24.482350
 30
0.0
 10
104.681248
 20
24.855350
 30
0.0
 10
109.870847
 20
25.085650
 30
0.0
 10
115.059547
 20
25.166750
 30
0.0
 10
125.427947
 20
25.166750
 30
0.0
  0
LWPOLYLINE
  5
102
100
AcDbEntity
  8
0
 62
7
100
AcDbPolyline
 90
308
 70
1
 10
59.673049
 20
18.265851
 30
0.0
 10
59.647649
 20
18.076751
 30
0.0
 10
59.631749
 20
17.887351
 30
0.0
 10
59.624749
 20
17.697551
 30
0.0
 10
59.624649
 20
17.507551
 30
0.0
 10
59.630649
 20
17.317351
 30
0.0
 10
59.656649
 20
16.936451
 30
0.0
 10
59.732649
 20
16.173551
 30
0.0
 10
59.764449
 20
15.792351
 30
0.0
 10
59.774849
 20
15.601851
 30
0.0
 10
59.779849
 20
15.411651
 30
0.0
 10
59.779949
 20
15.399751
 30
0.0
 10
59.779949
 20
15.387851
 30
0.0
 10
59.779849
 20
15.364051
 30
0.0
 10
59.777849
 20
15.149051
 30
0.0
 10
59.773849
 20
14.934051
 30
0.0
 10
59.762649
 20
14.504051
 30
0.0
 10
59.746049
 20
14.062251
 30
0.0
 10
59.735949
 20
13.841451
 30
0.0
 10
59.724449
 20
13.620551
 30
0.0
 10
59.710949
 20
13.404051
 30
0.0
 10
59.695949
 20
13.187651
 30
0.0
 10
59.664649
 20
12.754751
 30
0.0
 10
59.637149
 20
12.339351
 30
0.0
 10
59.622549
 20
12.131651
 30
0.0
 10
59.605749
 20
11.924151
 30
0.0
 10
59.588449
 20
11.729951
 30
0.0
 10
59.569949
 20
11.535951
 30
0.0
 10
59.549249
 20
11.342051
 30
0.0
 10
59.525249
 20
11.148151
 30
0.0
 10
59.501149
 20
10.974651
 30
0.0
 10
59.474549
 20
10.801251
 30
0.0
 10
59.444849
 20
10.627951
 30
0.0
 10
59.428649
 20
10.541451
 30
0.0
 10
59.411549
 20
10.454951
 30
0.0
 10
59.381549
 20
10.306651
 30
0.0
 10
59.366149
 20
10.232551
 30
0.0
 10
59.349749
 20
10.158551
 30
0.0
 10
59.332049
 20
10.084651
 30
0.0
 10
59.312549
 20
10.010851
 30
0.0
 10
59.290749
 20
9.937351
 30
0.0
 10
59.266249
 20
9.864051
 30
0.0
 10
59.240049
 20
9.792851
 30
0.0
 10
59.211849
 20
9.721951
 30
0.0
 10
59.181749
 20
9.651251
 30
0.0
 10
59.149749
 20
9.580751
 30
0.0
 10
59.115949
 20
9.510551
 30
0.0
 10
59.080349
 20
9.440651
 30
0.0
 10
59.043049
 20
9.371051
 30
0.0
 10
59.003949
 20
9.301851
 30
0.0
 10
58.959449
 20
9.226451
 30
0.0
 10
58.913049
 20
9.151351
 30
0.0
 10
58.864749
 20
9.076651
 30
0.0
 10
58.814549
 20
9.002351
 30
0.0
 10
58.762349
 20
8.928451
 30
0.0
 10
58.708249
 20
8.855051
 30
0.0
 10
58.652049
 20
8.782151
 30
0.0
 10
58.593949
 20
8.709751
 30
0.0
 10
58.534949
 20
8.638851
 30
0.0
 10
58.474549
 20
8.568451
 30
0.0
 10
58.412349
 20
8.498351
 30
0.0
 10
58.348149
 20
8.428951
 30
0.0
 10
58.281749
 20
8.360151
 30
0.0
 10
58.212949
 20
8.292251
 30
0.0
 10
58.141349
 20
8.225251
 30
0.0
 10
58.066849
 20
8.159351
 30
0.0
 10
57.998949
 20
8.102351
 30
0.0
 10
57.928749
 20
8.046151
 30
0.0
 10
57.856349
 20
7.990851
 30
0.0
 10
57.781949
 20
7.936351
 30
0.0
 10
57.705449
 20
7.882751
 30
0.0
 10
57.627149
 20
7.830051
 30
0.0
 10
57.546949
 20
7.778351
 30
0.0
 10
57.465049
 20
7.727551
 30
0.0
 10
57.383549
 20
7.679251
 30
0.0
 10
57.300049
 20
7.632151
 30
0.0
 10
57.214749
 20
7.586051
 30
0.0
 10
57.127849
 20
7.540851
 30
0.0
 10
57.039449
 20
7.496551
 30
0.0
 10
56.949849
 20
7.453051
 30
0.0
 10
56.767749
 20
7.368051
 30
0.0
 10
56.566249
 20
7.278351
 30
0.0
 10
56.463749
 20
7.234551
 30
0.0
 10
56.360149
 20
7.191751
 30
0.0
 10
56.255249
 20
7.149951
 30
0.0
 10
56.149149
 20
7.109251
 30
0.0
 10
56.041649
 20
7.069651
 30
0.0
 10
55.932749
 20
7.031451
 30
0.0
 10
55.816649
 20
6.992451
 30
0.0
 10
55.699249
 20
6.954651
 30
0.0
 10
55.580649
 20
6.918051
 30
0.0
 10
55.460849
 20
6.882651
 30
0.0
 10
55.339949
 20
6.848551
 30
0.0
 10
55.217849
 20
6.815751
 30
0.0
 10
55.094749
 20
6.784251
 30
0.0
 10
54.970649
 20
6.754151
 30
0.0
 10
54.844049
 20
6.725351
 30
0.0
 10
54.716349
 20
6.698151
 30
0.0
 10
54.587649
 20
6.672451
 30
0.0
 10
54.458049
 20
6.648051
 30
0.0
 10
54.196849
 20
6.602651
 30
0.0
 10
53.933949
 20
6.560951
 30
0.0
 10
53.658549
 20
6.521451
 30
0.0
 10
53.381149
 20
6.486351
 30
0.0
 10
53.102249
 20
6.455151
 30
0.0
 10
52.822449
 20
6.426951
 30
0.0
 10
52.521749
 20
6.401451
 30
0.0
 10
52.219849
 20
6.380351
 30
0.0
 10
51.615549
 20
6.340051
 30
0.0
 10
51.016649
 20
6.296051
 30
0.0
 10
50.717349
 20
6.273151
 30
0.0
 10
50.418549
 20
6.248451
 30
0.0
 10
49.846249
 20
6.196151
 30
0.0
 10
49.560649
 20
6.167851
 30
0.0
 10
49.275549
 20
6.137951
 30
0.0
 10
49.021149
 20
6.108951
 30
0.0
 10
48.767349
 20
6.077851
 30
0.0
 10
48.259549
 20
6.016351
 30
0.0
 10
47.778349
 20
5.962451
 30
0.0
 10
47.537249
 20
5.936751
 30
0.0
 10
47.295849
 20
5.912451
 30
0.0
 10
46.868249
 20
5.872451
 30
0.0
 10
46.654049
 20
5.854451
 30
0.0
 10
46.439249
 20
5.838351
 30
0.0
 10
46.262249
 20
5.826551
 30
0.0
 10
46.084949
 20
5.815851
 30
0.0
 10
45.907349
 20
5.806851
 30
0.0
 10
45.729549
 20
5.800851
 30
0.0
 10
45.583949
 20
5.797851
 30
0.0
 10
45.438149
 20
5.795851
 30
0.0
 10
45.292349
 20
5.796351
 30
0.0
 10
45.146849
 20
5.799351
 30
0.0
 10
45.024049
 20
5.804351
 30
0.0
 10
44.901449
 20
5.811351
 30
0.0
 10
44.840449
 20
5.815351
 30
0.0
 10
44.779749
 20
5.820351
 30
0.0
 10
44.719449
 20
5.826351
 30
0.0
 10
44.659549
 20
5.834351
 30
0.0
 10
44.604649
 20
5.842351
 30
0.0
 10
44.549949
 20
5.850351
 30
0.0
 10
44.495449
 20
5.859351
 30
0.0
 10
44.441649
 20
5.869451
 30
0.0
 10
44.388449
 20
5.880651
 30
0.0
 10
44.336249
 20
5.893051
 30
0.0
 10
44.285149
 20
5.906751
 30
0.0
 10
44.235449
 20
5.921851
 30
0.0
 10
44.183949
 20
5.939451
 30
0.0
 10
44.133949
 20
5.958451
 30
0.0
 10
44.085249
 20
5.978651
 30
0.0
 10
44.037949
 20
6.000051
 30
0.0
 10
43.992149
 20
6.022451
 30
0.0
 10
43.947849
 20
6.045751
 30
0.0
 10
43.904949
 20
6.069851
 30
0.0
 10
43.863549
 20
6.094551
 30
0.0
 10
43.838449
 20
6.110351
 30
0.0
 10
43.813949
 20
6.126451
 30
0.0
 10
43.790049
 20
6.142751
 30
0.0
 10
43.766649
 20
6.159451
 30
0.0
 10
43.743849
 20
6.176351
 30
0.0
 10
43.721549
 20
6.193551
 30
0.0
 10
43.699849
 20
6.210951
 30
0.0
 10
43.678549
 20
6.228551
 30
0.0
 10
43.657749
 20
6.246251
 30
0.0
 10
43.637449
 20
6.264251
 30
0.0
 10
43.598049
 20
6.300651
 30
0.0
 10
43.560249
 20
6.337451
 30
0.0
 10
43.524049
 20
6.374751
 30
0.0
 10
43.502449
 20
6.397851
 30
0.0
 10
43.481449
 20
6.421151
 30
0.0
 10
43.461049
 20
6.444551
 30
0.0
 10
43.441249
 20
6.468251
 30
0.0
 10
43.422049
 20
6.492051
 30
0.0
 10
43.403349
 20
6.515951
 30
0.0
 10
43.367749
 20
6.564251
 30
0.0
 10
43.334249
 20
6.613051
 30
0.0
 10
43.302849
 20
6.662351
 30
0.0
 10
43.273449
 20
6.711951
 30
0.0
 10
43.245949
 20
6.761851
 30
0.0
 10
43.217649
 20
6.817451
 30
0.0
 10
43.191549
 20
6.873451
 30
0.0
 10
43.167649
 20
6.929751
 30
0.0
 10
43.146149
 20
6.986451
 30
0.0
 10
43.136149
 20
7.014851
 30
0.0
 10
43.127149
 20
7.043351
 30
0.0
 10
43.119149
 20
7.071851
 30
0.0
 10
43.111149
 20
7.100451
 30
0.0
 10
43.104149
 20
7.129151
 30
0.0
 10
43.097149
 20
7.157851
 30
0.0
 10
43.091149
 20
7.186551
 30
0.0
 10
43.086149
 20
7.215351
 30
0.0
 10
43.077149
 20
7.276351
 30
0.0
 10
43.070149
 20
7.337651
 30
0.0
 10
43.068149
 20
7.368351
 30
0.0
 10
43.067149
 20
7.399051
 30
0.0
 10
43.066349
 20
7.429751
 30
0.0
 10
43.066249
 20
7.460551
 30
0.0
 10
43.066949
 20
7.491251
 30
0.0
 10
43.067949
 20
7.521951
 30
0.0
 10
43.069949
 20
7.552651
 30
0.0
 10
43.072949
 20
7.583251
 30
0.0
 10
43.076949
 20
7.613851
 30
0.0
 10
43.081949
 20
7.644351
 30
0.0
 10
43.087949
 20
7.674851
 30
0.0
 10
43.094949
 20
7.705251
 30
0.0
 10
43.102949
 20
7.738451
 30
0.0
 10
43.112949
 20
7.771651
 30
0.0
 10
43.123549
 20
7.804751
 30
0.0
 10
43.134949
 20
7.837751
 30
0.0
 10
43.147449
 20
7.870651
 30
0.0
 10
43.160749
 20
7.903451
 30
0.0
 10
43.174949
 20
7.936151
 30
0.0
 10
43.189949
 20
7.968751
 30
0.0
 10
43.205749
 20
8.001251
 30
0.0
 10
43.222349
 20
8.033551
 30
0.0
 10
43.257649
 20
8.097951
 30
0.0
 10
43.295549
 20
8.161851
 30
0.0
 10
43.335749
 20
8.225151
 30
0.0
 10
43.360049
 20
8.260751
 30
0.0
 10
43.385749
 20
8.296151
 30
0.0
 10
43.412649
 20
8.331151
 30
0.0
 10
43.440749
 20
8.365951
 30
0.0
 10
43.469849
 20
8.400451
 30
0.0
 10
43.499649
 20
8.434851
 30
0.0
 10
43.561249
 20
8.503051
 30
0.0
 10
43.687449
 20
8.638851
 30
0.0
 10
43.749749
 20
8.706851
 30
0.0
 10
43.809749
 20
8.775551
 30
0.0
 10
44.059449
 20
9.063751
 30
0.0
 10
44.120849
 20
9.136151
 30
0.0
 10
44.180749
 20
9.208851
 30
0.0
 10
44.238549
 20
9.282051
 30
0.0
 10
44.293649
 20
9.355951
 30
0.0
 10
44.348949
 20
9.433751
 30
0.0
 10
44.402649
 20
9.511951
 30
0.0
 10
44.454649
 20
9.590451
 30
0.0
 10
44.504849
 20
9.669351
 30
0.0
 10
44.552849
 20
9.748651
 30
0.0
 10
44.598649
 20
9.828451
 30
0.0
 10
44.642149
 20
9.908551
 30
0.0
 10
44.682949
 20
9.989151
 30
0.0
 10
44.722849
 20
10.073251
 30
0.0
 10
44.760449
 20
10.157651
 30
0.0
 10
44.795749
 20
10.242451
 30
0.0
 10
44.828649
 20
10.327551
 30
0.0
 10
44.858949
 20
10.412951
 30
0.0
 10
44.886649
 20
10.498551
 30
0.0
 10
44.911549
 20
10.584451
 30
0.0
 10
44.933649
 20
10.670551
 30
0.0
 10
44.953849
 20
10.760451
 30
0.0
 10
44.971449
 20
10.850551
 30
0.0
 10
44.986349
 20
10.940851
 30
0.0
 10
44.998449
 20
11.031351
 30
0.0
 10
45.007449
 20
11.121951
 30
0.0
 10
45.013449
 20
11.212551
 30
0.0
 10
45.015449
 20
11.303151
 30
0.0
 10
45.014449
 20
11.393651
 30
0.0
 10
45.009449
 20
11.491151
 30
0.0
 10
45.001449
 20
11.588651
 30
0.0
 10
44.989649
 20
11.686051
 30
0.0
 10
44.974149
 20
11.783251
 30
0.0
 10
44.954849
 20
11.880251
 30
0.0
 10
44.931649
 20
11.976851
 30
0.0
 10
44.904449
 20
12.073251
 30
0.0
 10
44.873049
 20
12.169051
 30
0.0
 10
44.834549
 20
12.273451
 30
0.0
 10
44.792049
 20
12.377351
 30
0.0
 10
44.745449
 20
12.480751
 30
0.0
 10
44.694449
 20
12.583651
 30
0.0
 10
44.639149
 20
12.685651
 30
0.0
 10
44.609749
 20
12.736351
 30
0.0
 10
44.579249
 20
12.786851
 30
0.0
 10
44.547549
 20
12.837151
 30
0.0
 10
44.514749
 20
12.887051
 30
0.0
 10
44.480749
 20
12.936751
 30
0.0
 10
44.445549
 20
12.986151
 30
0.0
 10
44.369949
 20
13.087551
 30
0.0
 10
44.290449
 20
13.188151
 30
0.0
 10
44.206749
 20
13.287751
 30
0.0
 10
44.163149
 20
13.337051
 30
0.0
 10
44.118449
 20
13.386051
 30
0.0
 10
44.072449
 20
13.434651
 30
0.0
 10
44.025149
 20
13.482851
 30
0.0
 10
43.976549
 20
13.530551
 30
0.0
 10
43.926549
 20
13.577751
 30
0.0
 10
43.875149
 20
13.624451
 30
0.0
 10
43.822249
 20
13.670551
 30
0.0
 10
43.767749
 20
13.716151
 30
0.0
 10
43.711749
 20
13.761051
 30
0.0
 10
43.595749
 20
13.848451
 30
0.0
 10
43.473949
 20
13.933551
 30
0.0
 10
43.346949
 20
14.016351
 30
0.0
 10
43.215149
 20
14.096751
 30
0.0
 10
43.078949
 20
14.174951
 30
0.0
 10
42.938949
 20
14.250951
 30
0.0
 10
42.795649
 20
14.324851
 30
0.0
 10
42.649349
 20
14.396651
 30
0.0
 10
42.502549
 20
14.464451
 30
0.0
 10
42.351749
 20
14.529651
 30
0.0
 10
42.197549
 20
14.592251
 30
0.0
 10
42.040149
 20
14.652651
 30
0.0
 10
41.880349
 20
14.710951
 30
0.0
 10
41.718349
 20
14.767451
 30
0.0
 10
41.390049
 20
14.875951
 30
0.0
 10
42.461749
 20
15.050951
 30
0.0
 10
47.641349
 20
16.074251
 30
0.0
 10
52.830049
 20
17.104051
 30
0.0
 10
58.018849
 20
18.126751
 30
0.0
 10
59.709649
 20
18.453851
 30
0.0
  0
SPLINE
  5
103
100
AcDbEntity
  8
0
 62
7
100
AcDbSpline
 70
8
 71
3
 72
8
 73
4
 74
0
 40
0
 40
0
 40
0
 40
0
 40
1
 40
1
 40
1
 40
1
 10
57.379599
 20
74.379146
 30
0.0
 10
57.379599
 20
74.379146
 30
0.0
 10
56.892149
 20
76.292820
 30
0.0
 10
59.113419
 20
76.649163
 30
0.0
  0
SPLINE
  5
104
100
AcDbEntity
  8
0
 62
7
100
AcDbSpline
 70
8
 71
3
 72
8
 73
4
 74
0
 40
0
 40
0
 40
0
 40
0
 40
1
 40
1
 40
1
 40
1
 10
59.113419
 20
76.649163
 30
0.0
 10
61.334689
 20
77.005506
 30
0.0
 10
61.371019
 20
75.174696
 30
0.0
 10
61.371019
 20
75.174696
 30
0.0
  0
LWPOLYLINE
  5
105
100
AcDbEntity
  8
0
 62
7
100
AcDbPolyline
 90
229
 70
0
 10
123.334547
 20
80.747847
 30
0.0
 10
128.897547
 20
80.644147
 30
0.0
 10
134.438347
 20
80.444847
 30
0.0
 10
139.973647
 20
80.144047
 30
0.0
 10
145.519747
 20
79.735747
 30
0.0
 10
151.558846
 20
79.176947
 30
0.0
 10
157.580246
 20
78.514247
 30
0.0
 10
163.578846
 20
77.744847
 30
0.0
 10
169.549346
 20
76.866047
 30
0.0
 10
175.486746
 20
75.875047
 30
0.0
 10
181.385646
 20
74.769046
 30
0.0
 10
187.241046
 20
73.545446
 30
0.0
 10
193.047645
 20
72.201446
 30
0.0
 10
195.709545
 20
71.583346
 30
0.0
 10
196.975645
 20
71.275646
 30
0.0
 10
198.214345
 20
70.953746
 30
0.0
 10
199.437545
 20
70.606346
 30
0.0
 10
200.657145
 20
70.221946
 30
0.0
 10
201.884945
 20
69.789346
 30
0.0
 10
202.505645
 20
69.551446
 30
0.0
 10
203.132945
 20
69.297246
 30
0.0
 10
206.870645
 20
67.778446
 30
0.0
 10
208.671245
 20
67.046346
 30
0.0
 10
209.790845
 20
66.576246
 30
0.0
 10
210.792745
 20
66.116746
 30
0.0
 10
211.780445
 20
65.643046
 30
0.0
 10
212.753545
 20
65.155246
 30
0.0
 10
213.711845
 20
64.653546
 30
0.0
 10
214.655045
 20
64.138046
 30
0.0
 10
215.582645
 20
63.608947
 30
0.0
 10
216.494545
 20
63.066247
 30
0.0
 10
217.390445
 20
62.510247
 30
0.0
 10
218.269845
 20
61.940947
 30
0.0
 10
219.132545
 20
61.358547
 30
0.0
 10
219.978345
 20
60.763247
 30
0.0
 10
220.806745
 20
60.155047
 30
0.0
 10
221.617545
 20
59.534250
 30
0.0
 10
222.410345
 20
58.900850
 30
0.0
 10
223.184945
 20
58.254950
 30
0.0
 10
223.941045
 20
57.596950
 30
0.0
 10
225.217745
 20
56.419750
 30
0.0
 10
226.429445
 20
55.202450
 30
0.0
 10
227.571645
 20
53.947850
 30
0.0
 10
228.639945
 20
52.658650
 30
0.0
 10
229.629845
 20
51.337450
 30
0.0
 10
230.536845
 20
49.986950
 30
0.0
 10
231.356545
 20
48.609950
 30
0.0
 10
232.084545
 20
47.209150
 30
0.0
 10
232.716245
 20
45.787050
 30
0.0
 10
233.247145
 20
44.346550
 30
0.0
 10
233.673045
 20
42.890350
 30
0.0
 10
233.989245
 20
41.420950
 30
0.0
 10
234.191345
 20
39.941250
 30
0.0
 10
234.274944
 20
38.453850
 30
0.0
 10
234.235545
 20
36.961550
 30
0.0
 10
234.168345
 20
36.214350
 30
0.0
 10
234.068645
 20
35.466850
 30
0.0
 10
233.974745
 20
34.827450
 30
0.0
 10
233.846445
 20
34.192050
 30
0.0
 10
233.684545
 20
33.561250
 30
0.0
 10
233.489545
 20
32.935750
 30
0.0
 10
233.262045
 20
32.316050
 30
0.0
 10
233.002845
 20
31.702950
 30
0.0
 10
232.712345
 20
31.096850
 30
0.0
 10
232.391345
 20
30.498550
 30
0.0
 10
232.040445
 20
29.908550
 30
0.0
 10
231.660245
 20
29.327550
 30
0.0
 10
231.251345
 20
28.756050
 30
0.0
 10
230.814345
 20
28.194850
 30
0.0
 10
230.350045
 20
27.644550
 30
0.0
 10
229.858845
 20
27.105550
 30
0.0
 10
229.341445
 20
26.578750
 30
0.0
 10
228.798545
 20
26.064550
 30
0.0
 10
227.873345
 20
25.261350
 30
0.0
 10
226.931545
 20
24.461350
 30
0.0
 10
225.963745
 20
23.675050
 30
0.0
 10
225.467145
 20
23.290250
 30
0.0
 10
224.960345
 20
22.912850
 30
0.0
 10
224.442345
 20
22.544050
 30
0.0
 10
223.911745
 20
22.185150
 30
0.0
 10
223.367545
 20
21.837550
 30
0.0
 10
222.808345
 20
21.502550
 30
0.0
 10
222.233145
 20
21.181451
 30
0.0
 10
221.640745
 20
20.875451
 30
0.0
 10
221.029745
 20
20.585951
 30
0.0
 10
220.399145
 20
20.314251
 30
0.0
 10
219.326045
 20
19.890551
 30
0.0
 10
218.224645
 20
19.519051
 30
0.0
 10
217.097745
 20
19.197951
 30
0.0
 10
215.948545
 20
18.925851
 30
0.0
 10
214.779945
 20
18.701051
 30
0.0
 10
213.595145
 20
18.521951
 30
0.0
 10
212.397145
 20
18.387051
 30
0.0
 10
211.188945
 20
18.294651
 30
0.0
 10
209.973545
 20
18.243151
 30
0.0
 10
208.754145
 20
18.230951
 30
0.0
 10
207.533645
 20
18.256551
 30
0.0
 10
206.315045
 20
18.318251
 30
0.0
 10
205.101645
 20
18.414551
 30
0.0
 10
203.896245
 20
18.543651
 30
0.0
 10
202.701945
 20
18.704251
 30
0.0
 10
201.521745
 20
18.894451
 30
0.0
 10
193.488845
 20
20.331851
 30
0.0
 10
189.484546
 20
21.085951
 30
0.0
 10
185.496546
 20
21.882150
 30
0.0
 10
178.207746
 20
23.304850
 30
0.0
 10
177.799046
 20
23.382450
 30
0.0
 10
177.251046
 20
23.481550
 30
0.0
 10
176.292746
 20
23.653750
 30
0.0
 10
170.295346
 20
24.748250
 30
0.0
 10
164.424546
 20
25.748950
 30
0.0
 10
158.525146
 20
26.662550
 30
0.0
 10
152.441646
 20
27.495550
 30
0.0
 10
147.570747
 20
28.080750
 30
0.0
 10
142.677247
 20
28.543050
 30
0.0
 10
137.765547
 20
28.892650
 30
0.0
 10
132.840147
 20
29.139950
 30
0.0
 10
127.905447
 20
29.295350
 30
0.0
 10
122.965847
 20
29.369050
 30
0.0
 10
118.025847
 20
29.371050
 30
0.0
 10
113.089847
 20
29.312550
 30
0.0
 10
109.564647
 20
29.233050
 30
0.0
 10
106.048748
 20
29.089650
 30
0.0
 10
102.542148
 20
28.885850
 30
0.0
 10
99.044652
 20
28.625450
 30
0.0
 10
95.556352
 20
28.312050
 30
0.0
 10
92.077152
 20
27.949550
 30
0.0
 10
88.606952
 20
27.541450
 30
0.0
 10
85.145652
 20
27.091450
 30
0.0
 10
79.934852
 20
26.343750
 30
0.0
 10
74.710752
 20
25.520950
 30
0.0
 10
69.506252
 20
24.637050
 30
0.0
 10
64.354148
 20
23.706150
 30
0.0
 10
60.209149
 20
22.911750
 30
0.0
 10
57.758449
 20
22.432050
 30
0.0
 10
49.902949
 20
20.811051
 30
0.0
 10
42.986549
 20
19.517851
 30
0.0
 10
39.627949
 20
18.964351
 30
0.0
 10
36.658249
 20
18.554451
 30
0.0
 10
35.573349
 20
18.434651
 30
0.0
 10
34.475249
 20
18.341751
 30
0.0
 10
33.366949
 20
18.277051
 30
0.0
 10
32.251549
 20
18.241851
 30
0.0
 10
31.131949
 20
18.236851
 30
0.0
 10
30.011349
 20
18.264251
 30
0.0
 10
28.892649
 20
18.324751
 30
0.0
 10
27.779049
 20
18.419651
 30
0.0
 10
26.673349
 20
18.550251
 30
0.0
 10
25.578849
 20
18.717751
 30
0.0
 10
24.498349
 20
18.923451
 30
0.0
 10
23.434949
 20
19.168451
 30
0.0
 10
22.391749
 20
19.454051
 30
0.0
 10
21.371849
 20
19.781551
 30
0.0
 10
20.378050
 20
20.152151
 30
0.0
 10
19.413550
 20
20.567151
 30
0.0
 10
18.452950
 20
21.095651
 30
0.0
 10
17.519150
 20
21.647750
 30
0.0
 10
16.612250
 20
22.222450
 30
0.0
 10
15.732150
 20
22.818450
 30
0.0
 10
14.879150
 20
23.434450
 30
0.0
 10
14.053150
 20
24.069250
 30
0.0
 10
13.254250
 20
24.721650
 30
0.0
 10
12.482550
 20
25.390550
 30
0.0
 10
12.010650
 20
25.742450
 30
0.0
 10
11.558250
 20
26.122050
 30
0.0
 10
11.125750
 20
26.525650
 30
0.0
 10
10.713050
 20
26.949250
 30
0.0
 10
10.320450
 20
27.389250
 30
0.0
 10
9.948050
 20
27.841650
 30
0.0
 10
9.595950
 20
28.302750
 30
0.0
 10
9.264350
 20
28.768650
 30
0.0
 10
8.953450
 20
29.235550
 30
0.0
 10
8.663250
 20
29.699750
 30
0.0
 10
8.394150
 20
30.157350
 30
0.0
 10
8.146050
 20
30.604550
 30
0.0
 10
7.919150
 20
31.037450
 30
0.0
 10
7.713750
 20
31.452350
 30
0.0
 10
7.367650
 20
32.212850
 30
0.0
 10
7.031050
 20
33.148250
 30
0.0
 10
6.757150
 20
34.094250
 30
0.0
 10
6.544050
 20
35.049050
 30
0.0
 10
6.390150
 20
36.010750
 30
0.0
 10
6.293550
 20
36.977350
 30
0.0
 10
6.252450
 20
37.946950
 30
0.0
 10
6.264950
 20
38.917550
 30
0.0
 10
6.329250
 20
39.887450
 30
0.0
 10
6.443650
 20
40.854550
 30
0.0
 10
6.606250
 20
41.817050
 30
0.0
 10
6.815350
 20
42.772950
 30
0.0
 10
7.068950
 20
43.720350
 30
0.0
 10
7.365350
 20
44.657250
 30
0.0
 10
7.702750
 20
45.581950
 30
0.0
 10
8.079350
 20
46.492350
 30
0.0
 10
8.493250
 20
47.386550
 30
0.0
 10
9.056350
 20
48.478750
 30
0.0
 10
9.662450
 20
49.543550
 30
0.0
 10
10.311350
 20
50.582050
 30
0.0
 10
11.003150
 20
51.595050
 30
0.0
 10
11.737850
 20
52.583550
 30
0.0
 10
12.515450
 20
53.548450
 30
0.0
 10
13.335850
 20
54.490750
 30
0.0
 10
14.199150
 20
55.411350
 30
0.0
 10
15.105350
 20
56.311150
 30
0.0
 10
16.054450
 20
57.191150
 30
0.0
 10
17.046450
 20
58.052250
 30
0.0
 10
18.081250
 20
58.895450
 30
0.0
 10
19.158950
 20
59.721550
 30
0.0
 10
20.279450
 20
60.531647
 30
0.0
 10
21.442849
 20
61.326647
 30
0.0
 10
22.649149
 20
62.107447
 30
0.0
 10
27.713449
 20
65.076846
 30
0.0
 10
28.475849
 20
65.483046
 30
0.0
 10
29.189449
 20
65.852846
 30
0.0
 10
29.873149
 20
66.195346
 30
0.0
 10
30.545749
 20
66.519646
 30
0.0
 10
31.226249
 20
66.834846
 30
0.0
 10
31.933649
 20
67.149946
 30
0.0
 10
32.686849
 20
67.474146
 30
0.0
 10
33.504749
 20
67.816546
 30
0.0
 10
35.613749
 20
68.636946
 30
0.0
 10
37.772649
 20
69.401846
 30
0.0
 10
39.974249
 20
70.116546
 30
0.0
 10
42.211249
 20
70.785846
 30
0.0
 10
44.476549
 20
71.414946
 30
0.0
 10
46.762649
 20
72.008846
 30
0.0
 10
49.062449
 20
72.572546
 30
0.0
 10
51.368649
 20
73.111046
 30
0.0
 10
55.375949
 20
73.956446
 30
0.0
 10
57.379599
 20
74.379146
 30
0.0
  0
LWPOLYLINE
  5
106
100
AcDbEntity
  8
0
 62
7
100
AcDbPolyline
 90
12
 70
0
 10
61.371019
 20
75.174696
 30
0.0
 10
63.358799
 20
75.547547
 30
0.0
 10
67.334348
 20
76.293247
 30
0.0
 10
75.258552
 20
77.580147
 30
0.0
 10
83.192252
 20
78.657447
 30
0.0
 10
91.171852
 20
79.519947
 30
0.0
 10
99.233752
 20
80.162547
 30
0.0
 10
107.414347
 20
80.580047
 30
0.0
 10
115.750247
 20
80.767547
 30
0.0
 10
116.564547
 20
80.776347
 30
0.0
 10
116.564547
 20
80.776347
 30
0.0
 10
123.334547
 20
80.747847
 30
0.0
  0
ENDSEC
  0
SECTION
  2
OBJECTS
  0
DICTIONARY
  5
C
330
0
100
AcDbDictionary
  3
ACAD_GROUP
350
D
  3
ACAD_MLINESTYLE
350
17
  0
DICTIONARY
  5
D
330
C
100
AcDbDictionary
  0
DICTIONARY
  5
1A
330
C
100
AcDbDictionary
  0
DICTIONARY
  5
17
330
C
100
AcDbDictionary
  3
STANDARD
350
18
  0
DICTIONARY
  5
19
330
C
100
AcDbDictionary
  0
ENDSEC
  0
EOF
