999
"DXF R12 Output" (www.mydxf.blogspot.com)
 0 
SECTION
 2 
HEADER
 9 
$ACADVER
 1 
AC1009
 9 
$EXTMIN
 10 
 0 
 20 
 0 
 9 
$EXTMAX
 10 
 8.5 
 20 
 11 
 0 
ENDSEC
 0 
SECTION
 2 
ENTITIES
0
LINE
8
Layer 1
10
147.208775
20
122.369146
11
141.898265
21
122.288943
0
LINE
8
Layer 1
10
141.898265
20
122.288943
11
136.165581
21
122.040599
0
LINE
8
Layer 1
10
136.165581
20
122.040599
11
130.116551
21
121.644468
0
LINE
8
Layer 1
10
130.116551
20
121.644468
11
127.997887
21
121.463299
0
LINE
8
Layer 1
10
127.997887
20
121.463299
11
123.875772
21
121.120909
0
LINE
8
Layer 1
10
123.875772
20
121.120909
11
117.510413
21
120.476434
0
LINE
8
Layer 1
10
117.510413
20
120.476434
11
111.193095
21
119.738321
0
LINE
8
Layer 1
10
111.193095
20
119.738321
11
105.029261
21
118.919191
0
LINE
8
Layer 1
10
105.029261
20
118.919191
11
99.152856
21
118.039807
0
LINE
8
Layer 1
10
99.152856
20
118.039807
11
97.676630
21
117.791461
0
LINE
8
Layer 1
10
97.676630
20
117.791461
11
97.024827
21
117.677467
0
LINE
8
Layer 1
10
97.024827
20
117.677467
11
93.707593
21
117.120524
0
LINE
8
Layer 1
10
93.707593
20
117.120524
11
88.770826
21
116.167043
0
LINE
8
Layer 1
10
88.770826
20
116.167043
11
84.265202
21
115.200534
0
LINE
8
Layer 1
10
84.265202
20
115.200534
11
80.066549
21
114.220591
0
LINE
8
Layer 1
10
80.066549
20
114.220591
11
76.020973
21
113.240647
0
LINE
8
Layer 1
10
76.020973
20
113.240647
11
72.023438
21
112.260703
0
LINE
8
Layer 1
10
72.023438
20
112.260703
11
69.128390
21
111.428545
0
LINE
8
Layer 1
10
69.128390
20
111.428545
11
66.175938
21
110.461630
0
LINE
8
Layer 1
10
66.175938
20
110.461630
11
63.127406
21
109.260211
0
LINE
8
Layer 1
10
63.127406
20
109.260211
11
59.944930
21
107.857267
0
LINE
8
Layer 1
10
59.944930
20
107.857267
11
56.618332
21
106.280075
0
LINE
8
Layer 1
10
56.618332
20
106.280075
11
53.349546
21
104.541662
0
LINE
8
Layer 1
10
53.349546
20
104.541662
11
50.233838
21
102.655463
0
LINE
8
Layer 1
10
50.233838
20
102.655463
11
47.300521
21
100.628401
0
LINE
8
Layer 1
10
47.300521
20
100.628401
11
44.578093
21
98.480423
0
LINE
8
Layer 1
10
44.578093
20
98.480423
11
42.085689
21
96.218451
0
LINE
8
Layer 1
10
42.085689
20
96.218451
11
39.832674
21
93.862434
0
LINE
8
Layer 1
10
39.832674
20
93.862434
11
37.848359
21
91.425805
0
LINE
8
Layer 1
10
37.848359
20
91.425805
11
36.151473
21
88.908567
0
LINE
8
Layer 1
10
36.151473
20
88.908567
11
34.733058
21
86.344511
0
LINE
8
Layer 1
10
34.733058
20
86.344511
11
33.620800
21
83.733634
0
LINE
8
Layer 1
10
33.620800
20
83.733634
11
32.825283
21
81.156142
0
LINE
8
Layer 1
10
32.825283
20
81.156142
11
32.825283
21
81.149209
0
LINE
8
Layer 1
10
32.825283
20
81.149209
11
32.346099
21
78.612022
0
LINE
8
Layer 1
10
32.346099
20
78.612022
11
32.182843
21
76.067914
0
LINE
8
Layer 1
10
32.182843
20
76.067914
11
32.346099
21
73.544162
0
LINE
8
Layer 1
10
32.346099
20
73.544162
11
32.825283
21
71.053794
0
LINE
8
Layer 1
10
32.825283
20
71.053794
11
33.620800
21
68.631009
0
LINE
8
Layer 1
10
33.620800
20
68.631009
11
34.733058
21
66.288426
0
LINE
8
Layer 1
10
34.733058
20
66.288426
11
34.733058
21
66.281099
0
LINE
8
Layer 1
10
34.733058
20
66.281099
11
35.066492
21
65.773825
0
LINE
8
Layer 1
10
35.066492
20
65.773825
11
24.112323
21
62.755404
0
LINE
8
Layer 1
10
24.112323
20
62.755404
11
13.234958
21
59.466277
0
LINE
8
Layer 1
10
13.234958
20
59.466277
11
11.402398
21
58.781916
0
LINE
8
Layer 1
10
11.402398
20
58.781916
11
9.681312
21
57.932633
0
LINE
8
Layer 1
10
9.681312
20
57.932633
11
8.077954
21
56.930486
0
LINE
8
Layer 1
10
8.077954
20
56.930486
11
6.598576
21
55.787531
0
LINE
8
Layer 1
10
6.598576
20
55.787531
11
5.249434
21
54.515826
0
LINE
8
Layer 1
10
5.249434
20
54.515826
11
4.036781
21
53.127427
0
LINE
8
Layer 1
10
4.036781
20
53.127427
11
2.966869
21
51.634391
0
LINE
8
Layer 1
10
2.966869
20
51.634391
11
2.045953
21
50.048776
0
LINE
8
Layer 1
10
2.045953
20
50.048776
11
1.280285
21
48.382638
0
LINE
8
Layer 1
10
1.280285
20
48.382638
11
0.676121
21
46.648033
0
LINE
8
Layer 1
10
0.676121
20
46.648033
11
0.239713
21
44.857020
0
LINE
8
Layer 1
10
0.239713
20
44.857020
11
-0.022686
21
43.021655
0
LINE
8
Layer 1
10
-0.022686
20
43.021655
11
-0.104821
21
41.153994
0
LINE
8
Layer 1
10
-0.104821
20
41.153994
11
-0.000439
21
39.266095
0
LINE
8
Layer 1
10
-0.000439
20
39.266095
11
0.296713
21
37.370016
0
LINE
8
Layer 1
10
0.296713
20
37.370016
11
0.792889
21
35.477811
0
LINE
8
Layer 1
10
0.792889
20
35.477811
11
1.477221
21
33.645220
0
LINE
8
Layer 1
10
1.477221
20
33.645220
11
2.326479
21
31.924102
0
LINE
8
Layer 1
10
2.326479
20
31.924102
11
3.328606
21
30.320711
0
LINE
8
Layer 1
10
3.328606
20
30.320711
11
4.471546
21
28.841301
0
LINE
8
Layer 1
10
4.471546
20
28.841301
11
5.743240
21
27.492127
0
LINE
8
Layer 1
10
5.743240
20
27.492127
11
7.131632
21
26.279441
0
LINE
8
Layer 1
10
7.131632
20
26.279441
11
8.624665
21
25.209499
0
LINE
8
Layer 1
10
8.624665
20
25.209499
11
10.210282
21
24.288553
0
LINE
8
Layer 1
10
10.210282
20
24.288553
11
11.876425
21
23.522858
0
LINE
8
Layer 1
10
11.876425
20
23.522858
11
13.611037
21
22.918667
0
LINE
8
Layer 1
10
13.611037
20
22.918667
11
15.402060
21
22.482235
0
LINE
8
Layer 1
10
15.402060
20
22.482235
11
17.237439
21
22.219815
0
LINE
8
Layer 1
10
17.237439
20
22.219815
11
19.105115
21
22.137661
0
LINE
8
Layer 1
10
19.105115
20
22.137661
11
20.993032
21
22.242028
0
LINE
8
Layer 1
10
20.993032
20
22.242028
11
22.889132
21
22.539168
0
LINE
8
Layer 1
10
22.889132
20
22.539168
11
24.781357
21
23.035336
0
LINE
8
Layer 1
10
24.781357
20
23.035336
11
32.526235
21
25.408150
0
LINE
8
Layer 1
10
32.526235
20
25.408150
11
40.316281
21
27.631327
0
LINE
8
Layer 1
10
40.316281
20
27.631327
11
48.148422
21
29.704392
0
LINE
8
Layer 1
10
48.148422
20
29.704392
11
56.019587
21
31.626869
0
LINE
8
Layer 1
10
56.019587
20
31.626869
11
63.926703
21
33.398281
0
LINE
8
Layer 1
10
63.926703
20
33.398281
11
71.866699
21
35.018153
0
LINE
8
Layer 1
10
71.866699
20
35.018153
11
79.836502
21
36.486010
0
LINE
8
Layer 1
10
79.836502
20
36.486010
11
87.833040
21
37.801376
0
LINE
8
Layer 1
10
87.833040
20
37.801376
11
95.853242
21
38.963775
0
LINE
8
Layer 1
10
95.853242
20
38.963775
11
103.894036
21
39.972730
0
LINE
8
Layer 1
10
103.894036
20
39.972730
11
111.952348
21
40.827767
0
LINE
8
Layer 1
10
111.952348
20
40.827767
11
120.025108
21
41.528410
0
LINE
8
Layer 1
10
120.025108
20
41.528410
11
128.109244
21
42.074182
0
LINE
8
Layer 1
10
128.109244
20
42.074182
11
136.201682
21
42.464609
0
LINE
8
Layer 1
10
136.201682
20
42.464609
11
144.299352
21
42.699214
0
LINE
8
Layer 1
10
144.299352
20
42.699214
11
152.399181
21
42.777521
0
LINE
8
Layer 1
10
152.399181
20
42.777521
11
160.499010
21
42.699214
0
LINE
8
Layer 1
10
160.499010
20
42.699214
11
168.596680
21
42.464609
0
LINE
8
Layer 1
10
168.596680
20
42.464609
11
176.689118
21
42.074183
0
LINE
8
Layer 1
10
176.689118
20
42.074183
11
184.773253
21
41.528410
0
LINE
8
Layer 1
10
184.773253
20
41.528410
11
192.846012
21
40.827768
0
LINE
8
Layer 1
10
192.846012
20
40.827768
11
200.904323
21
39.972731
0
LINE
8
Layer 1
10
200.904323
20
39.972731
11
208.945115
21
38.963775
0
LINE
8
Layer 1
10
208.945115
20
38.963775
11
216.965315
21
37.801377
0
LINE
8
Layer 1
10
216.965315
20
37.801377
11
224.961853
21
36.486012
0
LINE
8
Layer 1
10
224.961853
20
36.486012
11
232.931655
21
35.018155
0
LINE
8
Layer 1
10
232.931655
20
35.018155
11
240.871649
21
33.398283
0
LINE
8
Layer 1
10
240.871649
20
33.398283
11
248.778765
21
31.626872
0
LINE
8
Layer 1
10
248.778765
20
31.626872
11
256.649929
21
29.704396
0
LINE
8
Layer 1
10
256.649929
20
29.704396
11
264.482071
21
27.631333
0
LINE
8
Layer 1
10
264.482071
20
27.631333
11
272.272117
21
25.408157
0
LINE
8
Layer 1
10
272.272117
20
25.408157
11
280.016997
21
23.035344
0
LINE
8
Layer 1
10
280.016997
20
23.035344
11
281.845709
21
22.553753
0
LINE
8
Layer 1
10
281.845709
20
22.553753
11
283.699392
21
22.256815
0
LINE
8
Layer 1
10
283.699392
20
22.256815
11
285.564532
21
22.143368
0
LINE
8
Layer 1
10
285.564532
20
22.143368
11
287.427615
21
22.212251
0
LINE
8
Layer 1
10
287.427615
20
22.212251
11
289.275126
21
22.462301
0
LINE
8
Layer 1
10
289.275126
20
22.462301
11
291.093550
21
22.892358
0
LINE
8
Layer 1
10
291.093550
20
22.892358
11
292.869375
21
23.501260
0
LINE
8
Layer 1
10
292.869375
20
23.501260
11
294.589084
21
24.287846
0
LINE
8
Layer 1
10
294.589084
20
24.287846
11
296.222685
21
25.240456
0
LINE
8
Layer 1
10
296.222685
20
25.240456
11
297.743369
21
26.341289
0
LINE
8
Layer 1
10
297.743369
20
26.341289
11
299.142402
21
27.579968
0
LINE
8
Layer 1
10
299.142402
20
27.579968
11
300.411049
21
28.946114
0
LINE
8
Layer 1
10
300.411049
20
28.946114
11
301.540577
21
30.429350
0
LINE
8
Layer 1
10
301.540577
20
30.429350
11
302.522251
21
32.019298
0
LINE
8
Layer 1
10
302.522251
20
32.019298
11
303.347336
21
33.705580
0
LINE
8
Layer 1
10
303.347336
20
33.705580
11
304.007098
21
35.477819
0
LINE
8
Layer 1
10
304.007098
20
35.477819
11
304.503274
21
37.370024
0
LINE
8
Layer 1
10
304.503274
20
37.370024
11
304.800427
21
39.266104
0
LINE
8
Layer 1
10
304.800427
20
39.266104
11
304.904808
21
41.154003
0
LINE
8
Layer 1
10
304.904808
20
41.154003
11
304.822673
21
43.021664
0
LINE
8
Layer 1
10
304.822673
20
43.021664
11
304.560275
21
44.857030
0
LINE
8
Layer 1
10
304.560275
20
44.857030
11
304.123866
21
46.648043
0
LINE
8
Layer 1
10
304.123866
20
46.648043
11
303.519702
21
48.382648
0
LINE
8
Layer 1
10
303.519702
20
48.382648
11
302.754034
21
50.048786
0
LINE
8
Layer 1
10
302.754034
20
50.048786
11
301.833118
21
51.634402
0
LINE
8
Layer 1
10
301.833118
20
51.634402
11
300.763205
21
53.127438
0
LINE
8
Layer 1
10
300.763205
20
53.127438
11
299.550551
21
54.515837
0
LINE
8
Layer 1
10
299.550551
20
54.515837
11
298.201409
21
55.787542
0
LINE
8
Layer 1
10
298.201409
20
55.787542
11
296.722031
21
56.930497
0
LINE
8
Layer 1
10
296.722031
20
56.930497
11
295.118672
21
57.932644
0
LINE
8
Layer 1
10
295.118672
20
57.932644
11
293.397586
21
58.781926
0
LINE
8
Layer 1
10
293.397586
20
58.781926
11
291.565025
21
59.466287
0
LINE
8
Layer 1
10
291.565025
20
59.466287
11
280.686876
21
62.755638
0
LINE
8
Layer 1
10
280.686876
20
62.755638
11
269.731861
21
65.774242
0
LINE
8
Layer 1
10
269.731861
20
65.774242
11
270.066925
21
66.286810
0
LINE
8
Layer 1
10
270.066925
20
66.286810
11
271.169414
21
68.629392
0
LINE
8
Layer 1
10
271.169414
20
68.629392
11
271.974293
21
71.052585
0
LINE
8
Layer 1
10
271.974293
20
71.052585
11
272.453884
21
73.542952
0
LINE
8
Layer 1
10
272.453884
20
73.542952
11
272.617138
21
76.066704
0
LINE
8
Layer 1
10
272.617138
20
76.066704
11
272.453884
21
78.610812
0
LINE
8
Layer 1
10
272.453884
20
78.610812
11
271.974293
21
81.148000
0
LINE
8
Layer 1
10
271.974293
20
81.148000
11
271.974293
21
81.154933
0
LINE
8
Layer 1
10
271.974293
20
81.154933
11
271.169414
21
83.732425
0
LINE
8
Layer 1
10
271.169414
20
83.732425
11
270.066925
21
86.343301
0
LINE
8
Layer 1
10
270.066925
20
86.343301
11
268.648106
21
88.907358
0
LINE
8
Layer 1
10
268.648106
20
88.907358
11
266.941855
21
91.424596
0
LINE
8
Layer 1
10
266.941855
20
91.424596
11
264.957540
21
93.861223
0
LINE
8
Layer 1
10
264.957540
20
93.861223
11
262.714296
21
96.217241
0
LINE
8
Layer 1
10
262.714296
20
96.217241
11
260.221894
21
98.479214
0
LINE
8
Layer 1
10
260.221894
20
98.479214
11
257.489691
21
100.627192
0
LINE
8
Layer 1
10
257.489691
20
100.627192
11
254.565739
21
102.654254
0
LINE
8
Layer 1
10
254.565739
20
102.654254
11
251.450439
21
104.540452
0
LINE
8
Layer 1
10
251.450439
20
104.540452
11
248.171884
21
106.278865
0
LINE
8
Layer 1
10
248.171884
20
106.278865
11
244.855057
21
107.856058
0
LINE
8
Layer 1
10
244.855057
20
107.856058
11
244.845288
21
107.856058
0
LINE
8
Layer 1
10
244.845288
20
107.856058
11
241.672996
21
109.259002
0
LINE
8
Layer 1
10
241.672996
20
109.259002
11
238.624464
21
110.460419
0
LINE
8
Layer 1
10
238.624464
20
110.460419
11
235.672008
21
111.426929
0
LINE
8
Layer 1
10
235.672008
20
111.426929
11
232.776150
21
112.259494
0
LINE
8
Layer 1
10
232.776150
20
112.259494
11
228.769246
21
113.239437
0
LINE
8
Layer 1
10
228.769246
20
113.239437
11
226.631446
21
113.756075
0
LINE
8
Layer 1
10
226.631446
20
113.756075
11
225.969874
21
113.917296
0
LINE
8
Layer 1
10
225.969874
20
113.917296
11
224.733445
21
114.219381
0
LINE
8
Layer 1
10
224.733445
20
114.219381
11
220.525015
21
115.199325
0
LINE
8
Layer 1
10
220.525015
20
115.199325
11
216.029169
21
116.165833
0
LINE
8
Layer 1
10
216.029169
20
116.165833
11
211.091996
21
117.118907
0
LINE
8
Layer 1
10
211.091996
20
117.118907
11
206.826164
21
117.837071
0
LINE
8
Layer 1
10
206.826164
20
117.837071
11
205.637368
21
118.038596
0
LINE
8
Layer 1
10
205.637368
20
118.038596
11
199.770729
21
118.917981
0
LINE
8
Layer 1
10
199.770729
20
118.917981
11
193.606487
21
119.736704
0
LINE
8
Layer 1
10
193.606487
20
119.736704
11
187.289170
21
120.475225
0
LINE
8
Layer 1
10
187.289170
20
120.475225
11
180.923810
21
121.119700
0
LINE
8
Layer 1
10
180.923810
20
121.119700
11
175.421551
21
121.582598
0
LINE
8
Layer 1
10
175.421551
20
121.582598
11
174.673671
21
121.642851
0
LINE
8
Layer 1
10
174.673671
20
121.642851
11
168.624642
21
122.038981
0
LINE
8
Layer 1
10
168.624642
20
122.038981
11
162.901727
21
122.287326
0
LINE
8
Layer 1
10
162.901727
20
122.287326
11
157.590815
21
122.367936
0
LINE
8
Layer 1
10
157.590815
20
122.367936
11
152.395115
21
122.367936
0
LINE
8
Layer 1
10
152.395115
20
122.367936
11
147.208775
21
122.369146
0
LINE
8
Layer 1
10
138.966577
20
80.776704
11
136.672447
21
80.710345
0
LINE
8
Layer 1
10
136.672447
20
80.710345
11
138.966577
21
80.776704
0
LINE
8
Layer 1
10
138.966577
20
80.776704
11
138.966577
21
80.776704
0
LINE
8
Layer 1
10
165.831777
20
80.776704
11
168.125914
21
80.710345
0
LINE
8
Layer 1
10
168.125914
20
80.710345
11
165.831777
21
80.776704
0
LINE
8
Layer 1
10
165.831777
20
80.776704
11
165.831777
21
80.776704
0
LINE
8
Layer 1
10
123.637603
20
80.076046
11
121.536043
21
79.933961
0
LINE
8
Layer 1
10
121.536043
20
79.933961
11
123.637603
21
80.076046
0
LINE
8
Layer 1
10
123.637603
20
80.076046
11
123.637603
21
80.076046
0
LINE
8
Layer 1
10
181.162783
20
80.075639
11
183.258655
21
79.934367
0
LINE
8
Layer 1
10
183.258655
20
79.934367
11
181.162783
21
80.075639
0
LINE
8
Layer 1
10
181.162783
20
80.075639
11
181.162783
21
80.075639
0
LINE
8
Layer 1
10
93.848050
20
77.229853
11
92.892127
21
77.109752
0
LINE
8
Layer 1
10
92.892127
20
77.109752
11
93.848050
21
77.229853
0
LINE
8
Layer 1
10
93.848050
20
77.229853
11
93.848050
21
77.229853
0
LINE
8
Layer 1
10
210.954787
20
77.229065
11
211.903783
21
77.110186
0
LINE
8
Layer 1
10
211.903783
20
77.110186
11
210.954787
21
77.229065
0
LINE
8
Layer 1
10
210.954787
20
77.229065
11
210.954787
21
77.229065
0
LINE
8
Layer 1
10
78.900143
20
75.063555
11
78.153888
21
74.941011
0
LINE
8
Layer 1
10
78.153888
20
74.941011
11
78.900143
21
75.063555
0
LINE
8
Layer 1
10
78.900143
20
75.063555
11
78.900143
21
75.063555
0
LINE
8
Layer 1
10
225.910022
20
75.061900
11
226.628996
21
74.943427
0
LINE
8
Layer 1
10
226.628996
20
74.943427
11
225.910022
21
75.061900
0
LINE
8
Layer 1
10
225.910022
20
75.061900
11
225.910022
21
75.061900
0
LINE
8
Board Outline
10
152.399990
20
51.636511
11
151.302817
21
51.472219
0
LINE
8
Board Outline
10
151.302817
20
51.472219
11
150.321172
21
51.005909
0
LINE
8
Board Outline
10
150.321172
20
51.005909
11
149.514699
21
50.277436
0
LINE
8
Board Outline
10
149.514699
20
50.277436
11
148.943042
21
49.326653
0
LINE
8
Board Outline
10
148.943042
20
49.326653
11
148.674959
21
48.250125
0
LINE
8
Board Outline
10
148.674959
20
48.250125
11
148.730114
21
47.164754
0
LINE
8
Board Outline
10
148.730114
20
47.164754
11
149.094511
21
46.140895
0
LINE
8
Board Outline
10
149.094511
20
46.140895
11
149.754157
21
45.248905
0
LINE
8
Board Outline
10
149.754157
20
45.248905
11
150.646147
21
44.589259
0
LINE
8
Board Outline
10
150.646147
20
44.589259
11
151.670006
21
44.224862
0
LINE
8
Board Outline
10
151.670006
20
44.224862
11
152.755377
21
44.169707
0
LINE
8
Board Outline
10
152.755377
20
44.169707
11
153.831905
21
44.437790
0
LINE
8
Board Outline
10
153.831905
20
44.437790
11
154.782688
21
45.009447
0
LINE
8
Board Outline
10
154.782688
20
45.009447
11
155.511161
21
45.815920
0
LINE
8
Board Outline
10
155.511161
20
45.815920
11
155.977471
21
46.797565
0
LINE
8
Board Outline
10
155.977471
20
46.797565
11
156.141763
21
47.894738
0
LINE
8
Board Outline
10
156.141763
20
47.894738
11
155.856938
21
49.326653
0
LINE
8
Board Outline
10
155.856938
20
49.326653
11
155.045823
21
50.540571
0
LINE
8
Board Outline
10
155.045823
20
50.540571
11
153.831905
21
51.351686
0
LINE
8
Board Outline
10
153.831905
20
51.351686
11
152.399990
21
51.636511
0
LINE
8
Board Outline
10
152.399990
20
51.636511
11
152.399990
21
51.636511
0
LINE
8
SILK
10
148.667640
20
123.186884
11
141.486840
21
123.051049
0
LINE
8
SILK
10
141.486840
20
123.051049
11
134.317181
21
122.743468
0
LINE
8
SILK
10
134.317181
20
122.743468
11
127.163527
21
122.266271
0
LINE
8
SILK
10
127.163527
20
122.266271
11
120.030742
21
121.621590
0
LINE
8
SILK
10
120.030742
20
121.621590
11
112.923691
21
120.811558
0
LINE
8
SILK
10
112.923691
20
120.811558
11
105.847237
21
119.838305
0
LINE
8
SILK
10
105.847237
20
119.838305
11
98.806244
21
118.703965
0
LINE
8
SILK
10
98.806244
20
118.703965
11
91.805578
21
117.410668
0
LINE
8
SILK
10
91.805578
20
117.410668
11
81.763444
21
115.263326
0
LINE
8
SILK
10
81.763444
20
115.263326
11
71.837877
21
112.774954
0
LINE
8
SILK
10
71.837877
20
112.774954
11
68.235649
21
111.649115
0
LINE
8
SILK
10
68.235649
20
111.649115
11
64.713055
21
110.372549
0
LINE
8
SILK
10
64.713055
20
110.372549
11
61.280586
21
108.948964
0
LINE
8
SILK
10
61.280586
20
108.948964
11
57.948736
21
107.382067
0
LINE
8
SILK
10
57.948736
20
107.382067
11
54.727995
21
105.675567
0
LINE
8
SILK
10
54.727995
20
105.675567
11
51.628858
21
103.833170
0
LINE
8
SILK
10
51.628858
20
103.833170
11
48.661815
21
101.858583
0
LINE
8
SILK
10
48.661815
20
101.858583
11
45.837359
21
99.755515
0
LINE
8
SILK
10
45.837359
20
99.755515
11
43.504171
21
97.762253
0
LINE
8
SILK
10
43.504171
20
97.762253
11
41.345144
21
95.645662
0
LINE
8
SILK
10
41.345144
20
95.645662
11
39.378728
21
93.415257
0
LINE
8
SILK
10
39.378728
20
93.415257
11
37.623374
21
91.080553
0
LINE
8
SILK
10
37.623374
20
91.080553
11
36.097534
21
88.651067
0
LINE
8
SILK
10
36.097534
20
88.651067
11
34.819657
21
86.136312
0
LINE
8
SILK
10
34.819657
20
86.136312
11
33.808194
21
83.545806
0
LINE
8
SILK
10
33.808194
20
83.545806
11
33.081596
21
80.889063
0
LINE
8
SILK
10
33.081596
20
80.889063
11
32.589683
21
77.367649
0
LINE
8
SILK
10
32.589683
20
77.367649
11
32.553517
21
75.594923
0
LINE
8
SILK
10
32.553517
20
75.594923
11
32.665320
21
73.824756
0
LINE
8
SILK
10
32.665320
20
73.824756
11
32.931176
21
72.065077
0
LINE
8
SILK
10
32.931176
20
72.065077
11
33.357166
21
70.323815
0
LINE
8
SILK
10
33.357166
20
70.323815
11
33.949374
21
68.608899
0
LINE
8
SILK
10
33.949374
20
68.608899
11
34.713881
21
66.928257
0
LINE
8
SILK
10
34.713881
20
66.928257
11
36.463819
21
64.114949
0
LINE
8
SILK
10
36.463819
20
64.114949
11
38.686086
21
61.525462
0
LINE
8
SILK
10
38.686086
20
61.525462
11
41.289348
21
59.161760
0
LINE
8
SILK
10
41.289348
20
59.161760
11
44.182273
21
57.025808
0
LINE
8
SILK
10
44.182273
20
57.025808
11
47.315474
21
55.102669
0
LINE
8
SILK
10
47.315474
20
55.102669
11
50.758384
21
53.546715
0
LINE
8
SILK
10
50.758384
20
53.546715
11
54.448261
21
52.413620
0
LINE
8
SILK
10
54.448261
20
52.413620
11
58.322363
21
51.759060
0
LINE
8
SILK
10
58.322363
20
51.759060
11
62.937488
21
51.467844
0
LINE
8
SILK
10
62.937488
20
51.467844
11
67.545543
21
51.618841
0
LINE
8
SILK
10
67.545543
20
51.618841
11
72.123317
21
52.121679
0
LINE
8
SILK
10
72.123317
20
52.121679
11
76.647600
21
52.885988
0
LINE
8
SILK
10
76.647600
20
52.885988
11
96.419143
21
56.716672
0
LINE
8
SILK
10
96.419143
20
56.716672
11
106.334860
21
58.533318
0
LINE
8
SILK
10
106.334860
20
58.533318
11
116.328530
21
60.058408
0
LINE
8
SILK
10
116.328530
20
60.058408
11
125.864270
21
61.239749
0
LINE
8
SILK
10
125.864270
20
61.239749
11
135.460050
21
62.059369
0
LINE
8
SILK
10
135.460050
20
62.059369
11
145.094350
21
62.500242
0
LINE
8
SILK
10
145.094350
20
62.500242
11
154.745650
21
62.545338
0
LINE
8
SILK
10
154.745650
20
62.545338
11
164.433657
21
62.313602
0
LINE
8
SILK
10
164.433657
20
62.313602
11
174.096869
21
61.718979
0
LINE
8
SILK
10
174.096869
20
61.718979
11
183.708906
21
60.740673
0
LINE
8
SILK
10
183.708906
20
60.740673
11
193.243390
21
59.357888
0
LINE
8
SILK
10
193.243390
20
59.357888
11
203.562013
21
57.588465
0
LINE
8
SILK
10
203.562013
20
57.588465
11
213.833445
21
55.657868
0
LINE
8
SILK
10
213.833445
20
55.657868
11
224.101712
21
53.716045
0
LINE
8
SILK
10
224.101712
20
53.716045
11
234.410840
21
51.912940
0
LINE
8
SILK
10
234.410840
20
51.912940
11
238.826339
21
51.498312
0
LINE
8
SILK
10
238.826339
20
51.498312
11
243.289294
21
51.487987
0
LINE
8
SILK
10
243.289294
20
51.487987
11
247.714979
21
51.937281
0
LINE
8
SILK
10
247.714979
20
51.937281
11
252.018670
21
52.901508
0
LINE
8
SILK
10
252.018670
20
52.901508
11
254.213812
21
53.637184
0
LINE
8
SILK
10
254.213812
20
53.637184
11
256.303409
21
54.527142
0
LINE
8
SILK
10
256.303409
20
54.527142
11
258.288239
21
55.555121
0
LINE
8
SILK
10
258.288239
20
55.555121
11
260.169080
21
56.704861
0
LINE
8
SILK
10
260.169080
20
56.704861
11
263.621906
21
59.304578
0
LINE
8
SILK
10
263.621906
20
59.304578
11
266.668110
21
62.196208
0
LINE
8
SILK
10
266.668110
20
62.196208
11
268.739569
21
64.712535
0
LINE
8
SILK
10
268.739569
20
64.712535
11
270.360314
21
67.430917
0
LINE
8
SILK
10
270.360314
20
67.430917
11
271.487325
21
70.292523
0
LINE
8
SILK
10
271.487325
20
70.292523
11
272.077580
21
73.238518
0
LINE
8
SILK
10
272.077580
20
73.238518
11
272.250415
21
75.780462
0
LINE
8
SILK
10
272.250415
20
75.780462
11
272.122630
21
78.315560
0
LINE
8
SILK
10
272.122630
20
78.315560
11
271.709855
21
80.830225
0
LINE
8
SILK
10
271.709855
20
80.830225
11
271.027719
21
83.310872
0
LINE
8
SILK
10
271.027719
20
83.310872
11
270.091849
21
85.743914
0
LINE
8
SILK
10
270.091849
20
85.743914
11
268.917875
21
88.115767
0
LINE
8
SILK
10
268.917875
20
88.115767
11
267.521426
21
90.412843
0
LINE
8
SILK
10
267.521426
20
90.412843
11
265.918130
21
92.621558
0
LINE
8
SILK
10
265.918130
20
92.621558
11
263.566707
21
95.390983
0
LINE
8
SILK
10
263.566707
20
95.390983
11
260.947740
21
97.996360
0
LINE
8
SILK
10
260.947740
20
97.996360
11
258.088271
21
100.431490
0
LINE
8
SILK
10
258.088271
20
100.431490
11
255.015340
21
102.690174
0
LINE
8
SILK
10
255.015340
20
102.690174
11
251.994043
21
104.630549
0
LINE
8
SILK
10
251.994043
20
104.630549
11
248.829143
21
106.408632
0
LINE
8
SILK
10
248.829143
20
106.408632
11
245.534301
21
108.036541
0
LINE
8
SILK
10
245.534301
20
108.036541
11
242.123180
21
109.526398
0
LINE
8
SILK
10
242.123180
20
109.526398
11
238.198560
21
111.096407
0
LINE
8
SILK
10
238.198560
20
111.096407
11
234.160060
21
112.495474
0
LINE
8
SILK
10
234.160060
20
112.495474
11
230.027090
21
113.702200
0
LINE
8
SILK
10
230.027090
20
113.702200
11
225.819060
21
114.695187
0
LINE
8
SILK
10
225.819060
20
114.695187
11
216.388123
21
116.739326
0
LINE
8
SILK
10
216.388123
20
116.739326
11
206.872607
21
118.507146
0
LINE
8
SILK
10
206.872607
20
118.507146
11
197.284375
21
119.996424
0
LINE
8
SILK
10
197.284375
20
119.996424
11
187.635289
21
121.204937
0
LINE
8
SILK
10
187.635289
20
121.204937
11
177.937210
21
122.130462
0
LINE
8
SILK
10
177.937210
20
122.130462
11
168.202001
21
122.770777
0
LINE
8
SILK
10
168.202001
20
122.770777
11
158.441523
21
123.123659
0
LINE
8
SILK
10
158.441523
20
123.123659
11
148.667640
21
123.186884
0
LINE
8
SILK
10
148.667640
20
123.186884
11
148.667640
21
123.186884
0
LINE
8
SILK
10
149.172440
20
117.433742
11
145.870450
21
117.362232
0
LINE
8
SILK
10
145.870450
20
117.362232
11
142.306200
21
117.141704
0
LINE
8
SILK
10
142.306200
20
117.141704
11
138.545260
21
116.790049
0
LINE
8
SILK
10
138.545260
20
116.790049
11
137.228040
21
116.629117
0
LINE
8
SILK
10
137.228040
20
116.629117
11
134.665120
21
116.325142
0
LINE
8
SILK
10
134.665120
20
116.325142
11
130.707490
21
115.752960
0
LINE
8
SILK
10
130.707490
20
115.752960
11
126.779660
21
115.097329
0
LINE
8
SILK
10
126.779660
20
115.097329
11
122.947200
21
114.370178
0
LINE
8
SILK
10
122.947200
20
114.370178
11
119.293550
21
113.589382
0
LINE
8
SILK
10
119.293550
20
113.589382
11
118.375660
21
113.368855
0
LINE
8
SILK
10
118.375660
20
113.368855
11
117.970360
21
113.267588
0
LINE
8
SILK
10
117.970360
20
113.267588
11
115.908110
21
112.772800
0
LINE
8
SILK
10
115.908110
20
112.772800
11
112.838560
21
111.926441
0
LINE
8
SILK
10
112.838560
20
111.926441
11
110.037230
21
111.068160
0
LINE
8
SILK
10
110.037230
20
111.068160
11
107.426630
21
110.197958
0
LINE
8
SILK
10
107.426630
20
110.197958
11
104.911390
21
109.327758
0
LINE
8
SILK
10
104.911390
20
109.327758
11
102.425950
21
108.457557
0
LINE
8
SILK
10
102.425950
20
108.457557
11
100.625940
21
107.718482
0
LINE
8
SILK
10
100.625940
20
107.718482
11
98.790180
21
106.860200
0
LINE
8
SILK
10
98.790180
20
106.860200
11
96.894810
21
105.793310
0
LINE
8
SILK
10
96.894810
20
105.793310
11
94.915990
21
104.547611
0
LINE
8
SILK
10
94.915990
20
104.547611
11
92.847780
21
103.146946
0
LINE
8
SILK
10
92.847780
20
103.146946
11
90.815320
21
101.603232
0
LINE
8
SILK
10
90.815320
20
101.603232
11
88.878230
21
99.928392
0
LINE
8
SILK
10
88.878230
20
99.928392
11
87.054380
21
98.128387
0
LINE
8
SILK
10
87.054380
20
98.128387
11
85.361660
21
96.221097
0
LINE
8
SILK
10
85.361660
20
96.221097
11
83.811990
21
94.212481
0
LINE
8
SILK
10
83.811990
20
94.212481
11
82.411320
21
92.120423
0
LINE
8
SILK
10
82.411320
20
92.120423
11
81.177540
21
89.956840
0
LINE
8
SILK
10
81.177540
20
89.956840
11
80.122570
21
87.721734
0
LINE
8
SILK
10
80.122570
20
87.721734
11
79.240450
21
85.444906
0
LINE
8
SILK
10
79.240450
20
85.444906
11
78.549060
21
83.126356
0
LINE
8
SILK
10
78.549060
20
83.126356
11
78.054350
21
80.837608
0
LINE
8
SILK
10
78.054350
20
80.837608
11
78.054350
21
80.831608
0
LINE
8
SILK
10
78.054350
20
80.831608
11
77.756340
21
78.578628
0
LINE
8
SILK
10
77.756340
20
78.578628
11
77.655020
21
76.319678
0
LINE
8
SILK
10
77.655020
20
76.319678
11
77.756340
21
74.078608
0
LINE
8
SILK
10
77.756340
20
74.078608
11
78.054350
21
71.867348
0
LINE
8
SILK
10
78.054350
20
71.867348
11
78.549060
21
69.715678
0
LINE
8
SILK
10
78.549060
20
69.715678
11
79.240450
21
67.635548
0
LINE
8
SILK
10
79.240450
20
67.635548
11
79.240450
21
67.629548
0
LINE
8
SILK
10
79.240450
20
67.629548
11
79.687470
21
66.658008
0
LINE
8
SILK
10
79.687470
20
66.658008
11
79.240450
21
65.454038
0
LINE
8
SILK
10
79.240450
20
65.454038
11
78.549060
21
63.135488
0
LINE
8
SILK
10
78.549060
20
63.135488
11
78.054350
21
60.846738
0
LINE
8
SILK
10
78.054350
20
60.846738
11
77.756340
21
58.593748
0
LINE
8
SILK
10
77.756340
20
58.593748
11
77.655020
21
56.334808
0
LINE
8
SILK
10
77.655020
20
56.334808
11
77.756340
21
54.093738
0
LINE
8
SILK
10
77.756340
20
54.093738
11
77.756340
21
54.087738
0
LINE
8
SILK
10
77.756340
20
54.087738
11
78.054350
21
51.882430
0
LINE
8
SILK
10
78.054350
20
51.882430
11
78.549060
21
49.730770
0
LINE
8
SILK
10
78.549060
20
49.730770
11
78.549060
21
49.724770
0
LINE
8
SILK
10
78.549060
20
49.724770
11
79.240450
21
47.644630
0
LINE
8
SILK
10
79.240450
20
47.644630
11
80.122570
21
45.653900
0
LINE
8
SILK
10
80.122570
20
45.653900
11
81.177540
21
43.776400
0
LINE
8
SILK
10
81.177540
20
43.776400
11
82.411320
21
42.030040
0
LINE
8
SILK
10
82.411320
20
42.030040
11
83.811990
21
40.438650
0
LINE
8
SILK
10
83.811990
20
40.438650
11
83.811990
21
40.432650
0
LINE
8
SILK
10
83.811990
20
40.432650
11
85.361660
21
39.008130
0
LINE
8
SILK
10
85.361660
20
39.008130
11
87.054380
21
37.810120
0
LINE
8
SILK
10
87.054380
20
37.810120
11
88.878230
21
36.814750
0
LINE
8
SILK
10
88.878230
20
36.814750
11
90.815320
21
36.022030
0
LINE
8
SILK
10
90.815320
20
36.022030
11
92.847780
21
35.449840
0
LINE
8
SILK
10
92.847780
20
35.449840
11
94.969640
21
35.098170
0
LINE
8
SILK
10
94.969640
20
35.098170
11
97.163020
21
34.967030
0
LINE
8
SILK
10
97.163020
20
34.967030
11
99.404090
21
35.057030
0
LINE
8
SILK
10
99.404090
20
35.057030
11
101.680910
21
35.372940
0
LINE
8
SILK
10
101.680910
20
35.372940
11
103.975620
21
35.903380
0
LINE
8
SILK
10
103.975620
20
35.903380
11
107.200140
21
36.809370
0
LINE
8
SILK
10
107.200140
20
36.809370
11
110.430610
21
37.715350
0
LINE
8
SILK
10
110.430610
20
37.715350
11
113.661080
21
38.615340
0
LINE
8
SILK
10
113.661080
20
38.615340
11
116.885590
21
39.497450
0
LINE
8
SILK
10
116.885590
20
39.497450
11
120.116070
21
40.349800
0
LINE
8
SILK
10
120.116070
20
40.349800
11
123.346540
21
41.160400
0
LINE
8
SILK
10
123.346540
20
41.160400
11
126.571050
21
41.917360
0
LINE
8
SILK
10
126.571050
20
41.917360
11
129.801530
21
42.614700
0
LINE
8
SILK
10
129.801530
20
42.614700
11
133.026040
21
43.234530
0
LINE
8
SILK
10
133.026040
20
43.234530
11
136.256510
21
43.764970
0
LINE
8
SILK
10
136.256510
20
43.764970
11
139.486990
21
44.200030
0
LINE
8
SILK
10
139.486990
20
44.200030
11
142.711500
21
44.527820
0
LINE
8
SILK
10
142.711500
20
44.527820
11
145.941970
21
44.730470
0
LINE
8
SILK
10
145.941970
20
44.730470
11
149.172440
21
44.796170
0
LINE
8
SILK
10
149.172440
20
44.796170
11
152.396960
21
44.796170
0
LINE
8
SILK
10
152.396960
20
44.796170
11
155.627430
21
44.796170
0
LINE
8
SILK
10
155.627430
20
44.796170
11
158.857900
21
44.730470
0
LINE
8
SILK
10
158.857900
20
44.730470
11
162.082410
21
44.527820
0
LINE
8
SILK
10
162.082410
20
44.527820
11
165.312890
21
44.200030
0
LINE
8
SILK
10
165.312890
20
44.200030
11
168.543360
21
43.764970
0
LINE
8
SILK
10
168.543360
20
43.764970
11
171.767870
21
43.234530
0
LINE
8
SILK
10
171.767870
20
43.234530
11
174.998350
21
42.614700
0
LINE
8
SILK
10
174.998350
20
42.614700
11
178.228820
21
41.917360
0
LINE
8
SILK
10
178.228820
20
41.917360
11
181.453330
21
41.160400
0
LINE
8
SILK
10
181.453330
20
41.160400
11
184.683810
21
40.349800
0
LINE
8
SILK
10
184.683810
20
40.349800
11
187.908310
21
39.497450
0
LINE
8
SILK
10
187.908310
20
39.497450
11
191.138780
21
38.615340
0
LINE
8
SILK
10
191.138780
20
38.615340
11
194.369270
21
37.715350
0
LINE
8
SILK
10
194.369270
20
37.715350
11
197.593770
21
36.809370
0
LINE
8
SILK
10
197.593770
20
36.809370
11
200.824240
21
35.903380
0
LINE
8
SILK
10
200.824240
20
35.903380
11
203.118960
21
35.372940
0
LINE
8
SILK
10
203.118960
20
35.372940
11
205.395790
21
35.057030
0
LINE
8
SILK
10
205.395790
20
35.057030
11
205.395790
21
35.062030
0
LINE
8
SILK
10
205.395790
20
35.062030
11
207.636840
21
34.966330
0
LINE
8
SILK
10
207.636840
20
34.966330
11
209.824280
21
35.097470
0
LINE
8
SILK
10
209.824280
20
35.097470
11
211.946140
21
35.449140
0
LINE
8
SILK
10
211.946140
20
35.449140
11
213.984550
21
36.021330
0
LINE
8
SILK
10
213.984550
20
36.021330
11
215.921640
21
36.814050
0
LINE
8
SILK
10
215.921640
20
36.814050
11
217.745490
21
37.809430
0
LINE
8
SILK
10
217.745490
20
37.809430
11
219.438200
21
39.007430
0
LINE
8
SILK
10
219.438200
20
39.007430
11
220.987880
21
40.431940
0
LINE
8
SILK
10
220.987880
20
40.431940
11
220.987880
21
40.437940
0
LINE
8
SILK
10
220.987880
20
40.437940
11
222.382590
21
42.029340
0
LINE
8
SILK
10
222.382590
20
42.029340
11
223.616360
21
43.775700
0
LINE
8
SILK
10
223.616360
20
43.775700
11
224.677240
21
45.653190
0
LINE
8
SILK
10
224.677240
20
45.653190
11
225.559360
21
47.643920
0
LINE
8
SILK
10
225.559360
20
47.643920
11
226.244810
21
49.724070
0
LINE
8
SILK
10
226.244810
20
49.724070
11
226.244810
21
49.730070
0
LINE
8
SILK
10
226.244810
20
49.730070
11
226.745490
21
51.881730
0
LINE
8
SILK
10
226.745490
20
51.881730
11
227.043530
21
54.087038
0
LINE
8
SILK
10
227.043530
20
54.087038
11
227.043530
21
54.093038
0
LINE
8
SILK
10
227.043530
20
54.093038
11
227.144980
21
56.334098
0
LINE
8
SILK
10
227.144980
20
56.334098
11
227.043530
21
58.593048
0
LINE
8
SILK
10
227.043530
20
58.593048
11
226.745490
21
60.846038
0
LINE
8
SILK
10
226.745490
20
60.846038
11
226.244810
21
63.134788
0
LINE
8
SILK
10
226.244810
20
63.134788
11
225.559360
21
65.453338
0
LINE
8
SILK
10
225.559360
20
65.453338
11
225.112300
21
66.657308
0
LINE
8
SILK
10
225.112300
20
66.657308
11
225.559360
21
67.634788
0
LINE
8
SILK
10
225.559360
20
67.634788
11
226.244810
21
69.714928
0
LINE
8
SILK
10
226.244810
20
69.714928
11
226.745490
21
71.866598
0
LINE
8
SILK
10
226.745490
20
71.866598
11
227.043530
21
74.077858
0
LINE
8
SILK
10
227.043530
20
74.077858
11
227.144980
21
76.318928
0
LINE
8
SILK
10
227.144980
20
76.318928
11
227.043530
21
78.577868
0
LINE
8
SILK
10
227.043530
20
78.577868
11
226.745490
21
80.830858
0
LINE
8
SILK
10
226.745490
20
80.830858
11
226.745490
21
80.836858
0
LINE
8
SILK
10
226.745490
20
80.836858
11
226.244850
21
83.125605
0
LINE
8
SILK
10
226.244850
20
83.125605
11
225.559410
21
85.444155
0
LINE
8
SILK
10
225.559410
20
85.444155
11
224.677290
21
87.720983
0
LINE
8
SILK
10
224.677290
20
87.720983
11
223.616360
21
89.956089
0
LINE
8
SILK
10
223.616360
20
89.956089
11
222.382590
21
92.119673
0
LINE
8
SILK
10
222.382590
20
92.119673
11
220.987880
21
94.211731
0
LINE
8
SILK
10
220.987880
20
94.211731
11
219.438200
21
96.220346
0
LINE
8
SILK
10
219.438200
20
96.220346
11
217.739530
21
98.127636
0
LINE
8
SILK
10
217.739530
20
98.127636
11
215.921640
21
99.927641
0
LINE
8
SILK
10
215.921640
20
99.927641
11
213.984550
21
101.602481
0
LINE
8
SILK
10
213.984550
20
101.602481
11
211.946140
21
103.146195
0
LINE
8
SILK
10
211.946140
20
103.146195
11
209.883880
21
104.546860
0
LINE
8
SILK
10
209.883880
20
104.546860
11
209.877880
21
104.546860
0
LINE
8
SILK
10
209.877880
20
104.546860
11
207.905530
21
105.792439
0
LINE
8
SILK
10
207.905530
20
105.792439
11
206.010160
21
106.859332
0
LINE
8
SILK
10
206.010160
20
106.859332
11
204.174400
21
107.717611
0
LINE
8
SILK
10
204.174400
20
107.717611
11
202.373910
21
108.456720
0
LINE
8
SILK
10
202.373910
20
108.456720
11
199.882530
21
109.326926
0
LINE
8
SILK
10
199.882530
20
109.326926
11
198.553370
21
109.785869
0
LINE
8
SILK
10
198.553370
20
109.785869
11
198.142080
21
109.928912
0
LINE
8
SILK
10
198.142080
20
109.928912
11
197.373240
21
110.197121
0
LINE
8
SILK
10
197.373240
20
110.197121
11
194.756670
21
111.067326
0
LINE
8
SILK
10
194.756670
20
111.067326
11
191.961300
21
111.925606
0
LINE
8
SILK
10
191.961300
20
111.925606
11
188.891750
21
112.771972
0
LINE
8
SILK
10
188.891750
20
112.771972
11
186.239430
21
113.409725
0
LINE
8
SILK
10
186.239430
20
113.409725
11
185.500350
21
113.588534
0
LINE
8
SILK
10
185.500350
20
113.588534
11
181.852660
21
114.369329
0
LINE
8
SILK
10
181.852660
20
114.369329
11
178.020200
21
115.096481
0
LINE
8
SILK
10
178.020200
20
115.096481
11
174.092370
21
115.752111
0
LINE
8
SILK
10
174.092370
20
115.752111
11
170.134750
21
116.324294
0
LINE
8
SILK
10
170.134750
20
116.324294
11
166.713540
21
116.735556
0
LINE
8
SILK
10
166.713540
20
116.735556
11
166.248650
21
116.789186
0
LINE
8
SILK
10
166.248650
20
116.789186
11
162.487700
21
117.140841
0
LINE
8
SILK
10
162.487700
20
117.140841
11
158.929410
21
117.361369
0
LINE
8
SILK
10
158.929410
20
117.361369
11
155.627420
21
117.432879
0
LINE
8
SILK
10
155.627420
20
117.432879
11
152.396960
21
117.432879
0
LINE
8
SILK
10
152.396960
20
117.432879
11
149.172440
21
117.433742
0
LINE
8
acrylic
10
90.174646
20
55.599700
11
84.985890
21
54.577000
0
LINE
8
acrylic
10
84.985890
20
54.577000
11
79.797133
21
53.547250
0
LINE
8
acrylic
10
79.797133
20
53.547250
11
74.617508
21
52.523961
0
LINE
8
acrylic
10
74.617508
20
52.523961
11
73.545890
21
52.348910
0
LINE
8
acrylic
10
73.545890
20
52.348910
11
74.805104
21
51.869574
0
LINE
8
acrylic
10
74.805104
20
51.869574
11
75.867591
21
51.233984
0
LINE
8
acrylic
10
75.867591
20
51.233984
11
76.601371
21
50.459175
0
LINE
8
acrylic
10
76.601371
20
50.459175
11
77.028856
21
49.642072
0
LINE
8
acrylic
10
77.028856
20
49.642072
11
77.169967
21
48.866675
0
LINE
8
acrylic
10
77.169967
20
48.866675
11
77.089444
21
48.143559
0
LINE
8
acrylic
10
77.089444
20
48.143559
11
76.838764
21
47.462150
0
LINE
8
acrylic
10
76.838764
20
47.462150
11
76.449462
21
46.828910
0
LINE
8
acrylic
10
76.449462
20
46.828910
11
75.965532
21
46.248537
0
LINE
8
acrylic
10
75.965532
20
46.248537
11
75.491564
21
45.698124
0
LINE
8
acrylic
10
75.491564
20
45.698124
11
75.250843
21
45.178256
0
LINE
8
acrylic
10
75.250843
20
45.178256
11
75.241688
21
44.688346
0
LINE
8
acrylic
10
75.241688
20
44.688346
11
75.401882
21
44.234857
0
LINE
8
acrylic
10
75.401882
20
44.234857
11
75.679955
21
43.847745
0
LINE
8
acrylic
10
75.679955
20
43.847745
11
76.019453
21
43.567546
0
LINE
8
acrylic
10
76.019453
20
43.567546
11
76.391323
21
43.394844
0
LINE
8
acrylic
10
76.391323
20
43.394844
11
76.815489
21
43.306736
0
LINE
8
acrylic
10
76.815489
20
43.306736
11
77.302739
21
43.272077
0
LINE
8
acrylic
10
77.302739
20
43.272077
11
77.885446
21
43.273214
0
LINE
8
acrylic
10
77.885446
20
43.273214
11
78.595155
21
43.310805
0
LINE
8
acrylic
10
78.595155
20
43.310805
11
79.451784
21
43.384818
0
LINE
8
acrylic
10
79.451784
20
43.384818
11
80.415495
21
43.488794
0
LINE
8
acrylic
10
80.415495
20
43.488794
11
81.431497
21
43.610392
0
LINE
8
acrylic
10
81.431497
20
43.610392
11
82.574502
21
43.720825
0
LINE
8
acrylic
10
82.574502
20
43.720825
11
83.771460
21
43.812468
0
LINE
8
acrylic
10
83.771460
20
43.812468
11
84.978379
21
43.899405
0
LINE
8
acrylic
10
84.978379
20
43.899405
11
86.089841
21
44.033337
0
LINE
8
acrylic
10
86.089841
20
44.033337
11
87.126595
21
44.226598
0
LINE
8
acrylic
10
87.126595
20
44.226598
11
88.088644
21
44.503861
0
LINE
8
acrylic
10
88.088644
20
44.503861
11
88.923693
21
44.840454
0
LINE
8
acrylic
10
88.923693
20
44.840454
11
89.620950
21
45.199956
0
LINE
8
acrylic
10
89.620950
20
45.199956
11
90.222749
21
45.631711
0
LINE
8
acrylic
10
90.222749
20
45.631711
11
90.749844
21
46.182125
0
LINE
8
acrylic
10
90.749844
20
46.182125
11
91.159897
21
46.774245
0
LINE
8
acrylic
10
91.159897
20
46.774245
11
91.422199
21
47.336408
0
LINE
8
acrylic
10
91.422199
20
47.336408
11
91.567455
21
47.927355
0
LINE
8
acrylic
10
91.567455
20
47.927355
11
91.681179
21
48.620512
0
LINE
8
acrylic
10
91.681179
20
48.620512
11
91.761702
21
49.396495
0
LINE
8
acrylic
10
91.761702
20
49.396495
11
91.820637
21
50.227109
0
LINE
8
acrylic
10
91.820637
20
50.227109
11
91.880406
21
51.092969
0
LINE
8
acrylic
10
91.880406
20
51.092969
11
91.918588
21
51.976450
0
LINE
8
acrylic
10
91.918588
20
51.976450
11
91.936016
21
52.836436
0
LINE
8
acrylic
10
91.936016
20
52.836436
11
91.936016
21
52.884019
0
LINE
8
acrylic
10
91.936016
20
52.884019
11
91.812635
21
54.408792
0
LINE
8
acrylic
10
91.812635
20
54.408792
11
91.865468
21
55.926862
0
LINE
8
acrylic
10
91.865468
20
55.926862
11
90.174646
21
55.599700
0
LINE
8
acrylic
10
142.027331
20
62.558198
11
136.837744
21
62.327929
0
LINE
8
acrylic
10
136.837744
20
62.327929
11
131.658949
21
61.954917
0
LINE
8
acrylic
10
131.658949
20
61.954917
11
126.469362
21
61.460307
0
LINE
8
acrylic
10
126.469362
20
61.460307
11
121.280605
21
60.857613
0
LINE
8
acrylic
10
121.280605
20
60.857613
11
116.100980
21
60.152707
0
LINE
8
acrylic
10
116.100980
20
60.152707
11
110.912224
21
59.360276
0
LINE
8
acrylic
10
110.912224
20
59.360276
11
107.226720
21
58.748182
0
LINE
8
acrylic
10
107.226720
20
58.748182
11
108.124022
21
58.735291
0
LINE
8
acrylic
10
108.124022
20
58.735291
11
109.652372
21
58.857084
0
LINE
8
acrylic
10
109.652372
20
58.857084
11
110.979456
21
59.001975
0
LINE
8
acrylic
10
110.979456
20
59.001975
11
112.747501
21
59.167041
0
LINE
8
acrylic
10
112.747501
20
59.167041
11
114.516377
21
59.296861
0
LINE
8
acrylic
10
114.516377
20
59.296861
11
116.168213
21
59.330349
0
LINE
8
acrylic
10
116.168213
20
59.330349
11
117.921317
21
59.094205
0
LINE
8
acrylic
10
117.921317
20
59.094205
11
120.594545
21
58.032437
0
LINE
8
acrylic
10
120.594545
20
58.032437
11
122.384594
21
57.048803
0
LINE
8
acrylic
10
122.384594
20
57.048803
11
123.019344
21
56.433483
0
LINE
8
acrylic
10
123.019344
20
56.433483
11
123.453721
21
55.599634
0
LINE
8
acrylic
10
123.453721
20
55.599634
11
123.598977
21
54.713803
0
LINE
8
acrylic
10
123.598977
20
54.713803
11
123.889500
21
53.755718
0
LINE
8
acrylic
10
123.889500
20
53.755718
11
124.282123
21
52.812908
0
LINE
8
acrylic
10
124.282123
20
52.812908
11
124.515069
21
52.314730
0
LINE
8
acrylic
10
124.515069
20
52.314730
11
124.919615
21
51.828976
0
LINE
8
acrylic
10
124.919615
20
51.828976
11
125.865063
21
51.233330
0
LINE
8
acrylic
10
125.865063
20
51.233330
11
126.576432
21
50.793352
0
LINE
8
acrylic
10
126.576432
20
50.793352
11
127.181551
21
50.413290
0
LINE
8
acrylic
10
127.181551
20
50.413290
11
127.850586
21
50.080222
0
LINE
8
acrylic
10
127.850586
20
50.080222
11
128.688955
21
49.807658
0
LINE
8
acrylic
10
128.688955
20
49.807658
11
129.716579
21
49.589138
0
LINE
8
acrylic
10
129.716579
20
49.589138
11
130.840492
21
49.406449
0
LINE
8
acrylic
10
130.840492
20
49.406449
11
131.952783
21
49.301893
0
LINE
8
acrylic
10
131.952783
20
49.301893
11
133.075865
21
49.310760
0
LINE
8
acrylic
10
133.075865
20
49.310760
11
134.292746
21
49.480524
0
LINE
8
acrylic
10
134.292746
20
49.480524
11
135.635795
21
49.830039
0
LINE
8
acrylic
10
135.635795
20
49.830039
11
137.073473
21
50.394552
0
LINE
8
acrylic
10
137.073473
20
50.394552
11
138.477948
21
51.216354
0
LINE
8
acrylic
10
138.477948
20
51.216354
11
139.690678
21
52.299559
0
LINE
8
acrylic
10
139.690678
20
52.299559
11
140.680950
21
53.561929
0
LINE
8
acrylic
10
140.680950
20
53.561929
11
141.426351
21
54.907123
0
LINE
8
acrylic
10
141.426351
20
54.907123
11
141.970046
21
56.197689
0
LINE
8
acrylic
10
141.970046
20
56.197689
11
142.325315
21
57.333175
0
LINE
8
acrylic
10
142.325315
20
57.333175
11
142.638250
21
58.318868
0
LINE
8
acrylic
10
142.638250
20
58.318868
11
143.046644
21
59.197651
0
LINE
8
acrylic
10
143.046644
20
59.197651
11
143.763824
21
59.963649
0
LINE
8
acrylic
10
143.763824
20
59.963649
11
144.956631
21
60.575741
0
LINE
8
acrylic
10
144.956631
20
60.575741
11
146.745428
21
61.045678
0
LINE
8
acrylic
10
146.745428
20
61.045678
11
149.136855
21
61.385796
0
LINE
8
acrylic
10
149.136855
20
61.385796
11
151.878570
21
61.583169
0
LINE
8
acrylic
10
151.878570
20
61.583169
11
154.684200
21
61.649543
0
LINE
8
acrylic
10
154.684200
20
61.649543
11
154.832781
21
61.644200
0
LINE
8
acrylic
10
154.832781
20
61.644200
11
160.467284
21
61.567835
0
LINE
8
acrylic
10
160.467284
20
61.567835
11
163.084489
21
61.460925
0
LINE
8
acrylic
10
163.084489
20
61.460925
11
165.414491
21
61.257677
0
LINE
8
acrylic
10
165.414491
20
61.257677
11
167.513732
21
60.946344
0
LINE
8
acrylic
10
167.513732
20
60.946344
11
168.807809
21
60.679068
0
LINE
8
acrylic
10
168.807809
20
60.679068
11
173.821422
21
58.069740
0
LINE
8
acrylic
10
173.821422
20
58.069740
11
174.105305
21
57.665595
0
LINE
8
acrylic
10
174.105305
20
57.665595
11
174.575124
21
56.998284
0
LINE
8
acrylic
10
174.575124
20
56.998284
11
175.150360
21
56.246972
0
LINE
8
acrylic
10
175.150360
20
56.246972
11
175.726428
21
55.395210
0
LINE
8
acrylic
10
175.726428
20
55.395210
11
176.270122
21
54.452987
0
LINE
8
acrylic
10
176.270122
20
54.452987
11
176.740771
21
53.570679
0
LINE
8
acrylic
10
176.740771
20
53.570679
11
177.094380
21
52.836403
0
LINE
8
acrylic
10
177.094380
20
52.836403
11
177.394034
21
52.162630
0
LINE
8
acrylic
10
177.394034
20
52.162630
11
177.715271
21
51.441277
0
LINE
8
acrylic
10
177.715271
20
51.441277
11
178.227424
21
50.708175
0
LINE
8
acrylic
10
178.227424
20
50.708175
11
179.077413
21
50.029115
0
LINE
8
acrylic
10
179.077413
20
50.029115
11
180.362358
21
49.476939
0
LINE
8
acrylic
10
180.362358
20
49.476939
11
182.121273
21
49.105689
0
LINE
8
acrylic
10
182.121273
20
49.105689
11
184.124227
21
48.877182
0
LINE
8
acrylic
10
184.124227
20
48.877182
11
186.157895
21
48.750886
0
LINE
8
acrylic
10
186.157895
20
48.750886
11
188.244685
21
48.713874
0
LINE
8
acrylic
10
188.244685
20
48.713874
11
190.436896
21
48.790239
0
LINE
8
acrylic
10
190.436896
20
48.790239
11
192.468903
21
49.004648
0
LINE
8
acrylic
10
192.468903
20
49.004648
11
193.885825
21
49.419956
0
LINE
8
acrylic
10
193.885825
20
49.419956
11
194.857833
21
50.007377
0
LINE
8
acrylic
10
194.857833
20
50.007377
11
195.701195
21
50.767501
0
LINE
8
acrylic
10
195.701195
20
50.767501
11
196.459873
21
51.676829
0
LINE
8
acrylic
10
196.459873
20
51.676829
11
197.153802
21
52.693656
0
LINE
8
acrylic
10
197.153802
20
52.693656
11
197.794627
21
53.692273
0
LINE
8
acrylic
10
197.794627
20
53.692273
11
198.426297
21
54.559307
0
LINE
8
acrylic
10
198.426297
20
54.559307
11
199.121896
21
55.283597
0
LINE
8
acrylic
10
199.121896
20
55.283597
11
199.922916
21
55.882767
0
LINE
8
acrylic
10
199.922916
20
55.882767
11
200.906554
21
56.386188
0
LINE
8
acrylic
10
200.906554
20
56.386188
11
202.110975
21
56.819117
0
LINE
8
acrylic
10
202.110975
20
56.819117
11
203.507153
21
57.115177
0
LINE
8
acrylic
10
203.507153
20
57.115177
11
204.968900
21
57.267907
0
LINE
8
acrylic
10
204.968900
20
57.267907
11
205.886118
21
57.266770
0
LINE
8
acrylic
10
205.886118
20
57.266770
11
204.257527
21
57.571641
0
LINE
8
acrylic
10
204.257527
20
57.571641
11
199.067941
21
58.499768
0
LINE
8
acrylic
10
199.067941
20
58.499768
11
193.889150
21
59.360341
0
LINE
8
acrylic
10
193.889150
20
59.360341
11
188.699563
21
60.152772
0
LINE
8
acrylic
10
188.699563
20
60.152772
11
183.510808
21
60.857678
0
LINE
8
acrylic
10
183.510808
20
60.857678
11
178.331181
21
61.460372
0
LINE
8
acrylic
10
178.331181
20
61.460372
11
173.142425
21
61.954981
0
LINE
8
acrylic
10
173.142425
20
61.954981
11
167.952839
21
62.327994
0
LINE
8
acrylic
10
167.952839
20
62.327994
11
162.774043
21
62.558263
0
LINE
8
acrylic
10
162.774043
20
62.558263
11
157.584458
21
62.639323
0
LINE
8
acrylic
10
157.584458
20
62.639323
11
152.395701
21
62.639323
0
LINE
8
acrylic
10
152.395701
20
62.639323
11
147.216075
21
62.639323
0
LINE
8
acrylic
10
147.216075
20
62.639323
11
142.027331
21
62.558198
0
LINE
8
acrylic
10
148.720989
20
118.249346
11
147.906691
21
118.240536
0
LINE
8
acrylic
10
147.906691
20
118.240536
11
139.570838
21
118.053114
0
LINE
8
acrylic
10
139.570838
20
118.053114
11
131.390169
21
117.635547
0
LINE
8
acrylic
10
131.390169
20
117.635547
11
123.328253
21
116.992959
0
LINE
8
acrylic
10
123.328253
20
116.992959
11
115.348662
21
116.130477
0
LINE
8
acrylic
10
115.348662
20
116.130477
11
107.414965
21
115.053223
0
LINE
8
acrylic
10
107.414965
20
115.053223
11
99.490732
21
113.766323
0
LINE
8
acrylic
10
99.490732
20
113.766323
11
91.539535
21
112.274902
0
LINE
8
acrylic
10
91.539535
20
112.274902
11
83.524943
21
110.584084
0
LINE
8
acrylic
10
83.524943
20
110.584084
11
74.367579
21
108.258957
0
LINE
8
acrylic
10
74.367579
20
108.258957
11
69.928917
21
106.874949
0
LINE
8
acrylic
10
69.928917
20
106.874949
11
65.661045
21
105.289655
0
LINE
8
acrylic
10
65.661045
20
105.289655
11
62.701995
21
103.992729
0
LINE
8
acrylic
10
62.701995
20
103.992729
11
59.869659
21
102.549921
0
LINE
8
acrylic
10
59.869659
20
102.549921
11
54.805413
21
99.580504
0
LINE
8
acrylic
10
54.805413
20
99.580504
11
52.435693
21
98.004767
0
LINE
8
acrylic
10
52.435693
20
98.004767
11
50.237442
21
96.368515
0
LINE
8
acrylic
10
50.237442
20
96.368515
11
48.210673
21
94.664240
0
LINE
8
acrylic
10
48.210673
20
94.664240
11
46.355396
21
92.884433
0
LINE
8
acrylic
10
46.355396
20
92.884433
11
44.671622
21
91.021586
0
LINE
8
acrylic
10
44.671622
20
91.021586
11
43.159362
21
89.068191
0
LINE
8
acrylic
10
43.159362
20
89.068191
11
41.818628
21
87.016739
0
LINE
8
acrylic
10
41.818628
20
87.016739
11
40.649430
21
84.859721
0
LINE
8
acrylic
10
40.649430
20
84.859721
11
39.858963
21
83.055090
0
LINE
8
acrylic
10
39.858963
20
83.055090
11
39.225149
21
81.193473
0
LINE
8
acrylic
10
39.225149
20
81.193473
11
38.762486
21
79.290209
0
LINE
8
acrylic
10
38.762486
20
79.290209
11
38.485471
21
77.360636
0
LINE
8
acrylic
10
38.485471
20
77.360636
11
38.408604
21
75.420093
0
LINE
8
acrylic
10
38.408604
20
75.420093
11
38.546380
21
73.483920
0
LINE
8
acrylic
10
38.546380
20
73.483920
11
38.913299
21
71.567455
0
LINE
8
acrylic
10
38.913299
20
71.567455
11
39.523858
21
69.686037
0
LINE
8
acrylic
10
39.523858
20
69.686037
11
40.302228
21
68.077719
0
LINE
8
acrylic
10
40.302228
20
68.077719
11
41.420564
21
66.241853
0
LINE
8
acrylic
10
41.420564
20
66.241853
11
42.869267
21
64.422503
0
LINE
8
acrylic
10
42.869267
20
64.422503
11
44.638738
21
62.863733
0
LINE
8
acrylic
10
44.638738
20
62.863733
11
47.888393
21
60.291673
0
LINE
8
acrylic
10
47.888393
20
60.291673
11
51.569807
21
58.040415
0
LINE
8
acrylic
10
51.569807
20
58.040415
11
53.528033
21
57.254834
0
LINE
8
acrylic
10
53.528033
20
57.254834
11
55.591206
21
56.641690
0
LINE
8
acrylic
10
55.591206
20
56.641690
11
57.735047
21
56.191044
0
LINE
8
acrylic
10
57.735047
20
56.191044
11
59.935276
21
55.892953
0
LINE
8
acrylic
10
59.935276
20
55.892953
11
64.407778
21
55.714673
0
LINE
8
acrylic
10
64.407778
20
55.714673
11
68.814475
21
56.027322
0
LINE
8
acrylic
10
68.814475
20
56.027322
11
75.142855
21
56.990706
0
LINE
8
acrylic
10
75.142855
20
56.990706
11
82.059266
21
58.283897
0
LINE
8
acrylic
10
82.059266
20
58.283897
11
89.914808
21
59.904891
0
LINE
8
acrylic
10
89.914808
20
59.904891
11
96.510529
21
61.179008
0
LINE
8
acrylic
10
96.510529
20
61.179008
11
106.867098
21
62.993789
0
LINE
8
acrylic
10
106.867098
20
62.993789
11
117.302078
21
64.564319
0
LINE
8
acrylic
10
117.302078
20
64.564319
11
124.233554
21
65.422337
0
LINE
8
acrylic
10
124.233554
20
65.422337
11
131.201099
21
66.098238
0
LINE
8
acrylic
10
131.201099
20
66.098238
11
138.205195
21
66.562440
0
LINE
8
acrylic
10
138.205195
20
66.562440
11
145.246324
21
66.785360
0
LINE
8
acrylic
10
145.246324
20
66.785360
11
155.122348
21
66.841410
0
LINE
8
acrylic
10
155.122348
20
66.841410
11
164.996646
21
66.612306
0
LINE
8
acrylic
10
164.996646
20
66.612306
11
174.833752
21
66.015359
0
LINE
8
acrylic
10
174.833752
20
66.015359
11
184.598197
21
64.967877
0
LINE
8
acrylic
10
184.598197
20
64.967877
11
196.581172
21
63.221298
0
LINE
8
acrylic
10
196.581172
20
63.221298
11
208.449372
21
61.126140
0
LINE
8
acrylic
10
208.449372
20
61.126140
11
210.364346
21
60.777212
0
LINE
8
acrylic
10
210.364346
20
60.777212
11
217.653179
21
59.354477
0
LINE
8
acrylic
10
217.653179
20
59.354477
11
225.645460
21
57.804219
0
LINE
8
acrylic
10
225.645460
20
57.804219
11
233.678473
21
56.366852
0
LINE
8
acrylic
10
233.678473
20
56.366852
11
238.471793
21
55.790625
0
LINE
8
acrylic
10
238.471793
20
55.790625
11
240.910815
21
55.703331
0
LINE
8
acrylic
10
240.910815
20
55.703331
11
243.345624
21
55.766969
0
LINE
8
acrylic
10
243.345624
20
55.766969
11
245.751876
21
55.994330
0
LINE
8
acrylic
10
245.751876
20
55.994330
11
248.105230
21
56.398203
0
LINE
8
acrylic
10
248.105230
20
56.398203
11
250.381344
21
56.991380
0
LINE
8
acrylic
10
250.381344
20
56.991380
11
252.555877
21
57.786649
0
LINE
8
acrylic
10
252.555877
20
57.786649
11
254.965141
21
58.974917
0
LINE
8
acrylic
10
254.965141
20
58.974917
11
257.117118
21
60.385148
0
LINE
8
acrylic
10
257.117118
20
60.385148
11
260.955340
21
63.536918
0
LINE
8
acrylic
10
260.955340
20
63.536918
11
262.971166
21
65.667211
0
LINE
8
acrylic
10
262.971166
20
65.667211
11
264.548168
21
67.970827
0
LINE
8
acrylic
10
264.548168
20
67.970827
11
265.646284
21
70.408056
0
LINE
8
acrylic
10
265.646284
20
70.408056
11
266.225448
21
72.939187
0
LINE
8
acrylic
10
266.225448
20
72.939187
11
266.431729
21
75.926178
0
LINE
8
acrylic
10
266.431729
20
75.926178
11
266.146009
21
78.893256
0
LINE
8
acrylic
10
266.146009
20
78.893256
11
265.403970
21
81.818841
0
LINE
8
acrylic
10
265.403970
20
81.818841
11
264.241291
21
84.681355
0
LINE
8
acrylic
10
264.241291
20
84.681355
11
262.693652
21
87.459218
0
LINE
8
acrylic
10
262.693652
20
87.459218
11
260.796736
21
90.130853
0
LINE
8
acrylic
10
260.796736
20
90.130853
11
258.586221
21
92.674679
0
LINE
8
acrylic
10
258.586221
20
92.674679
11
256.097788
21
95.069117
0
LINE
8
acrylic
10
256.097788
20
95.069117
11
252.963466
21
97.627283
0
LINE
8
acrylic
10
252.963466
20
97.627283
11
249.547130
21
99.982427
0
LINE
8
acrylic
10
249.547130
20
99.982427
11
245.868576
21
102.125747
0
LINE
8
acrylic
10
245.868576
20
102.125747
11
241.947602
21
104.048443
0
LINE
8
acrylic
10
241.947602
20
104.048443
11
235.289636
21
106.769379
0
LINE
8
acrylic
10
235.289636
20
106.769379
11
232.813830
21
107.694145
0
LINE
8
acrylic
10
232.813830
20
107.694145
11
230.371042
21
108.425929
0
LINE
8
acrylic
10
230.371042
20
108.425929
11
225.204302
21
109.673592
0
LINE
8
acrylic
10
225.204302
20
109.673592
11
213.542323
21
112.241228
0
LINE
8
acrylic
10
213.542323
20
112.241228
11
201.705997
21
114.338161
0
LINE
8
acrylic
10
201.705997
20
114.338161
11
189.736812
21
115.986374
0
LINE
8
acrylic
10
189.736812
20
115.986374
11
177.676258
21
117.207849
0
LINE
8
acrylic
10
177.676258
20
117.207849
11
166.594916
21
117.917018
0
LINE
8
acrylic
10
166.594916
20
117.917018
11
155.491025
21
118.219977
0
LINE
8
acrylic
10
155.491025
20
118.219977
11
148.720989
21
118.249347
0
LINE
8
acrylic
10
148.720989
20
118.249347
11
148.720989
21
118.249346
0
LINE
8
acrylic
10
152.395701
20
122.471146
11
157.584458
21
122.471146
0
LINE
8
acrylic
10
157.584458
20
122.471146
11
162.888593
21
122.390082
0
LINE
8
acrylic
10
162.888593
20
122.390082
11
168.604443
21
122.139253
0
LINE
8
acrylic
10
168.604443
20
122.139253
11
174.645680
21
121.739806
0
LINE
8
acrylic
10
174.645680
20
121.739806
11
175.391911
21
121.678714
0
LINE
8
acrylic
10
175.391911
20
121.678714
11
180.887791
21
121.211127
0
LINE
8
acrylic
10
180.887791
20
121.211127
11
187.244453
21
120.560851
0
LINE
8
acrylic
10
187.244453
20
120.560851
11
193.553807
21
119.815413
0
LINE
8
acrylic
10
193.553807
20
119.815413
11
199.709586
21
118.988911
0
LINE
8
acrylic
10
199.709586
20
118.988911
11
205.569038
21
118.101317
0
LINE
8
acrylic
10
205.569038
20
118.101317
11
206.756031
21
117.898069
0
LINE
8
acrylic
10
206.756031
20
117.898069
11
211.016769
21
117.173191
0
LINE
8
acrylic
10
211.016769
20
117.173191
11
215.947374
21
116.210995
0
LINE
8
acrylic
10
215.947374
20
116.210995
11
220.437216
21
115.235288
0
LINE
8
acrylic
10
220.437216
20
115.235288
11
224.639855
21
114.246070
0
LINE
8
acrylic
10
224.639855
20
114.246070
11
225.875004
21
113.941198
0
LINE
8
acrylic
10
225.875004
20
113.941198
11
226.535731
21
113.778482
0
LINE
8
acrylic
10
226.535731
20
113.778482
11
228.670670
21
113.256852
0
LINE
8
acrylic
10
228.670670
20
113.256852
11
232.672427
21
112.267634
0
LINE
8
acrylic
10
232.672427
20
112.267634
11
235.564390
21
111.427621
0
LINE
8
acrylic
10
235.564390
20
111.427621
11
238.512781
21
110.451914
0
LINE
8
acrylic
10
238.512781
20
110.451914
11
241.557469
21
109.239477
0
LINE
8
acrylic
10
241.557469
20
109.239477
11
244.726322
21
107.823149
0
LINE
8
acrylic
10
244.726322
20
107.823149
11
244.735960
21
107.823149
0
LINE
8
acrylic
10
244.735960
20
107.823149
11
248.048751
21
106.231237
0
LINE
8
acrylic
10
248.048751
20
106.231237
11
251.322543
21
104.476021
0
LINE
8
acrylic
10
251.322543
20
104.476021
11
254.434469
21
102.572188
0
LINE
8
acrylic
10
254.434469
20
102.572188
11
257.354654
21
100.526199
0
LINE
8
acrylic
10
257.354654
20
100.526199
11
260.083082
21
98.358026
0
LINE
8
acrylic
10
260.083082
20
98.358026
11
262.571627
21
96.075305
0
LINE
8
acrylic
10
262.571627
20
96.075305
11
264.811986
21
93.696837
0
LINE
8
acrylic
10
264.811986
20
93.696837
11
266.794184
21
91.237302
0
LINE
8
acrylic
10
266.794184
20
91.237302
11
268.498318
21
88.696705
0
LINE
8
acrylic
10
268.498318
20
88.696705
11
269.915234
21
86.108525
0
LINE
8
acrylic
10
269.915234
20
86.108525
11
271.015905
21
83.473352
0
LINE
8
acrylic
10
271.015905
20
83.473352
11
271.820250
21
80.871662
0
LINE
8
acrylic
10
271.820250
20
80.871662
11
271.820250
21
80.864614
0
LINE
8
acrylic
10
271.820250
20
80.864614
11
272.299194
21
78.303457
0
LINE
8
acrylic
10
272.299194
20
78.303457
11
272.461894
21
75.735838
0
LINE
8
acrylic
10
272.461894
20
75.735838
11
272.299194
21
73.188190
0
LINE
8
acrylic
10
272.299194
20
73.188190
11
271.820250
21
70.674613
0
LINE
8
acrylic
10
271.820250
20
70.674613
11
271.015905
21
68.229177
0
LINE
8
acrylic
10
271.015905
20
68.229177
11
269.915234
21
65.864219
0
LINE
8
acrylic
10
269.915234
20
65.864219
11
269.197227
21
64.753405
0
LINE
8
acrylic
10
269.197227
20
64.753405
11
266.794184
21
61.954929
0
LINE
8
acrylic
10
266.794184
20
61.954929
11
264.811986
21
60.193251
0
LINE
8
acrylic
10
264.811986
20
60.193251
11
262.571627
21
58.330538
0
LINE
8
acrylic
10
262.571627
20
58.330538
11
260.083082
21
56.507769
0
LINE
8
acrylic
10
260.083082
20
56.507769
11
257.354654
21
54.807183
0
LINE
8
acrylic
10
257.354654
20
54.807183
11
254.434469
21
53.553626
0
LINE
8
acrylic
10
254.434469
20
53.553626
11
251.322543
21
52.659571
0
LINE
8
acrylic
10
251.322543
20
52.659571
11
248.048751
21
52.002246
0
LINE
8
acrylic
10
248.048751
20
52.002246
11
244.640498
21
51.602212
0
LINE
8
acrylic
10
244.640498
20
51.602212
11
241.126809
21
51.453594
0
LINE
8
acrylic
10
241.126809
20
51.453594
11
237.526814
21
51.561675
0
LINE
8
acrylic
10
237.526814
20
51.561675
11
233.869524
21
51.921176
0
LINE
8
acrylic
10
233.869524
20
51.921176
11
230.183191
21
52.523870
0
LINE
8
acrylic
10
230.183191
20
52.523870
11
224.994441
21
53.547159
0
LINE
8
acrylic
10
224.994441
20
53.547159
11
219.814815
21
54.576909
0
LINE
8
acrylic
10
219.814815
20
54.576909
11
216.668032
21
55.197226
0
LINE
8
acrylic
10
216.668032
20
55.197226
11
217.720547
21
54.797191
0
LINE
8
acrylic
10
217.720547
20
54.797191
11
218.120639
21
54.584546
0
LINE
8
acrylic
10
218.120639
20
54.584546
11
221.594476
21
51.574011
0
LINE
8
acrylic
10
221.594476
20
51.574011
11
222.456920
21
49.798823
0
LINE
8
acrylic
10
222.456920
20
49.798823
11
222.597148
21
49.274255
0
LINE
8
acrylic
10
222.597148
20
49.274255
11
222.802174
21
48.563474
0
LINE
8
acrylic
10
222.802174
20
48.563474
11
222.995586
21
48.003074
0
LINE
8
acrylic
10
222.995586
20
48.003074
11
223.188163
21
47.520214
0
LINE
8
acrylic
10
223.188163
20
47.520214
11
223.402328
21
47.042641
0
LINE
8
acrylic
10
223.402328
20
47.042641
11
223.680392
21
46.506325
0
LINE
8
acrylic
10
223.680392
20
46.506325
11
224.064710
21
45.951211
0
LINE
8
acrylic
10
224.064710
20
45.951211
11
224.607585
21
45.421945
0
LINE
8
acrylic
10
224.607585
20
45.421945
11
225.489111
21
44.897965
0
LINE
8
acrylic
10
225.489111
20
44.897965
11
226.847108
21
44.382209
0
LINE
8
acrylic
10
226.847108
20
44.382209
11
228.702314
21
43.974539
0
LINE
8
acrylic
10
228.702314
20
43.974539
11
230.980019
21
43.794787
0
LINE
8
acrylic
10
230.980019
20
43.794787
11
233.531643
21
43.788876
0
LINE
8
acrylic
10
233.531643
20
43.788876
11
236.190357
21
43.861127
0
LINE
8
acrylic
10
236.190357
20
43.861127
11
238.774348
21
43.867038
0
LINE
8
acrylic
10
238.774348
20
43.867038
11
241.115147
21
43.664377
0
LINE
8
acrylic
10
241.115147
20
43.664377
11
241.821541
21
43.510473
0
LINE
8
acrylic
10
241.821541
20
43.510473
11
245.588380
21
40.246171
0
LINE
8
acrylic
10
245.588380
20
40.246171
11
245.168276
21
39.393618
0
LINE
8
acrylic
10
245.168276
20
39.393618
11
244.509050
21
38.772002
0
LINE
8
acrylic
10
244.509050
20
38.772002
11
243.633570
21
38.262449
0
LINE
8
acrylic
10
243.633570
20
38.262449
11
243.429379
21
38.182559
0
LINE
8
acrylic
10
243.429379
20
38.182559
11
242.190921
21
37.910583
0
LINE
8
acrylic
10
242.190921
20
37.910583
11
240.636203
21
37.709685
0
LINE
8
acrylic
10
240.636203
20
37.709685
11
238.740327
21
37.657998
0
LINE
8
acrylic
10
238.740327
20
37.657998
11
236.536495
21
37.813664
0
LINE
8
acrylic
10
236.536495
20
37.813664
11
234.247995
21
38.136159
0
LINE
8
acrylic
10
234.247995
20
38.136159
11
232.127176
21
38.579662
0
LINE
8
acrylic
10
232.127176
20
38.579662
11
230.208056
21
39.094244
0
LINE
8
acrylic
10
230.208056
20
39.094244
11
228.447477
21
39.645244
0
LINE
8
acrylic
10
228.447477
20
39.645244
11
226.729240
21
40.202120
0
LINE
8
acrylic
10
226.729240
20
40.202120
11
224.937113
21
40.735499
0
LINE
8
acrylic
10
224.937113
20
40.735499
11
223.091047
21
41.280039
0
LINE
8
acrylic
10
223.091047
20
41.280039
11
221.266554
21
41.855125
0
LINE
8
acrylic
10
221.266554
20
41.855125
11
219.622189
21
42.477791
0
LINE
8
acrylic
10
219.622189
20
42.477791
11
218.305698
21
43.143928
0
LINE
8
acrylic
10
218.305698
20
43.143928
11
217.359423
21
43.857644
0
LINE
8
acrylic
10
217.359423
20
43.857644
11
216.816564
21
44.614831
0
LINE
8
acrylic
10
216.816564
20
44.614831
11
216.568362
21
45.414312
0
LINE
8
acrylic
10
216.568362
20
45.414312
11
216.511982
21
46.255499
0
LINE
8
acrylic
10
216.511982
20
46.255499
11
216.539449
21
47.133694
0
LINE
8
acrylic
10
216.539449
20
47.133694
11
216.523386
21
48.035386
0
LINE
8
acrylic
10
216.523386
20
48.035386
11
216.392314
21
48.912406
0
LINE
8
acrylic
10
216.392314
20
48.912406
11
216.102621
21
49.735972
0
LINE
8
acrylic
10
216.102621
20
49.735972
11
215.612047
21
50.480822
0
LINE
8
acrylic
10
215.612047
20
50.480822
11
214.920608
21
51.154007
0
LINE
8
acrylic
10
214.920608
20
51.154007
11
213.889665
21
51.754939
0
LINE
8
acrylic
10
213.889665
20
51.754939
11
212.468589
21
52.264821
0
LINE
8
acrylic
10
212.468589
20
52.264821
11
210.782718
21
52.594952
0
LINE
8
acrylic
10
210.782718
20
52.594952
11
209.013834
21
52.656631
0
LINE
8
acrylic
10
209.013834
20
52.656631
11
207.256580
21
52.490979
0
LINE
8
acrylic
10
207.256580
20
52.490979
11
205.670330
21
52.129127
0
LINE
8
acrylic
10
205.670330
20
52.129127
11
204.252563
21
51.653903
0
LINE
8
acrylic
10
204.252563
20
51.653903
11
202.911175
21
51.059432
0
LINE
8
acrylic
10
202.911175
20
51.059432
11
201.632865
21
50.274637
0
LINE
8
acrylic
10
201.632865
20
50.274637
11
200.409346
21
49.244887
0
LINE
8
acrylic
10
200.409346
20
49.244887
11
199.228987
21
48.131136
0
LINE
8
acrylic
10
199.228987
20
48.131136
11
198.068562
21
47.125470
0
LINE
8
acrylic
10
198.068562
20
47.125470
11
195.404033
21
45.645168
0
LINE
8
acrylic
10
195.404033
20
45.645168
11
193.787919
21
45.188016
0
LINE
8
acrylic
10
193.787919
20
45.188016
11
192.732887
21
44.967871
0
LINE
8
acrylic
10
192.732887
20
44.967871
11
191.396478
21
44.900315
0
LINE
8
acrylic
10
191.396478
20
44.900315
11
189.638394
21
44.883867
0
LINE
8
acrylic
10
189.638394
20
44.883867
11
187.298431
21
44.932030
0
LINE
8
acrylic
10
187.298431
20
44.932030
11
184.734350
21
45.069487
0
LINE
8
acrylic
10
184.734350
20
45.069487
11
182.244145
21
45.284483
0
LINE
8
acrylic
10
182.244145
20
45.284483
11
179.892563
21
45.595229
0
LINE
8
acrylic
10
179.892563
20
45.595229
11
177.729405
21
46.013473
0
LINE
8
acrylic
10
177.729405
20
46.013473
11
176.021955
21
46.463438
0
LINE
8
acrylic
10
176.021955
20
46.463438
11
174.982709
21
46.872872
0
LINE
8
acrylic
10
174.982709
20
46.872872
11
174.356008
21
47.307563
0
LINE
8
acrylic
10
174.356008
20
47.307563
11
173.845516
21
47.819795
0
LINE
8
acrylic
10
173.845516
20
47.819795
11
173.439612
21
48.367859
0
LINE
8
acrylic
10
173.439612
20
48.367859
11
173.150749
21
48.934720
0
LINE
8
acrylic
10
173.150749
20
48.934720
11
172.861885
21
49.626703
0
LINE
8
acrylic
10
172.861885
20
49.626703
11
172.455151
21
50.544842
0
LINE
8
acrylic
10
172.455151
20
50.544842
11
171.984503
21
51.546984
0
LINE
8
acrylic
10
171.984503
20
51.546984
11
171.471521
21
52.489208
0
LINE
8
acrylic
10
171.471521
20
52.489208
11
170.831537
21
53.424971
0
LINE
8
acrylic
10
170.831537
20
53.424971
11
170.001470
21
54.336061
0
LINE
8
acrylic
10
170.001470
20
54.336061
11
169.001237
21
55.187823
0
LINE
8
acrylic
10
169.001237
20
55.187823
11
167.854084
21
55.967331
0
LINE
8
acrylic
10
167.854084
20
55.967331
11
166.665425
21
56.591760
0
LINE
8
acrylic
10
166.665425
20
56.591760
11
165.529893
21
56.994731
0
LINE
8
acrylic
10
165.529893
20
56.994731
11
164.321313
21
57.212664
0
LINE
8
acrylic
10
164.321313
20
57.212664
11
162.817230
21
57.292554
0
LINE
8
acrylic
10
162.817230
20
57.292554
11
160.667352
21
57.281414
0
LINE
8
acrylic
10
160.667352
20
57.281414
11
157.723931
21
57.190953
0
LINE
8
acrylic
10
157.723931
20
57.190953
11
154.568842
21
56.938949
0
LINE
8
acrylic
10
154.568842
20
56.938949
11
151.902663
21
56.449040
0
LINE
8
acrylic
10
151.902663
20
56.449040
11
149.936231
21
55.817561
0
LINE
8
acrylic
10
149.936231
20
55.817561
11
148.688638
21
55.169635
0
LINE
8
acrylic
10
148.688638
20
55.169635
11
147.855250
21
54.510548
0
LINE
8
acrylic
10
147.855250
20
54.510548
11
147.117320
21
53.827964
0
LINE
8
acrylic
10
147.117320
20
53.827964
11
146.432513
21
53.127758
0
LINE
8
acrylic
10
146.432513
20
53.127758
11
145.832374
21
52.410517
0
LINE
8
acrylic
10
145.832374
20
52.410517
11
145.243026
21
51.644519
0
LINE
8
acrylic
10
145.243026
20
51.644519
11
144.621304
21
50.807443
0
LINE
8
acrylic
10
144.621304
20
50.807443
11
143.958910
21
49.951569
0
LINE
8
acrylic
10
143.958910
20
49.951569
11
143.264144
21
49.072200
0
LINE
8
acrylic
10
143.264144
20
49.072200
11
141.406450
21
47.680599
0
LINE
8
acrylic
10
141.406450
20
47.680599
11
138.857311
21
46.501056
0
LINE
8
acrylic
10
138.857311
20
46.501056
11
137.198835
21
46.096322
0
LINE
8
acrylic
10
137.198835
20
46.096322
11
135.685620
21
45.949467
0
LINE
8
acrylic
10
135.685620
20
45.949467
11
133.716698
21
45.759730
0
LINE
8
acrylic
10
133.716698
20
45.759730
11
131.324443
21
45.598189
0
LINE
8
acrylic
10
131.324443
20
45.598189
11
128.623400
21
45.538272
0
LINE
8
acrylic
10
128.623400
20
45.538272
11
125.224270
21
45.910110
0
LINE
8
acrylic
10
125.224270
20
45.910110
11
119.471068
21
48.231600
0
LINE
8
acrylic
10
119.471068
20
48.231600
11
118.969604
21
49.023966
0
LINE
8
acrylic
10
118.969604
20
49.023966
11
118.167861
21
50.576587
0
LINE
8
acrylic
10
118.167861
20
50.576587
11
117.812592
21
51.836018
0
LINE
8
acrylic
10
117.812592
20
51.836018
11
117.468114
21
52.950944
0
LINE
8
acrylic
10
117.468114
20
52.950944
11
117.103714
21
53.876133
0
LINE
8
acrylic
10
117.103714
20
53.876133
11
116.730183
21
54.537570
0
LINE
8
acrylic
10
116.730183
20
54.537570
11
116.325940
21
54.889435
0
LINE
8
acrylic
10
116.325940
20
54.889435
11
115.869403
21
55.043340
0
LINE
8
acrylic
10
115.869403
20
55.043340
11
115.350610
21
55.125582
0
LINE
8
acrylic
10
115.350610
20
55.125582
11
114.767073
21
55.165527
0
LINE
8
acrylic
10
114.767073
20
55.165527
11
114.068154
21
55.152011
0
LINE
8
acrylic
10
114.068154
20
55.152011
11
113.126857
21
55.078590
0
LINE
8
acrylic
10
113.126857
20
55.078590
11
111.846062
21
54.931734
0
LINE
8
acrylic
10
111.846062
20
54.931734
11
110.352769
21
54.767256
0
LINE
8
acrylic
10
110.352769
20
54.767256
11
108.797222
21
54.620400
0
LINE
8
acrylic
10
108.797222
20
54.620400
11
107.209300
21
54.496455
0
LINE
8
acrylic
10
107.209300
20
54.496455
11
105.578218
21
54.391898
0
LINE
8
acrylic
10
105.578218
20
54.391898
11
103.991126
21
54.250330
0
LINE
8
acrylic
10
103.991126
20
54.250330
11
102.519416
21
54.049431
0
LINE
8
acrylic
10
102.519416
20
54.049431
11
101.239450
21
53.783917
0
LINE
8
acrylic
10
101.239450
20
53.783917
11
100.309773
21
53.489031
0
LINE
8
acrylic
10
100.309773
20
53.489031
11
99.558563
21
53.164774
0
LINE
8
acrylic
10
99.558563
20
53.164774
11
98.809010
21
52.787063
0
LINE
8
acrylic
10
98.809010
20
52.787063
11
98.111753
21
52.343560
0
LINE
8
acrylic
10
98.111753
20
52.343560
11
97.563908
21
51.810769
0
LINE
8
acrylic
10
97.563908
20
51.810769
11
97.132274
21
51.224522
0
LINE
8
acrylic
10
97.132274
20
51.224522
11
96.796095
21
50.573071
0
LINE
8
acrylic
10
96.796095
20
50.573071
11
96.577788
21
49.766542
0
LINE
8
acrylic
10
96.577788
20
49.766542
11
96.530466
21
48.751477
0
LINE
8
acrylic
10
96.530466
20
48.751477
11
96.546208
21
47.647124
0
LINE
8
acrylic
10
96.546208
20
47.647124
11
96.530466
21
46.602101
0
LINE
8
acrylic
10
96.530466
20
46.602101
11
96.459903
21
45.700410
0
LINE
8
acrylic
10
96.459903
20
45.700410
11
96.084713
21
44.642464
0
LINE
8
acrylic
10
96.084713
20
44.642464
11
94.847775
21
43.323624
0
LINE
8
acrylic
10
94.847775
20
43.323624
11
93.465848
21
42.271043
0
LINE
8
acrylic
10
93.465848
20
42.271043
11
91.491945
21
41.532654
0
LINE
8
acrylic
10
91.491945
20
41.532654
11
89.164434
21
40.977541
0
LINE
8
acrylic
10
89.164434
20
40.977541
11
86.529798
21
40.548135
0
LINE
8
acrylic
10
86.529798
20
40.548135
11
83.756539
21
40.296131
0
LINE
8
acrylic
10
83.756539
20
40.296131
11
80.970830
21
40.212127
0
LINE
8
acrylic
10
80.970830
20
40.212127
11
78.312953
21
40.283207
0
LINE
8
acrylic
10
78.312953
20
40.283207
11
76.014493
21
40.487042
0
LINE
8
acrylic
10
76.014493
20
40.487042
11
74.233167
21
40.798375
0
LINE
8
acrylic
10
74.233167
20
40.798375
11
72.236853
21
41.349377
0
LINE
8
acrylic
10
72.236853
20
41.349377
11
67.100391
21
44.127880
0
LINE
8
acrylic
10
67.100391
20
44.127880
11
66.766704
21
44.438039
0
LINE
8
acrylic
10
66.766704
20
44.438039
11
66.047034
21
45.215197
0
LINE
8
acrylic
10
66.047034
20
45.215197
11
65.354758
21
45.930677
0
LINE
8
acrylic
10
65.354758
20
45.930677
11
64.769560
21
46.681402
0
LINE
8
acrylic
10
64.769560
20
46.681402
11
64.320493
21
47.515540
0
LINE
8
acrylic
10
64.320493
20
47.515540
11
64.062342
21
48.393148
0
LINE
8
acrylic
10
64.062342
20
48.393148
11
64.078935
21
49.246671
0
LINE
8
acrylic
10
64.078935
20
49.246671
11
64.308034
21
50.077285
0
LINE
8
acrylic
10
64.308034
20
50.077285
11
64.717257
21
50.860318
0
LINE
8
acrylic
10
64.717257
20
50.860318
11
65.053436
21
51.267402
0
LINE
8
acrylic
10
65.053436
20
51.267402
11
65.377991
21
51.504719
0
LINE
8
acrylic
10
65.377991
20
51.504719
11
63.674692
21
51.453612
0
LINE
8
acrylic
10
63.674692
20
51.453612
11
60.151052
21
51.602229
0
LINE
8
acrylic
10
60.151052
20
51.602229
11
56.742792
21
52.002263
0
LINE
8
acrylic
10
56.742792
20
52.002263
11
53.478134
21
52.659588
0
LINE
8
acrylic
10
53.478134
20
52.659588
11
50.367038
21
53.553643
0
LINE
8
acrylic
10
50.367038
20
53.553643
11
47.436898
21
54.807200
0
LINE
8
acrylic
10
47.436898
20
54.807200
11
44.718424
21
56.507786
0
LINE
8
acrylic
10
44.718424
20
56.507786
11
42.229050
21
58.330555
0
LINE
8
acrylic
10
42.229050
20
58.330555
11
39.978735
21
60.193268
0
LINE
8
acrylic
10
39.978735
20
60.193268
11
37.997362
21
61.954946
0
LINE
8
acrylic
10
37.997362
20
61.954946
11
35.604276
21
64.753422
0
LINE
8
acrylic
10
35.604276
20
64.753422
11
34.885437
21
65.857774
0
LINE
8
acrylic
10
34.885437
20
65.857774
11
34.885437
21
65.864254
0
LINE
8
acrylic
10
34.885437
20
65.864254
11
33.775635
21
68.228626
0
LINE
8
acrylic
10
33.775635
20
68.228626
11
32.980430
21
70.674648
0
LINE
8
acrylic
10
32.980430
20
70.674648
11
32.502311
21
73.188226
0
LINE
8
acrylic
10
32.502311
20
73.188226
11
32.338787
21
75.735873
0
LINE
8
acrylic
10
32.338787
20
75.735873
11
32.502311
21
78.303492
0
LINE
8
acrylic
10
32.502311
20
78.303492
11
32.980430
21
80.864650
0
LINE
8
acrylic
10
32.980430
20
80.864650
11
32.980430
21
80.871129
0
LINE
8
acrylic
10
32.980430
20
80.871129
11
33.775635
21
83.472820
0
LINE
8
acrylic
10
33.775635
20
83.472820
11
34.885437
21
86.108580
0
LINE
8
acrylic
10
34.885437
20
86.108580
11
36.302363
21
88.696759
0
LINE
8
acrylic
10
36.302363
20
88.696759
11
37.997362
21
91.237356
0
LINE
8
acrylic
10
37.997362
20
91.237356
11
39.978735
21
93.696891
0
LINE
8
acrylic
10
39.978735
20
93.696891
11
42.229050
21
96.074773
0
LINE
8
acrylic
10
42.229050
20
96.074773
11
44.718424
21
98.358081
0
LINE
8
acrylic
10
44.718424
20
98.358081
11
47.436898
21
100.526254
0
LINE
8
acrylic
10
47.436898
20
100.526254
11
50.367038
21
102.572243
0
LINE
8
acrylic
10
50.367038
20
102.572243
11
53.478134
21
104.476075
0
LINE
8
acrylic
10
53.478134
20
104.476075
11
56.742792
21
106.231291
0
LINE
8
acrylic
10
56.742792
20
106.231291
11
60.064725
21
107.823203
0
LINE
8
acrylic
10
60.064725
20
107.823203
11
63.243886
21
109.239477
0
LINE
8
acrylic
10
63.243886
20
109.239477
11
66.287746
21
110.451914
0
LINE
8
acrylic
10
66.287746
20
110.451914
11
69.236979
21
111.427621
0
LINE
8
acrylic
10
69.236979
20
111.427621
11
72.128106
21
112.267634
0
LINE
8
acrylic
10
72.128106
20
112.267634
11
76.120734
21
113.256852
0
LINE
8
acrylic
10
76.120734
20
113.256852
11
80.160676
21
114.246070
0
LINE
8
acrylic
10
80.160676
20
114.246070
11
84.354181
21
115.235288
0
LINE
8
acrylic
10
84.354181
20
115.235288
11
88.853980
21
116.210995
0
LINE
8
acrylic
10
88.853980
20
116.210995
11
93.784585
21
117.173191
0
LINE
8
acrylic
10
93.784585
20
117.173191
11
97.096558
21
117.735354
0
LINE
8
acrylic
10
97.096558
20
117.735354
11
97.748162
21
117.850488
0
LINE
8
acrylic
10
97.748162
20
117.850488
11
99.222362
21
118.101317
0
LINE
8
acrylic
10
99.222362
20
118.101317
11
105.090945
21
118.988911
0
LINE
8
acrylic
10
105.090945
20
118.988911
11
111.246730
21
119.815413
0
LINE
8
acrylic
10
111.246730
20
119.815413
11
117.556079
21
120.560851
0
LINE
8
acrylic
10
117.556079
20
120.560851
11
123.913571
21
121.211127
0
LINE
8
acrylic
10
123.913571
20
121.211127
11
128.029879
21
121.556531
0
LINE
8
acrylic
10
128.029879
20
121.556531
11
130.145723
21
121.739806
0
LINE
8
acrylic
10
130.145723
20
121.739806
11
136.186959
21
122.139253
0
LINE
8
acrylic
10
136.186959
20
122.139253
11
141.911939
21
122.390082
0
LINE
8
acrylic
10
141.911939
20
122.390082
11
147.216075
21
122.471146
0
LINE
8
acrylic
10
147.216075
20
122.471146
11
152.395701
21
122.471146
0
LINE
8
LEDS
10
120.186758
20
47.873796
11
123.894010
21
46.371472
0
LINE
8
LEDS
10
123.894010
20
46.371472
11
123.330638
21
44.981252
0
LINE
8
LEDS
10
123.330638
20
44.981252
11
119.623387
21
46.483576
0
LINE
8
LEDS
10
119.623387
20
46.483576
11
120.186758
21
47.873796
0
LINE
8
LEDS
10
228.773670
20
58.836241
11
232.710118
21
58.125570
0
LINE
8
LEDS
10
232.710118
20
58.125570
11
232.443617
21
56.649402
0
LINE
8
LEDS
10
232.443617
20
56.649402
11
228.507168
21
57.360073
0
LINE
8
LEDS
10
228.507168
20
57.360073
11
228.773670
21
58.836241
0
LINE
8
LEDS
10
94.947409
20
62.454621
11
98.871901
21
63.228594
0
LINE
8
LEDS
10
98.871901
20
63.228594
11
99.162141
21
61.756909
0
LINE
8
LEDS
10
99.162141
20
61.756909
11
95.237649
21
60.982937
0
LINE
8
LEDS
10
95.237649
20
60.982937
11
94.947409
21
62.454621
0
LINE
8
LEDS
10
58.930466
20
101.899847
11
62.456729
21
103.788276
0
LINE
8
LEDS
10
62.456729
20
103.788276
11
63.164890
21
102.465927
0
LINE
8
LEDS
10
63.164890
20
102.465927
11
59.638626
21
100.577498
0
LINE
8
LEDS
10
59.638626
20
100.577498
11
58.930466
21
101.899847
0
LINE
8
LEDS
10
150.404177
20
118.051527
11
154.404199
21
118.029056
0
LINE
8
LEDS
10
154.404199
20
118.029056
11
154.395772
21
116.529048
0
LINE
8
LEDS
10
154.395772
20
116.529048
11
150.395750
21
116.551519
0
LINE
8
LEDS
10
150.395750
20
116.551519
11
150.404177
21
118.051527
0
LINE
8
LEDS
10
238.699830
20
105.297712
11
242.398962
21
103.775507
0
LINE
8
LEDS
10
242.398962
20
103.775507
11
241.828135
21
102.388333
0
LINE
8
LEDS
10
241.828135
20
102.388333
11
238.129004
21
103.910538
0
LINE
8
LEDS
10
238.129004
20
103.910538
11
238.699830
21
105.297712
0
LINE
8
LEDS
10
67.813895
20
43.585632
11
71.348039
21
41.711992
0
LINE
8
LEDS
10
71.348039
20
41.711992
11
70.645424
21
40.386688
0
LINE
8
LEDS
10
70.645424
20
40.386688
11
67.111280
21
42.260328
0
LINE
8
LEDS
10
67.111280
20
42.260328
11
67.813895
21
43.585632
0
LINE
8
LEDS
10
171.004787
20
61.300581
11
174.564696
21
59.476374
0
LINE
8
LEDS
10
174.564696
20
59.476374
11
173.880618
21
58.141408
0
LINE
8
LEDS
10
173.880618
20
58.141408
11
170.320710
21
59.965616
0
LINE
8
LEDS
10
170.320710
20
59.965616
11
171.004787
21
61.300581
0
LINE
8
LEDS
10
243.301938
20
44.288487
11
246.326243
21
41.670419
0
LINE
8
LEDS
10
246.326243
20
41.670419
11
245.344467
21
40.536304
0
LINE
8
LEDS
10
245.344467
20
40.536304
11
242.320162
21
43.154372
0
LINE
8
LEDS
10
242.320162
20
43.154372
11
243.301938
21
44.288487
 0 
ENDSEC
 0 
EOF