<?xml version="1.0" encoding="UTF-8" standalone="no"?>
<svg
   width="12in"
   height="3.2510457in"
   viewBox="0 0 304.79998 82.576562"
   version="1.1"
   id="svg1"
   sodipodi:docname="pcb-total-longdog.svg"
   inkscape:version="1.3.2 (091e20e, 2023-11-25, custom)"
   xmlns:inkscape="http://www.inkscape.org/namespaces/inkscape"
   xmlns:sodipodi="http://sodipodi.sourceforge.net/DTD/sodipodi-0.dtd"
   xmlns="http://www.w3.org/2000/svg"
   xmlns:svg="http://www.w3.org/2000/svg">
  <defs
     id="defs1" />
  <sodipodi:namedview
     id="namedview1"
     pagecolor="#ffffff"
     bordercolor="#000000"
     borderopacity="0.25"
     inkscape:showpageshadow="2"
     inkscape:pageopacity="0.0"
     inkscape:pagecheckerboard="0"
     inkscape:deskcolor="#d1d1d1"
     inkscape:document-units="mm"
     inkscape:zoom="1.0000001"
     inkscape:cx="646.99996"
     inkscape:cy="388.99998"
     inkscape:window-width="1368"
     inkscape:window-height="842"
     inkscape:window-x="-6"
     inkscape:window-y="-6"
     inkscape:window-maximized="1"
     inkscape:current-layer="svg1"
     showgrid="false" />
  <path
     style="color:#000000;fill:#ed0000;stroke-linecap:round;stroke-width:0.9906;stroke-dasharray:none;fill-opacity:1"
     d="M 152.40039,34.744141 C 63.458435,34.744141 6.1386719,87.59375 6.1386719,87.59375 a 19.049999,19.049999 0 0 0 -1.0957032,26.91797 19.049999,19.049999 0 0 0 26.9199223,1.09375 c 0,0 46.39628,-42.76172 120.437499,-42.76172 74.04122,0 120.4375,42.76172 120.4375,42.76172 a 19.049999,19.049999 0 0 0 26.91797,-1.09375 19.049999,19.049999 0 0 0 -1.09375,-26.91797 c 0,0 -57.31976,-52.849609 -146.26172,-52.849609 z"
     id="path1" />
  <path
     id="pcb001_f0158"
     style="display:inline;fill:#808080;fill-opacity:1;fill-rule:evenodd;stroke:none;stroke-width:4.03685;stroke-linecap:square;stroke-miterlimit:4;stroke-dasharray:none"
     d="m 149.17238,0.05529378 -3.30213,0.07131348 -3.56412,0.22065836 -3.76101,0.35139974 -1.31723,0.16123047 -2.56264,0.30385747 -3.9579,0.5720581 -3.92792,0.6557739 -3.83233,0.7270874 -3.65352,0.7808309 -0.91777,0.2206583 -0.40566,0.1012859 -2.06189,0.4945434 -3.06958,0.84646 -2.80138,0.8583455 -2.61069,0.8702311 -2.5151,0.8702312 -2.48563,0.8702311 -1.79989,0.738973 -1.836067,0.8583459 -1.894975,1.066601 -1.979207,1.245919 -2.068091,1.400431 -2.032434,1.544092 -1.936833,1.674833 -1.824178,1.79989 -1.692403,1.907377 -1.549776,2.008663 -1.400948,2.091862 -1.233517,2.163693 -1.055232,2.235005 -0.882117,2.276864 -0.690914,2.318721 -0.49506,2.28875 v 0.0057 l -0.297656,2.253092 -0.101803,2.258777 0.101803,2.241207 0.297656,2.211235 0.49506,2.151806 0.690914,2.079977 v 0.0057 l 0.447518,0.971517 1.489831,2.461865 1.233517,1.549777 1.400948,1.638659 1.549776,1.60352 1.692403,1.496033 1.824178,1.102775 1.936833,0.786515 2.032434,0.578259 2.121834,0.351917 2.193665,0.130741 2.24069,-0.09508 2.276861,-0.316259 2.29495,-0.5302 3.22461,-0.900204 3.2303,-0.905888 3.23029,-0.899686 3.22461,-0.882117 3.23081,-0.852661 3.23029,-0.816488 3.22461,-0.75706 3.2303,-0.697115 3.22461,-0.620117 3.23029,-0.5302 3.23081,-0.435116 3.22409,-0.328145 3.23081,-0.202572 3.2303,-0.07131 h 3.22461 3.23029 l 3.23081,0.07131 3.22409,0.202572 3.23081,0.328145 3.2303,0.435116 3.22461,0.5302 3.23029,0.620117 3.23081,0.697115 3.22409,0.75706 3.23081,0.816488 3.22461,0.852661 3.2303,0.882117 3.23029,0.899686 3.22461,0.905888 3.23029,0.900204 2.29495,0.5302 2.27687,0.316259 2.2412,0.09508 2.18747,-0.130741 2.12183,-0.351917 2.03812,-0.578259 1.93735,-0.786515 1.81798,-1.102775 1.6986,-1.496033 1.54926,-1.60352 1.39475,-1.638659 1.23403,-1.549777 1.49603,-2.461865 0.447,-0.977201 0.68523,-2.080493 0.50075,-2.15129 0.29817,-2.211235 0.10129,-2.241207 -0.10129,-2.258777 -0.29817,-2.253092 v -0.0062 l -0.50075,-2.288749 -0.68523,-2.318205 -0.88211,-2.276864 -1.06092,-2.235005 -1.23403,-2.163693 -1.39475,-2.092378 -1.54926,-2.008147 -1.6986,-1.907377 -1.81798,-1.79989 -1.93735,-1.674833 -2.03812,-1.544092 -2.0624,-1.400431 h -0.006 l -1.9727,-1.245952 -1.89549,-1.066601 -1.83554,-0.8583459 -1.80041,-0.738973 L 199.88246,8.161259 198.55334,7.7023722 198.142,7.5592285 197.37305,7.2910278 194.75667,6.4207967 191.96149,5.5624512 188.89191,4.7159912 186.23936,4.078304 185.50039,3.8995036 181.85255,3.1186727 178.02023,2.3915853 174.0923,1.7358114 170.13492,1.1637533 166.71343,0.75240885 166.24885,0.69866536 162.48784,0.34726562 158.9294,0.12660726 155.62728,0.05529378 h -3.23029 z M 84.976813,45.122827 l 0.375171,0.04134 0.345715,0.02997 0.697632,0.214457 0.417029,0.220658 0.220658,0.119373 0.560173,0.458886 0.465087,0.560173 0.303858,0.572058 0.03566,0.07183 0.208772,0.691431 0.07131,0.720886 -0.07131,0.721403 -0.208772,0.697115 -0.03566,0.07183 -0.303858,0.565856 -0.465087,0.560173 -0.560173,0.465088 -0.220658,0.119372 -0.417029,0.220659 -0.697632,0.208256 -0.345715,0.03566 -0.03979,0.0036 -0.33538,0.03256 -0.721404,-0.07183 -0.256314,-0.0775 -0.435116,-0.130741 -0.643371,-0.340031 -0.161231,-0.136943 -0.399459,-0.328145 -0.458886,-0.560173 -0.262,-0.488859 -0.07752,-0.148828 -0.214457,-0.697115 -0.07183,-0.721403 0.07183,-0.721403 0.214457,-0.690914 0.07752,-0.155029 0.262,-0.488859 0.226859,-0.276469 0.232028,-0.283704 0.399458,-0.321944 0.161231,-0.136942 0.643372,-0.340031 0.435115,-0.136943 0.256315,-0.07751 z"
     inkscape:label="Silk" />
  <path
     id="path13"
     style="display:inline;vector-effect:non-scaling-stroke;fill:#1a661f;fill-opacity:1;fill-rule:evenodd;stroke:#000000;stroke-width:0.264583;stroke-linecap:square;-inkscape-stroke:hairline"
     d="m 149.17238,0.05529378 -3.30213,0.07131348 -3.56412,0.22065836 -3.76101,0.35139974 -1.31723,0.16123047 -2.56264,0.30385747 -3.9579,0.5720581 -3.92792,0.6557739 -3.83233,0.7270874 -3.65352,0.7808309 -0.91777,0.2206583 -0.40566,0.1012859 -2.06189,0.4945434 -3.06958,0.84646 -2.80138,0.8583455 -2.61069,0.8702311 -2.5151,0.8702312 -2.48563,0.8702311 -1.79989,0.738973 -1.836067,0.8583459 -1.894975,1.066601 -1.979207,1.245919 -2.068091,1.400431 -2.032434,1.544092 -1.936833,1.674833 -1.824178,1.79989 -1.692403,1.907377 -1.549776,2.008663 -1.400948,2.091862 -1.233517,2.163693 -1.055232,2.235005 -0.882117,2.276864 -0.690914,2.318721 -0.49506,2.28875 v 0.0057 l -0.297656,2.253092 -0.101803,2.258777 0.101803,2.241207 0.297656,2.211235 0.49506,2.151806 0.690914,2.079977 v 0.0057 l 0.447518,0.971517 1.489831,2.461865 1.233517,1.549777 1.400948,1.638659 1.549776,1.60352 1.692403,1.496033 1.824178,1.102775 1.936833,0.786515 2.032434,0.578259 2.121834,0.351917 2.193665,0.130741 1.0604,-0.04496 c -0.06655,0.07441 -0.135796,0.128422 -0.202054,0.208772 -0.08794,0.106648 -0.150891,0.235 -0.20929,0.358118 -0.106197,0.223975 -0.189078,0.455249 -0.254765,0.688847 -0.0676,0.240514 -0.117036,0.485122 -0.142627,0.730705 -0.026,0.24957 -0.03436,0.501228 -0.01033,0.750858 0.02511,0.259983 0.08634,0.51818 0.160714,0.772046 0.07302,0.24911 0.168158,0.493919 0.279569,0.733805 0.104819,0.225631 0.231083,0.444552 0.364319,0.660425 0.132266,0.214288 0.280142,0.423075 0.430981,0.629419 0.162255,0.221969 0.318132,0.508365 0.448035,0.683679 0.04828,0.05724 0.15206,0.220048 0.207739,0.272852 0.80916,0.666081 2.35529,1.810649 3.19774,2.444295 0.24843,0.187014 0.95218,0.410102 1.24282,0.484725 0.36469,0.09364 0.73202,0.204018 1.10897,0.273885 0.47035,0.08721 0.95043,0.140294 1.43092,0.179317 0.54945,0.04464 1.1023,0.06389 1.65468,0.06253 0.57869,-0.0014 1.15875,-0.02485 1.73426,-0.0739 0.5796,-0.04936 1.15766,-0.120035 1.72651,-0.221692 0.55543,-0.09928 1.10366,-0.226076 1.64021,-0.377755 0.49414,-0.139694 0.98406,-0.295154 1.44901,-0.488342 0.18574,-0.07717 0.93076,-0.441369 1.22887,-0.649573 0.29811,-0.208205 1.45263,-1.565664 1.63039,-2.086178 0.17775,-0.520509 0.21701,-0.762654 0.23357,-0.930692 0.0261,-0.263875 0.0352,-0.528649 0.0439,-0.793233 0.0102,-0.306321 0.0103,-0.612916 0.01,-0.919324 -1.3e-4,-0.323918 -0.0131,-0.647618 -0.01,-0.971517 0.003,-0.29776 -0.003,-0.596341 0.0295,-0.892969 0.0268,-0.238286 0.0711,-0.475851 0.13591,-0.709517 0.0538,-0.194287 0.12646,-0.385356 0.20929,-0.573092 0.0774,-0.175545 0.16511,-0.348926 0.26872,-0.515731 0.10055,-0.161851 0.20835,-0.322272 0.34106,-0.468705 0.12765,-0.140866 0.28024,-0.267033 0.43409,-0.390157 0.14731,-0.117861 0.30584,-0.226203 0.46664,-0.332279 0.15111,-0.09971 0.30387,-0.199218 0.46767,-0.285254 0.18492,-0.09713 0.37767,-0.185474 0.57877,-0.259416 0.25705,-0.09447 0.526,-0.167999 0.79685,-0.233577 0.30053,-0.07271 0.60824,-0.127811 0.91623,-0.176734 0.32717,-0.052 0.65752,-0.08873 0.98805,-0.12454 0.33744,-0.03654 0.67756,-0.05804 1.01544,-0.09198 0.33002,-0.03312 0.65975,-0.06907 0.98857,-0.109037 0.32369,-0.0394 0.64627,-0.08254 0.96842,-0.129191 0.31052,-0.04495 0.62016,-0.09554 0.92966,-0.144694 0.26597,-0.04221 0.53007,-0.09282 0.79736,-0.129192 0.19461,-0.02646 0.38936,-0.05103 0.58602,-0.06459 0.1446,-0.0095 0.29016,-0.017 0.43511,-0.01189 0.12178,0.0046 0.24387,0.01605 0.36329,0.03514 0.10974,0.01753 0.22019,0.03711 0.32297,0.07235 0.10143,0.03486 0.20484,0.07428 0.28422,0.135393 0.11088,0.08523 0.18575,0.198534 0.25167,0.309541 0.1093,0.184096 0.16596,0.385216 0.23254,0.581877 0.0909,0.268138 0.15914,0.541446 0.22686,0.813904 0.0809,0.325746 0.14597,0.653253 0.21446,0.980819 0.0771,0.368736 0.11924,0.74309 0.22117,1.107942 0.24926,0.891746 0.81132,2.062923 0.81132,2.062923 l 3.5817,2.042253 c 0,0 1.53813,0.316152 2.11615,0.327112 0.56058,0.0106 1.12246,-0.01732 1.68155,-0.05271 0.49844,-0.03149 0.99442,-0.08497 1.48931,-0.14211 0.41022,-0.04739 0.81722,-0.111071 1.22577,-0.166915 0.31417,-0.04296 0.63022,-0.07658 0.94206,-0.129191 0.15712,-0.02652 0.7685,-0.242927 1.0325,-0.356051 0.26399,-0.113124 1.24315,-0.768309 1.58698,-1.037663 0.34383,-0.26935 1.08229,-1.104253 1.15652,-1.224214 0.15664,-0.253206 0.2895,-0.515338 0.43253,-0.773596 0.13872,-0.250445 0.27732,-0.501221 0.41238,-0.752926 0.13133,-0.244719 0.25612,-0.491532 0.38705,-0.736389 0.12038,-0.225173 0.24023,-0.450876 0.3669,-0.673861 0.12042,-0.212033 0.24073,-0.423705 0.37363,-0.630969 0.13387,-0.208819 0.2786,-0.413158 0.42633,-0.615983 0.14765,-0.202715 0.29727,-0.404889 0.4594,-0.60048 0.1641,-0.19801 0.32181,-0.401858 0.51883,-0.57981 0.23275,-0.210192 0.49269,-0.404586 0.7767,-0.569991 0.37923,-0.220859 0.79467,-0.404165 1.22421,-0.555522 0.53232,-0.187583 1.09299,-0.326179 1.65985,-0.430981 0.64419,-0.119091 1.30621,-0.170275 1.96422,-0.221692 0.60892,-0.04756 1.22099,-0.0641 1.83245,-0.07958 0.44594,-0.01151 0.8927,-0.02513 1.33842,-0.0098 0.31327,0.01066 0.62924,0.02024 0.93637,0.07028 0.25797,0.04203 0.51379,0.103154 0.75241,0.191719 0.2524,0.09365 0.48631,0.219214 0.70694,0.354501 0.26718,0.163818 0.50848,0.354079 0.74,0.54932 0.25603,0.21591 0.49188,0.447274 0.71417,0.685746 0.22406,0.240369 0.43284,0.490905 0.6227,0.749309 0.19054,0.259319 0.36254,0.527255 0.51677,0.801501 0.15093,0.268397 0.2778,0.545216 0.39842,0.823206 0.11856,0.273112 0.21968,0.55102 0.31936,0.82889 0.10472,0.292231 0.19795,0.587244 0.29301,0.8816 0.0868,0.26885 0.17102,0.537913 0.25321,0.807702 0.0618,0.202565 0.11374,0.407066 0.17984,0.608749 0.0549,0.167224 0.1081,0.335575 0.17983,0.498677 0.0724,0.164389 0.15694,0.32557 0.2527,0.482141 0.0947,0.154923 0.19613,0.308166 0.31781,0.450619 0.11595,0.135751 0.23915,0.270622 0.39016,0.382405 0.19279,0.142732 0.41901,0.255365 0.64698,0.360185 0.33868,0.15569 0.70039,0.279136 1.06299,0.395842 0.43991,0.141582 0.89072,0.263276 1.34669,0.367936 0.48178,0.110583 0.97166,0.1975 1.46399,0.273368 0.51316,0.07907 1.03153,0.13793 1.55029,0.189136 0.53029,0.05231 1.06302,0.09306 1.59629,0.120923 0.48499,0.02536 0.9707,0.03841 1.45676,0.04237 0.36482,0.0028 0.73013,0.0012 1.0945,-0.01447 0.27789,-0.01162 0.55574,-0.03244 0.83199,-0.05943 0,0 1.1972,-0.317831 1.66294,-0.595829 0.46576,-0.278002 1.63425,-1.271462 1.65882,-1.302246 0.23696,-0.296889 0.4887,-0.586193 0.72243,-0.884701 0.25273,-0.322755 0.47937,-0.658413 0.73484,-0.979785 0.24409,-0.307084 0.47968,-0.620129 0.76171,-0.905888 0.24239,-0.245647 0.50809,-0.478057 0.79582,-0.690397 0.25984,-0.191724 0.54301,-0.363395 0.83509,-0.522966 0.28212,-0.154158 0.57621,-0.296942 0.88264,-0.418062 0.31824,-0.125789 0.64569,-0.241489 0.98753,-0.318327 0.35587,-0.08 0.72484,-0.130428 1.09399,-0.145727 0.36736,-0.01524 0.74072,-0.0033 1.10123,0.05426 0.36311,0.05807 0.71627,0.161946 1.04955,0.290422 0.31481,0.121346 0.61383,0.272422 0.8847,0.448551 0.23826,0.154898 0.4565,0.333142 0.64182,0.52865 0.17253,0.181991 0.30843,0.385859 0.43046,0.592212 0.12473,0.210833 0.22573,0.430951 0.30541,0.655257 0.0841,0.236793 0.13722,0.480764 0.18035,0.724504 0.0452,0.255643 0.0666,0.513594 0.0816,0.771529 0.0155,0.264071 0.0104,0.528853 0.01,0.793233 -9.8e-4,0.257423 -0.0206,0.515146 -0.0171,0.772563 0.003,0.247012 0.002,0.494391 0.0351,0.740006 0.0315,0.236679 0.0723,0.474562 0.15452,0.703316 0.0828,0.230276 0.19043,0.457483 0.33796,0.66611 0.16106,0.227737 0.36773,0.434942 0.58911,0.627868 0.24757,0.215759 0.53,0.406466 0.81959,0.586011 0.32444,0.201167 0.67334,0.37639 1.02371,0.54777 0.36957,0.180774 0.75444,0.341482 1.13585,0.505912 0.3802,0.163908 0.76658,0.31881 1.14928,0.479041 0.37222,0.155884 0.74741,0.307533 1.1157,0.469222 0.36027,0.158165 0.71157,0.328669 1.0697,0.489893 0.3638,0.163779 0.7245,0.332329 1.09606,0.484724 0.39216,0.160838 0.78838,0.316038 1.19476,0.452686 0.43222,0.145352 0.87206,0.279711 1.32033,0.390157 0.46778,0.115261 0.94337,0.211939 1.42472,0.283704 0.45295,0.06757 0.91139,0.122999 1.37201,0.136942 0.39346,0.01191 0.79012,-0.0026 1.18029,-0.04547 0.32807,-0.03601 0.65126,-0.09923 0.9679,-0.176733 0.26346,-0.06449 0.52745,-0.136385 0.77101,-0.239262 0.0457,-0.01926 0.0826,-0.04821 0.12712,-0.07028 0,0 1.04777,-0.613662 1.21698,-1.745113 l -2.34507,-2.87166 c -0.14951,-0.04063 -0.28799,-0.103122 -0.43977,-0.135392 -0.47495,-0.100964 -0.96695,-0.149212 -1.45728,-0.178284 -0.53472,-0.0317 -1.07259,-0.0056 -1.60868,0.0052 -0.55199,0.01187 -1.10317,0.05389 -1.6552,0.06356 -0.52956,0.0088 -1.06028,0.0251 -1.58853,-0.0052 -0.47614,-0.02719 -0.95626,-0.06215 -1.418,-0.15813 -0.39988,-0.08315 -0.78896,-0.205957 -1.15497,-0.358634 -0.30114,-0.125614 -0.58597,-0.278831 -0.84543,-0.453719 -0.20279,-0.136687 -0.38982,-0.291397 -0.5488,-0.460954 -0.1348,-0.143789 -0.24041,-0.303822 -0.33797,-0.465604 -0.0948,-0.157294 -0.16865,-0.323128 -0.23926,-0.488343 -0.0662,-0.15519 -0.11903,-0.313615 -0.17311,-0.471806 -0.0476,-0.139249 -0.0912,-0.279757 -0.13333,-0.420129 -0.0424,-0.141251 -0.0827,-0.282632 -0.11989,-0.42478 -0.0432,-0.163949 -0.0835,-0.328076 -0.12041,-0.492993 -0.0466,-0.207659 -0.0867,-0.41689 -0.12764,-0.625285 -0.0303,-0.153842 -0.0446,-0.309531 -0.0873,-0.461471 -0.14768,-0.526403 -0.32949,-1.047615 -0.53692,-1.561662 l -2.16266,-2.648417 c -0.0862,-0.05982 -0.16006,-0.130261 -0.24908,-0.187068 -0.20561,-0.131214 -0.43454,-0.236744 -0.65525,-0.351917 l 1.95905,0.545703 3.22461,0.905888 3.23029,0.900204 2.29495,0.5302 2.27687,0.316259 2.2412,0.09508 2.18747,-0.130741 2.12183,-0.351917 2.03812,-0.578259 1.93735,-0.786515 1.81798,-1.102775 1.6986,-1.496033 1.54926,-1.60352 1.39475,-1.638659 1.23403,-1.549777 1.49603,-2.461865 0.447,-0.977201 0.68523,-2.080493 0.50075,-2.15129 0.29817,-2.211235 0.10129,-2.241207 -0.10129,-2.258777 -0.29817,-2.253092 v -0.0062 l -0.50075,-2.288749 -0.68523,-2.318205 -0.88211,-2.276864 -1.06092,-2.235005 -1.23403,-2.163693 -1.39475,-2.092378 -1.54926,-2.008147 -1.6986,-1.907377 -1.81798,-1.79989 -1.93735,-1.674833 -2.03812,-1.544092 -2.0624,-1.400431 h -0.006 L 207.90522,11.69541 206.00973,10.628809 204.17419,9.7704631 202.37378,9.0314901 199.88246,8.161259 198.55334,7.7023722 198.142,7.5592285 197.37305,7.2910278 194.75667,6.4207967 191.96149,5.5624512 188.89191,4.7159912 186.23936,4.078304 185.50039,3.8995036 181.85255,3.1186727 178.02023,2.3915853 174.0923,1.7358114 170.13492,1.1637533 166.71343,0.75240885 166.24885,0.69866536 162.48784,0.34726562 158.9294,0.12660726 155.62728,0.05529378 h -3.23029 z m 0.93689,3.71398522 c 1.31406,0.00688 2.75623,0.011273 4.21473,0.025838 4.63141,0.067955 9.19887,0.3459649 13.81156,0.8903849 10.03761,1.1910594 19.99241,3.331636 29.58889,6.6280191 2.30109,0.753767 4.18358,1.32151 6.27869,2.554883 1.19359,0.697584 3.63001,2.067391 4.14496,2.393652 3.34984,2.122405 6.33009,4.783019 8.80929,7.89926 4.34212,5.42504 7.07564,12.454366 6.30504,19.468062 -0.25428,3.00845 -1.43661,5.889769 -3.28094,8.27133 -1.52767,1.87987 -3.10131,3.8277 -5.22914,5.058606 -3.51226,2.112678 -7.86073,2.208971 -11.75225,1.249019 -3.33582,-0.831396 -6.67464,-1.66445 -9.97665,-2.628263 -0.59004,-0.172225 -3.16064,-0.856533 -4.53771,-1.251603 -0.24305,-0.06973 -0.94774,-0.242337 -1.19218,-0.306958 -5.0739,-1.341325 -9.67953,-2.44718 -14.8487,-3.379639 -8.06525,-1.525212 -16.31002,-1.799518 -24.49876,-1.598869 -5.86017,0.108402 -11.65807,0.852228 -17.39688,1.953886 -4.31081,0.82753 -8.69818,1.864088 -12.94391,2.978113 -1.40643,0.369031 -4.10621,1.120862 -4.10621,1.120862 0,0 -8.66266,2.665653 -13.13615,3.411161 -3.576829,0.623546 -7.585377,0.281989 -10.735775,-1.770951 -1.616924,-1.210919 -3.056451,-2.655946 -4.314982,-4.243152 l -0.33538,0.03256 -0.721403,-0.07183 -0.256315,-0.07751 -0.435116,-0.130741 -0.643371,-0.340031 -0.161231,-0.136943 -0.399459,-0.328145 -0.458886,-0.560173 -0.262,-0.488859 -0.07752,-0.148828 -0.214457,-0.697115 -0.07183,-0.721403 0.07183,-0.721403 0.214457,-0.690914 0.07752,-0.155029 0.262,-0.488859 0.226859,-0.276469 c -1.223882,-4.360535 -0.733573,-9.193873 0.700732,-13.348539 1.798651,-5.189864 4.73648,-9.318685 8.812899,-12.950114 l 3.152779,-2.612244 c 1.316852,-1.002775 2.183432,-1.578529 3.605465,-2.410189 3.455704,-1.993263 7.291364,-3.419922 11.121284,-4.657596 13.37821,-4.1963843 26.09353,-6.5697873 40.08127,-6.7355066 0.0685,-7.585e-4 0.43195,-0.00701 0.50695,-0.00775 z m -0.93689,48.921045 h 3.22461 3.23029 l 3.23081,0.07131 3.22409,0.202572 3.23081,0.328145 3.2303,0.435116 3.22461,0.5302 3.23029,0.620117 3.23081,0.697115 3.22409,0.75706 3.23081,0.816488 1.01389,0.2682 c -0.19062,-0.0044 -0.38141,-0.0149 -0.57102,-10e-4 -0.307,0.02214 -0.61296,0.06845 -0.91002,0.134359 -0.2982,0.06611 -0.5922,0.15021 -0.8692,0.260449 -0.26524,0.10557 -0.51423,0.237394 -0.74982,0.380855 -0.21897,0.133344 -0.42658,0.280665 -0.61237,0.442867 -0.18619,0.162584 -0.34925,0.341999 -0.49868,0.5271 -0.16392,0.203119 -0.30319,0.419006 -0.43305,0.63717 -0.14788,0.248397 -0.26899,0.506299 -0.39325,0.762744 -0.14079,0.290552 -0.26219,0.586729 -0.39895,0.8785 -0.14029,0.299259 -0.27458,0.600699 -0.43201,0.894519 -0.14518,0.270986 -0.29525,0.541246 -0.47232,0.799951 -0.15803,0.230871 -0.32401,0.460088 -0.52504,0.668693 -0.18002,0.186824 -0.36977,0.374244 -0.60513,0.516764 -0.26389,0.159798 -0.56882,0.279301 -0.88211,0.365353 -0.4057,0.111423 -0.83931,0.146578 -1.26504,0.188619 -0.45231,0.04463 -0.90913,0.06163 -1.36478,0.06718 -0.43318,0.0055 -0.86706,-0.0082 -1.29914,-0.03256 -0.42364,-0.02387 -0.84651,-0.05897 -1.26607,-0.111105 -0.41895,-0.05198 -0.83939,-0.108024 -1.24696,-0.201021 -0.37495,-0.08554 -0.75376,-0.176265 -1.09502,-0.326595 -0.2933,-0.12922 -0.56733,-0.293552 -0.79995,-0.485758 -0.21227,-0.1754 -0.38385,-0.382955 -0.52917,-0.59738 -0.13774,-0.203289 -0.23025,-0.424895 -0.31884,-0.644922 -0.0837,-0.207742 -0.13336,-0.422958 -0.19999,-0.634586 -0.0622,-0.197625 -0.1219,-0.395581 -0.18655,-0.592729 -0.071,-0.215609 -0.14326,-0.431661 -0.22014,-0.645955 -0.0933,-0.25982 -0.19168,-0.518317 -0.29301,-0.776181 -0.10897,-0.277286 -0.21703,-0.554936 -0.33848,-0.828889 -0.11177,-0.252227 -0.23224,-0.501501 -0.35863,-0.749309 -0.11335,-0.222244 -0.24294,-0.439308 -0.35812,-0.660941 -0.1011,-0.194542 -0.19504,-0.391309 -0.29249,-0.587045 -0.0588,-0.118417 -0.11789,-0.237074 -0.17673,-0.355533 l -3.12126,-2.295468 c -0.26719,-0.08173 -0.53265,-0.166914 -0.80563,-0.235127 -0.42964,-0.107348 -0.86604,-0.200684 -1.3069,-0.273885 -0.4791,-0.07958 -0.96418,-0.134815 -1.45056,-0.178801 -0.54087,-0.04897 -1.08559,-0.07308 -1.62936,-0.09405 -1.16818,-0.04495 -2.33946,-0.02473 -3.50779,-0.06718 -0.0308,-8.96e-4 -0.0617,-0.0048 -0.0925,-0.0047 -0.58274,-0.0061 -1.16585,0.01922 -1.74667,0.05839 -0.57155,0.03863 -1.14318,0.08866 -1.70687,0.173633 -0.50289,0.0758 -1.00646,0.162532 -1.4888,0.299207 -0.38561,0.109253 -0.77283,0.232755 -1.11362,0.413411 -0.27873,0.147757 -0.53754,0.327623 -0.74259,0.538468 -0.19524,0.200757 -0.33097,0.437236 -0.44649,0.673861 -0.12117,0.248299 -0.18233,0.512954 -0.25425,0.773079 -0.0792,0.286836 -0.13035,0.577954 -0.19482,0.867131 -0.0743,0.33283 -0.13524,0.667869 -0.22117,0.998905 -0.099,0.381044 -0.20908,0.760095 -0.33848,1.135332 -0.13745,0.398482 -0.28156,0.796514 -0.46406,1.18339 -0.17868,0.378765 -0.37765,0.75337 -0.6165,1.110527 -0.22174,0.331576 -0.46397,0.657241 -0.75499,0.952913 -0.25912,0.263274 -0.55482,0.505867 -0.87436,0.722953 -0.27667,0.187961 -0.57961,0.352571 -0.89504,0.496611 -0.26639,0.121635 -0.54647,0.226444 -0.83612,0.307474 -0.24553,0.06874 -0.49955,0.122811 -0.75758,0.149345 -0.2311,0.02379 -0.46689,0.02195 -0.69918,0.0078 -0.23343,-0.01412 -0.46421,-0.05066 -0.69247,-0.09198 -0.23663,-0.0427 -0.46942,-0.09986 -0.6997,-0.160714 -0.21644,-0.05717 -0.43364,-0.11455 -0.63975,-0.192236 -0.18151,-0.06838 -0.35892,-0.146427 -0.52193,-0.239779 -0.15031,-0.08617 -0.28511,-0.189146 -0.41651,-0.293005 -0.13361,-0.105598 -0.25051,-0.22313 -0.37673,-0.334347 -0.14702,-0.129515 -0.29588,-0.25749 -0.44286,-0.387056 -0.19714,-0.173717 -0.40468,-0.341296 -0.5886,-0.523999 -0.21578,-0.214347 -0.32353,-0.636661 -0.39687,-0.865581 -0.0952,-0.297315 -0.16826,-0.538341 -0.24443,-0.829406 -0.0851,-0.325005 -0.11739,-0.564795 -0.18087,-0.842843 -0.0354,-0.21851 -0.0534,-0.43363 -0.0904,-0.77928 -0.12475,-0.575384 -0.37452,-0.955799 -0.66559,-1.274858 -0.29107,-0.31906 -1.75447,-1.388664 -2.77864,-1.799373 -0.34373,-0.137839 -0.79176,-0.2033 -1.09141,-0.20774 -0.34294,-0.0048 -0.68647,0.0069 -1.02836,0.02946 -0.36869,0.02434 -0.73523,0.07106 -1.10123,0.114205 -0.36786,0.04334 -0.73332,0.09926 -1.1007,0.145211 -0.35102,0.04389 -0.70156,0.08993 -1.0542,0.12454 -0.39444,0.03873 -0.79053,0.06668 -1.18649,0.09353 -0.0318,0.0022 -0.0638,0.0031 -0.0956,0.0052 l 2.29443,-0.538469 3.23029,-0.697115 3.22461,-0.620117 3.2303,-0.5302 3.23081,-0.435116 3.22409,-0.328145 3.23081,-0.202572 z M 114.7135,58.59539 c -0.13887,0.884313 0.0366,1.784665 0.0439,2.676839 1.2e-4,0.014 8e-5,0.02786 0,0.04186 -0.001,0.252139 -0.005,0.504438 -0.0108,0.756543 -0.006,0.259188 -0.0136,0.518114 -0.0238,0.777213 -0.0104,0.253982 -0.0246,0.507802 -0.0372,0.761711 -0.012,0.243415 -0.0215,0.487397 -0.0367,0.730705 -0.0142,0.227785 -0.0285,0.455228 -0.0501,0.682645 -0.0191,0.203459 -0.0415,0.407082 -0.0708,0.609782 -0.0251,0.17394 -0.0472,0.348154 -0.0904,0.519865 -0.0419,0.167036 -0.097,0.332535 -0.1633,0.494544 -0.0724,0.17723 -0.15698,0.351741 -0.25528,0.520898 -0.0967,0.16646 -0.20183,0.330807 -0.32815,0.484208 -0.1108,0.134528 -0.23727,0.261856 -0.37465,0.379822 -0.13341,0.114575 -0.28165,0.217882 -0.43408,0.31626 -0.1655,0.106802 -0.33789,0.20798 -0.51987,0.296106 -0.19164,0.09275 -0.39205,0.175031 -0.59893,0.243913 -0.20915,0.06961 -0.42669,0.122685 -0.64543,0.170015 -0.22761,0.04927 -0.45945,0.08629 -0.69195,0.117822 -0.2489,0.03374 -0.50109,0.05023 -0.75138,0.07648 -0.24841,0.02614 -0.49752,0.05028 -0.74517,0.08062 -0.23788,0.02921 -0.47518,0.06105 -0.71159,0.09715 -0.21169,0.03231 -0.42119,0.07302 -0.63252,0.106971 -0.19947,0.03208 -0.39942,0.06399 -0.59996,0.09147 -0.17743,0.0243 -0.35467,0.04761 -0.5333,0.06511 -0.14675,0.01439 -0.29416,0.02738 -0.44183,0.03307 -0.12075,0.0044 -0.24211,0.0066 -0.36277,0.001 -0.10189,-0.0047 -0.20434,-0.01126 -0.30334,-0.03049 -0.0912,-0.01779 -0.18271,-0.0403 -0.26407,-0.07751 -0.0865,-0.03961 -0.16408,-0.09333 -0.23151,-0.151929 -0.0844,-0.07332 -0.15236,-0.158825 -0.21136,-0.246496 -0.0728,-0.107956 -0.12906,-0.223164 -0.17311,-0.340548 -0.0487,-0.129889 -0.0837,-0.263933 -0.0997,-0.398942 -0.0169,-0.142927 -0.0185,-0.288626 0.006,-0.430982 0.0263,-0.156199 0.0813,-0.30947 0.14986,-0.457336 0.078,-0.168297 0.19796,-0.322335 0.29507,-0.484208 0.10185,-0.16969 0.21231,-0.33637 0.30128,-0.510563 0.093,-0.182179 0.17678,-0.367485 0.24236,-0.557072 0.0679,-0.196714 0.1219,-0.397265 0.15606,-0.599447 0.0355,-0.210454 0.0554,-0.423869 0.0501,-0.636137 -0.005,-0.228689 -0.0323,-0.457772 -0.0878,-0.682129 -0.0605,-0.245083 -0.14725,-0.487726 -0.26613,-0.718819 -0.12256,-0.238311 -0.26824,-0.472495 -0.45682,-0.681612 -0.18767,-0.208091 -0.41643,-0.393153 -0.66146,-0.559139 -0.24005,-0.162625 -0.50985,-0.297495 -0.78393,-0.42168 l 0.66714,-0.153995 3.22461,-0.900204 3.23029,-0.905888 3.2303,-0.899686 z"
     inkscape:label="Acrylic"
     sodipodi:nodetypes="ccccccccccccccccccccccccccccccccccccccccccccccccccccccscccccccscccscccccsssscccccccccccsccccccccccccccsccccccccccsssccccccsccssscccscsssssccsccccsscssscscccsssscccssscssscsccccccssssscssssscscsccccssccccsssccssccccccsccccccccccccccccccccccccccccccccccccccccccccccccccccccccccccccsccccscccccsscccsscccccccccccccccccccccccccccsscccccccccccccccssccssssssssccscssscccccscsscccsccccccsssscccccssssscccccccsccssscczaccccccccccccccccsccccsccccscccccccccccccccccccscccccccccccccccccc" />
  <g
     inkscape:groupmode="layer"
     id="layer1"
     inkscape:label="Board Outline"
     style="display:inline" />
  <g
     inkscape:groupmode="layer"
     id="layer2"
     inkscape:label="LEDS"
     style="display:inline">
    <rect
       style="fill:#802b2b;fill-opacity:1;stroke-width:0.0433271;stroke-linecap:round;stroke-linejoin:round"
       id="rect6"
       width="4.0000858"
       height="1.5000323"
       x="146.97397"
       y="-8.6121225"
       transform="rotate(29.726354)" />
    <rect
       style="fill:#802b2b;fill-opacity:1;stroke-width:0.0433271;stroke-linecap:round;stroke-linejoin:round"
       id="rect7"
       width="4.0000858"
       height="1.5000323"
       x="196.5016"
       y="0.78328037"
       transform="rotate(15.389263)" />
    <rect
       style="fill:#802b2b;fill-opacity:1;stroke-width:0.0433271;stroke-linecap:round;stroke-linejoin:round"
       id="rect8"
       width="4.0000858"
       height="1.5000323"
       x="95.062393"
       y="81.453621"
       transform="rotate(-15.248082)" />
    <rect
       style="fill:#802b2b;fill-opacity:1;stroke-width:0.0433271;stroke-linecap:round;stroke-linejoin:round"
       id="rect9"
       width="4.0000858"
       height="1.5000323"
       x="57.915482"
       y="73.925484"
       transform="rotate(-39.51603)" />
    <rect
       style="fill:#802b2b;fill-opacity:1;stroke-width:0.0433271;stroke-linecap:round;stroke-linejoin:round"
       id="rect10"
       width="4.0000858"
       height="1.5000323"
       x="150.22359"
       y="2.9358561"
       transform="rotate(0.3218708)" />
    <rect
       style="fill:#802b2b;fill-opacity:1;stroke-width:0.0433271;stroke-linecap:round;stroke-linejoin:round"
       id="rect11"
       width="4.0000858"
       height="1.5000323"
       x="184.54143"
       y="-89.363686"
       transform="rotate(29.810903)" />
    <rect
       style="fill:#802b2b;fill-opacity:1;stroke-width:0.0433271;stroke-linecap:round;stroke-linejoin:round"
       id="rect1-0-5-2"
       width="4.0000858"
       height="1.5000323"
       x="120.82184"
       y="-5.0089836"
       transform="rotate(37.189668)" />
    <rect
       style="fill:#802b2b;fill-opacity:1;stroke-width:0.0433271;stroke-linecap:round;stroke-linejoin:round"
       id="rect1-1-5-8"
       width="4.0000858"
       height="1.5000323"
       x="163.17694"
       y="-54.054272"
       transform="rotate(36.338742)" />
    <rect
       style="fill:#802b2b;fill-opacity:1;stroke-width:0.0433271;stroke-linecap:round;stroke-linejoin:round"
       id="rect1-6-4-7"
       width="4.0000858"
       height="1.5000323"
       x="185.37907"
       y="-118.71343"
       transform="rotate(50.762553)" />
  </g>
  <path
     id="path3"
     style="display:inline;fill:none;fill-opacity:0;fill-rule:evenodd;stroke:#191919;stroke-width:0.26458333;stroke-linecap:square;stroke-miterlimit:4;stroke-dasharray:none;stroke-opacity:1;vector-effect:non-scaling-stroke;-inkscape-stroke:hairline"
     inkscape:label="Silk"
     d="m 149.17238,0.05529378 -3.30213,0.07131348 -3.56412,0.22065836 -3.76101,0.35139974 -1.31723,0.16123047 -2.56264,0.30385747 -3.9579,0.5720581 -3.92792,0.6557739 -3.83233,0.7270874 -3.65352,0.7808309 -0.91777,0.2206583 -0.40566,0.1012859 -2.06189,0.4945434 -3.06958,0.84646 -2.80138,0.8583455 -2.61069,0.8702311 -2.5151,0.8702312 -2.48563,0.8702311 -1.79989,0.738973 -1.836067,0.8583459 -1.894975,1.066601 -1.979207,1.245919 -2.068091,1.400431 -2.032434,1.544092 -1.936833,1.674833 -1.824178,1.79989 -1.692403,1.907377 -1.549776,2.008663 -1.400948,2.091862 -1.233517,2.163693 -1.055232,2.235005 -0.882117,2.276864 -0.690914,2.318721 -0.49506,2.28875 v 0.0057 l -0.297656,2.253092 -0.101803,2.258777 0.101803,2.241207 0.297656,2.211235 0.49506,2.151806 0.690914,2.079977 v 0.0057 l 0.447518,0.971517 1.489831,2.461865 1.233517,1.549777 1.400948,1.638659 1.549776,1.60352 1.692403,1.496033 1.824178,1.102775 1.936833,0.786515 2.032434,0.578259 2.121834,0.351917 2.193665,0.130741 2.24069,-0.09508 2.276861,-0.316259 2.29495,-0.5302 3.22461,-0.900204 3.2303,-0.905888 3.23029,-0.899686 3.22461,-0.882117 3.23081,-0.852661 3.23029,-0.816488 3.22461,-0.75706 3.2303,-0.697115 3.22461,-0.620117 3.23029,-0.5302 3.23081,-0.435116 3.22409,-0.328145 3.23081,-0.202572 3.2303,-0.07131 h 3.22461 3.23029 l 3.23081,0.07131 3.22409,0.202572 3.23081,0.328145 3.2303,0.435116 3.22461,0.5302 3.23029,0.620117 3.23081,0.697115 3.22409,0.75706 3.23081,0.816488 3.22461,0.852661 3.2303,0.882117 3.23029,0.899686 3.22461,0.905888 3.23029,0.900204 2.29495,0.5302 2.27687,0.316259 2.2412,0.09508 2.18747,-0.130741 2.12183,-0.351917 2.03812,-0.578259 1.93735,-0.786515 1.81798,-1.102775 1.6986,-1.496033 1.54926,-1.60352 1.39475,-1.638659 1.23403,-1.549777 1.49603,-2.461865 0.447,-0.977201 0.68523,-2.080493 0.50075,-2.15129 0.29817,-2.211235 0.10129,-2.241207 -0.10129,-2.258777 -0.29817,-2.253092 v -0.0062 l -0.50075,-2.288749 -0.68523,-2.318205 -0.88211,-2.276864 -1.06092,-2.235005 -1.23403,-2.163693 -1.39475,-2.092378 -1.54926,-2.008147 -1.6986,-1.907377 -1.81798,-1.79989 -1.93735,-1.674833 -2.03812,-1.544092 -2.0624,-1.400431 h -0.006 l -1.9727,-1.245952 -1.89549,-1.066601 -1.83554,-0.8583459 -1.80041,-0.738973 L 199.88246,8.161259 198.55334,7.7023722 198.142,7.5592285 197.37305,7.2910278 194.75667,6.4207967 191.96149,5.5624512 188.89191,4.7159912 186.23936,4.078304 185.50039,3.8995036 181.85255,3.1186727 178.02023,2.3915853 174.0923,1.7358114 170.13492,1.1637533 166.71343,0.75240885 166.24885,0.69866536 162.48784,0.34726562 158.9294,0.12660726 155.62728,0.05529378 h -3.23029 z M 84.976813,45.122827 l 0.375171,0.04134 0.345715,0.02997 0.697632,0.214457 0.417029,0.220658 0.220658,0.119373 0.560173,0.458886 0.465087,0.560173 0.303858,0.572058 0.03566,0.07183 0.208772,0.691431 0.07131,0.720886 -0.07131,0.721403 -0.208772,0.697115 -0.03566,0.07183 -0.303858,0.565856 -0.465087,0.560173 -0.560173,0.465088 -0.220658,0.119372 -0.417029,0.220659 -0.697632,0.208256 -0.345715,0.03566 -0.03979,0.0036 -0.33538,0.03256 -0.721404,-0.07183 -0.256314,-0.0775 -0.435116,-0.130741 -0.643371,-0.340031 -0.161231,-0.136943 -0.399459,-0.328145 -0.458886,-0.560173 -0.262,-0.488859 -0.07752,-0.148828 -0.214457,-0.697115 -0.07183,-0.721403 0.07183,-0.721403 0.214457,-0.690914 0.07752,-0.155029 0.262,-0.488859 0.226859,-0.276469 0.232028,-0.283704 0.399458,-0.321944 0.161231,-0.136942 0.643372,-0.340031 0.435115,-0.136943 0.256315,-0.07751 z M 152.40039,34.744141 C 63.458435,34.744141 6.1386719,87.59375 6.1386719,87.59375 a 19.049999,19.049999 0 0 0 -1.0957032,26.91797 19.049999,19.049999 0 0 0 26.9199223,1.09375 c 0,0 46.39628,-42.76172 120.437499,-42.76172 74.04122,0 120.4375,42.76172 120.4375,42.76172 a 19.049999,19.049999 0 0 0 26.91797,-1.09375 19.049999,19.049999 0 0 0 -1.09375,-26.91797 c 0,0 -57.31976,-52.849609 -146.26172,-52.849609 z" />
</svg>
