<?xml version="1.0" encoding="UTF-8" standalone="no"?>
<svg
   width="12in"
   height="6in"
   viewBox="0 0 304.79998 152.4"
   version="1.1"
   id="svg1"
   sodipodi:docname="pcb-silk-longdog.svg"
   inkscape:version="1.3.2 (091e20e, 2023-11-25, custom)"
   xmlns:inkscape="http://www.inkscape.org/namespaces/inkscape"
   xmlns:sodipodi="http://sodipodi.sourceforge.net/DTD/sodipodi-0.dtd"
   xmlns="http://www.w3.org/2000/svg"
   xmlns:svg="http://www.w3.org/2000/svg">
  <defs
     id="defs1">
    <inkscape:path-effect
       effect="spiro"
       id="path-effect72"
       is_visible="true"
       lpeversion="1" />
  </defs>
  <sodipodi:namedview
     id="namedview1"
     pagecolor="#e30000"
     bordercolor="#000000"
     borderopacity="0.3254902"
     inkscape:showpageshadow="2"
     inkscape:pageopacity="0.0"
     inkscape:pagecheckerboard="0"
     inkscape:deskcolor="#d1d1d1"
     inkscape:document-units="mm"
     inkscape:zoom="1"
     inkscape:cx="569.49998"
     inkscape:cy="336.49999"
     inkscape:window-width="1920"
     inkscape:window-height="1017"
     inkscape:window-x="1912"
     inkscape:window-y="-8"
     inkscape:window-maximized="1"
     inkscape:current-layer="layer6" />
  <g
     inkscape:groupmode="layer"
     id="layer1"
     inkscape:label="Board Outline"
     style="display:none"
     transform="translate(0,69.823439)">
    <g
       id="g145"
       transform="matrix(0.7878302,0,0,0.7878302,32.334676,1.6203935)"
       style="display:none;vector-effect:non-scaling-stroke;fill:none;stroke:#000000;stroke-width:0.335838;stroke-dasharray:none;stroke-opacity:1;-inkscape-stroke:hairline">
      <path
         id="path72"
         style="color:#000000;display:none;vector-effect:non-scaling-stroke;fill:none;stroke:#000000;stroke-width:0.335838;stroke-linecap:round;stroke-linejoin:bevel;stroke-dasharray:none;stroke-dashoffset:9.14117;stroke-opacity:1;-inkscape-stroke:hairline;paint-order:markers stroke fill"
         d="m 145.81074,17.257345 -6.74068,0.101802 -7.27655,0.315226 -7.67809,0.502812 -2.68924,0.22996 -5.23224,0.434599 -8.07961,0.818038 -8.01863,0.936894 -7.823813,1.039729 -7.458976,1.116211 -1.873787,0.315227 -0.82734,0.144694 -4.210596,0.706933 -6.266284,1.210262 -5.719031,1.226799 -5.32939,1.243851 -5.135087,1.243852 -5.074109,1.243852 -3.674711,1.056266 -3.747575,1.227315 -3.869531,1.524972 -4.039547,1.78077 -4.222481,2.001945 -4.149101,2.206583 -3.954798,2.39417 -3.723286,2.572969 -3.455604,2.726449 -3.163631,2.871142 -2.8597735,2.990515 -2.5187093,3.092835 -2.1538737,3.195154 -1.8004069,3.254581 -1.4118001,3.31401 -1.00975749,3.271635 v 0.0088 l -0.60823161,3.220475 -0.20722249,3.22926 0.20722249,3.203423 0.60823161,3.161047 1.00975749,3.075264 1.4118001,2.973462 v 0.0093 l 0.42323,0.643888 c -9.297888,2.447875 -18.5430666,5.100207 -27.7109696,8.00623 a 24.254999,24.254999 0 0 0 -15.792835,30.448784 24.254999,24.254999 0 0 0 30.4487875,15.79335 C 42.682767,126.77414 97.565588,118.28374 152.39897,118.28374 c 54.83339,0 109.71618,8.4904 161.98649,25.05893 a 24.254999,24.254999 0 0 0 30.45086,-15.79335 24.254999,24.254999 0 0 0 -15.79284,-30.448787 c -9.16858,-2.906238 -18.41437,-5.558725 -27.71304,-8.006746 l 0.4253,-0.650607 1.3994,-2.973462 1.02164,-3.075781 0.60875,-3.161047 0.20722,-3.203422 -0.20722,-3.22926 -0.60875,-3.220476 v -0.0088 l -1.02164,-3.271635 -1.3994,-3.314009 -1.80092,-3.254582 -2.16576,-3.195154 -2.51871,-3.092834 -2.84737,-2.990515 -3.16363,-2.871143 -3.46801,-2.726449 -3.7114,-2.572969 -3.95428,-2.394169 -4.1615,-2.206584 -4.21008,-2.001945 h -0.0124 l -4.02662,-1.78077 -3.86953,-1.524971 -3.74758,-1.226799 -3.67574,-1.056783 -5.086,-1.243851 -2.71353,-0.655774 -0.83974,-0.204639 -1.56941,-0.383439 -5.3418,-1.243852 -5.70662,-1.226798 -6.2668,-1.209746 -5.41466,-0.911572 -1.50895,-0.255798 -7.44658,-1.116211 -7.82433,-1.039213 -8.01863,-0.937411 -8.07961,-0.818038 -6.98407,-0.587561 -0.94929,-0.07648 -7.67809,-0.502812 -7.26415,-0.315226 -6.74119,-0.102319 h -6.59495 z m -10.4619,52.793676 c -0.97065,0.02846 -1.94148,0.05092 -2.91196,0.08423 0.9706,-0.03343 1.94118,-0.05567 2.91196,-0.08423 z m 34.10025,0 c 0.97079,0.02856 1.94136,0.0508 2.91197,0.08423 -0.97049,-0.03331 -1.94131,-0.05577 -2.91197,-0.08423 z m -53.55746,0.889352 c -0.88945,0.05583 -1.77836,0.120454 -2.66753,0.18035 0.88932,-0.06009 1.77793,-0.12434 2.66753,-0.18035 z m 73.01725,5.16e-4 c 0.88719,0.05586 1.7734,0.119402 2.66031,0.179318 -0.8868,-0.05973 -1.77323,-0.123634 -2.66031,-0.179318 z M 78.079472,74.553072 c -0.404324,0.05186 -0.809149,0.09974 -1.213363,0.152446 0.40426,-0.05282 0.808993,-0.100471 1.213363,-0.152446 z m 148.644678,0.001 c 0.40142,0.0516 0.80326,0.09846 1.20457,0.150895 -0.40127,-0.05232 -0.80319,-0.09941 -1.20457,-0.150895 z M 59.105953,77.302775 c -0.315884,0.05106 -0.631429,0.103968 -0.947229,0.155546 0.315825,-0.05166 0.63132,-0.104399 0.947229,-0.155546 z m 186.601017,0.0021 c 0.30439,0.04929 0.60829,0.10061 0.9126,0.150379 -0.30428,-0.04968 -0.60825,-0.101174 -0.9126,-0.150379 z"
         transform="translate(0,-69.823439)" />
    </g>
    <circle
       style="display:none;vector-effect:non-scaling-stroke;fill:none;fill-opacity:1;stroke:#000000;stroke-width:0.264583;stroke-linecap:round;stroke-linejoin:bevel;stroke-dasharray:none;stroke-dashoffset:9.14117;stroke-opacity:1;-inkscape-stroke:hairline;paint-order:markers stroke fill"
       id="path145"
       cx="152.39999"
       cy="34.681862"
       r="3.7417734" />
  </g>
  <g
     inkscape:groupmode="layer"
     id="layer6"
     inkscape:label="SILK"
     style="display:inline">
    <g
       id="g72"
       transform="matrix(1.00008,0,0,0.79403997,-0.01218808,16.115794)"
       style="display:none">
      <g
         id="g305"
         style="display:inline;fill:none;fill-opacity:1;stroke:#000000;stroke-opacity:1"
         transform="translate(134.79969,41.712312)" />
      <g
         id="g159"
         style="display:inline;fill:none;fill-opacity:1;stroke:#000000;stroke-opacity:1"
         transform="translate(134.79969,41.712312)" />
      <g
         id="g4"
         transform="matrix(2.0386975,0,0,1.8171216,-158.2975,-62.264666)"
         style="display:inline" />
    </g>
    <path
       style="display:inline;vector-effect:non-scaling-stroke;fill:#ffffff;fill-opacity:1;fill-rule:evenodd;stroke:none;stroke-width:0.357521;stroke-linecap:square;-inkscape-stroke:hairline"
       d="m 148.66764,29.213116 c -19.15933,0.131335 -38.25171,2.117377 -56.862062,5.776216 -6.718706,1.330337 -13.404418,2.85067 -19.967701,4.635714 C 62.135084,42.42302 53.169799,46.86829 45.837359,52.644485 39.39971,57.786952 34.62297,64.346432 33.081596,71.510937 c -1.012623,4.652709 -0.641541,9.531841 1.632285,13.960806 1.977774,3.899419 5.458641,7.207219 9.468392,9.902449 3.943243,2.78423 8.879689,4.737768 14.14009,5.266748 6.147898,0.72326 12.338835,0.0263 18.325237,-1.126928 13.212397,-2.41576 26.28474,-5.40859 39.68093,-7.17242 12.66473,-1.8087 25.54695,-2.69822 38.41712,-2.48693 12.92215,0.0763 25.84852,1.06484 38.49774,3.18745 13.80919,2.18514 27.37514,5.19993 41.16745,7.444948 5.81804,0.79779 11.98856,0.66494 17.60783,-0.988568 5.99513,-1.74164 10.85615,-5.3024 14.64944,-9.2947 3.0433,-3.19425 4.99942,-7.084204 5.40947,-11.04231 0.87561,-6.77557 -1.62209,-13.623026 -6.15945,-19.38304 -2.94485,-3.799177 -6.67526,-7.177424 -10.90279,-10.068616 -3.92659,-2.700749 -8.27255,-4.936397 -12.89216,-6.836224 -5.14828,-2.197796 -10.652,-3.996809 -16.30412,-5.168789 -25.02585,-5.817486 -51.0804,-8.711281 -77.15142,-8.491697 z"
       id="path6" />
    <path
       style="display:none;fill:none;fill-opacity:1;fill-rule:evenodd;stroke:#ffe327;stroke-width:1.71;stroke-linecap:square;stroke-miterlimit:4;stroke-dasharray:none;stroke-opacity:1"
       d="m 149.17244,34.966258 -3.30199,0.07151 -3.56425,0.220528 -3.76094,0.351655 -1.31722,0.160932 -2.56292,0.303975 -3.95763,0.572182 -3.92783,0.655631 -3.83246,0.727151 -3.65365,0.780796 -0.91789,0.220527 -0.4053,0.101267 -2.06225,0.494788 -3.06955,0.846359 -2.80133,0.858281 -2.6106,0.870202 -2.51524,0.8702 -2.48544,0.870201 -1.80001,0.739075 -1.83576,0.858282 -1.89537,1.06689 -1.97882,1.245699 -2.06821,1.400665 -2.03246,1.543714 -1.93709,1.67484 -1.82385,1.800005 -1.69272,1.90729 -1.54967,2.008616 -1.40067,2.092058 -1.23378,2.163583 -1.05497,2.235106 -0.88212,2.276828 -0.69139,2.31855 -0.49471,2.288748 v 0.006 l -0.29801,2.25298 -0.10132,2.25895 0.10132,2.24107 0.29801,2.21126 0.49471,2.15167 0.69139,2.08013 v 0.006 l 0.44702,0.97154 -0.44702,1.20397 -0.69139,2.31855 -0.49471,2.28875 -0.29801,2.25299 -0.10132,2.25894 0.10132,2.24107 v 0.006 l 0.29801,2.205308 0.49471,2.15166 v 0.006 l 0.69139,2.08014 0.88212,1.99073 1.05497,1.8775 1.23378,1.74636 1.40067,1.59139 v 0.006 l 1.54967,1.42452 1.69272,1.19801 1.82385,0.99537 1.93709,0.79272 2.03246,0.57219 2.12186,0.35167 2.19338,0.13114 2.24107,-0.09 2.27682,-0.31591 2.29471,-0.53044 3.22452,-0.90599 3.23047,-0.90598 3.23047,-0.89999 3.22451,-0.88211 3.23048,-0.85235 3.23047,-0.8106 3.22451,-0.75696 3.23048,-0.69734 3.22451,-0.61983 3.23047,-0.53044 3.23048,-0.43506 3.22451,-0.32779 3.23047,-0.20265 3.23047,-0.0657 h 3.22452 3.23047 l 3.23047,0.0657 3.22451,0.20265 3.23048,0.32779 3.23047,0.43506 3.22451,0.53044 3.23048,0.61983 3.23047,0.69734 3.22451,0.75696 3.23048,0.8106 3.2245,0.85235 3.23047,0.88211 3.23049,0.89999 3.2245,0.90598 3.23047,0.90599 2.29472,0.53044 2.27683,0.31591 v -0.005 l 2.24105,0.0957 2.18744,-0.13114 2.12186,-0.35167 2.03841,-0.57219 1.93709,-0.79272 1.82385,-0.99538 1.69271,-1.198 1.54968,-1.42451 v -0.006 l 1.39471,-1.5914 1.23377,-1.74636 1.06088,-1.87749 0.88212,-1.99073 0.68545,-2.08015 v -0.006 l 0.50068,-2.15166 0.29804,-2.205308 v -0.006 l 0.10145,-2.24106 -0.10145,-2.25895 -0.29804,-2.25299 -0.50068,-2.28875 -0.68545,-2.31855 -0.44706,-1.20397 0.44706,-0.97748 0.68545,-2.08014 0.50068,-2.15167 0.29804,-2.21126 0.10145,-2.24107 -0.10145,-2.25894 -0.29804,-2.25299 v -0.006 l -0.50064,-2.288747 -0.68544,-2.31855 -0.88212,-2.276828 -1.06093,-2.235106 -1.23377,-2.163584 -1.39471,-2.092058 -1.54968,-2.008615 -1.69867,-1.90729 -1.81789,-1.800005 -1.93709,-1.67484 -2.03841,-1.543714 -2.06226,-1.400665 h -0.006 l -1.97235,-1.245579 -1.89537,-1.066893 -1.83576,-0.858279 -1.80049,-0.739109 -2.49138,-0.870206 -1.32916,-0.458943 -0.41129,-0.143043 -0.76884,-0.268209 -2.61657,-0.870205 -2.79537,-0.85828 -3.06955,-0.846366 -2.65232,-0.637753 -0.73908,-0.178809 -3.64769,-0.780795 -3.83246,-0.727152 -3.92783,-0.65563 -3.95762,-0.572183 -3.42121,-0.411262 -0.46489,-0.05363 -3.76095,-0.351655 -3.55829,-0.220528 -3.30199,-0.07151 h -3.23046 z"
       id="pcb001_f0000-4-4" />
    <g
       id="g1"
       inkscape:label="acrylic"
       style="display:none"
       transform="matrix(1.606276,0,0,1.1367344,32.250758,29.865853)">
      <path
         style="display:inline;vector-effect:non-scaling-stroke;fill:none;fill-opacity:1;fill-rule:evenodd;stroke:#000000;stroke-width:0.264583;stroke-linecap:square;-inkscape-stroke:hairline"
         d="m 36.060865,58.8832 -3.230294,0.899686 -3.230294,0.905888 -3.224609,0.900204 -0.667143,0.153995 c 0.27408,0.124185 0.543886,0.259055 0.783932,0.42168 0.245028,0.165986 0.473789,0.351048 0.661458,0.559139 0.188582,0.209117 0.334258,0.443301 0.45682,0.681612 0.118885,0.231093 0.205593,0.473736 0.266133,0.718819 0.05556,0.224357 0.08305,0.45344 0.08785,0.682129 0.0052,0.212268 -0.01464,0.425683 -0.05013,0.636137 -0.03416,0.202182 -0.08812,0.402733 -0.156063,0.599447 -0.06558,0.189587 -0.149382,0.374893 -0.242362,0.557072 -0.08896,0.174193 -0.199424,0.340873 -0.301274,0.510563 -0.09712,0.161873 -0.217042,0.315911 -0.295072,0.484208 -0.06854,0.147866 -0.123582,0.301137 -0.149862,0.457336 -0.02417,0.142356 -0.02258,0.288055 -0.0057,0.430982 0.01606,0.135009 0.05099,0.269053 0.09973,0.398942 0.04405,0.117384 0.100346,0.232592 0.173116,0.340548 0.059,0.08767 0.127007,0.173176 0.211357,0.246496 0.06743,0.0586 0.14498,0.112319 0.23151,0.151929 0.08136,0.03721 0.172907,0.05972 0.264067,0.07751 0.099,0.01923 0.201452,0.02579 0.303341,0.03049 0.120661,0.0056 0.242021,0.0034 0.362768,-0.001 0.147675,-0.0057 0.295079,-0.01868 0.441834,-0.03307 0.178633,-0.0175 0.355871,-0.04081 0.5333,-0.06511 0.200542,-0.02748 0.400487,-0.05939 0.599964,-0.09147 0.211321,-0.03395 0.420826,-0.07466 0.632519,-0.106971 0.236405,-0.0361 0.473708,-0.06794 0.711585,-0.09715 0.247653,-0.03034 0.496766,-0.05448 0.745174,-0.08062 0.250289,-0.02625 0.502476,-0.04274 0.751375,-0.07648 0.232501,-0.03153 0.464339,-0.06855 0.691948,-0.117822 0.218746,-0.04733 0.436281,-0.100405 0.645438,-0.170015 0.206881,-0.06888 0.407288,-0.151163 0.59893,-0.243913 0.181977,-0.08813 0.354363,-0.189304 0.519865,-0.296106 0.15243,-0.09838 0.300676,-0.201685 0.434082,-0.31626 0.137375,-0.117966 0.263847,-0.245294 0.374654,-0.379822 0.126316,-0.153401 0.231406,-0.317748 0.328146,-0.484208 0.0983,-0.169157 0.182881,-0.343668 0.255281,-0.520898 0.06628,-0.162009 0.121358,-0.327508 0.163298,-0.494544 0.04322,-0.171711 0.06532,-0.345925 0.09043,-0.519865 0.02932,-0.2027 0.05169,-0.406323 0.0708,-0.609782 0.02163,-0.227417 0.03592,-0.45486 0.05013,-0.682645 0.01518,-0.243308 0.02468,-0.48729 0.03669,-0.730705 0.01264,-0.253909 0.0268,-0.507729 0.03721,-0.761711 0.01022,-0.259099 0.01767,-0.518025 0.02377,-0.777213 0.0053,-0.252105 0.0097,-0.504404 0.01085,-0.756543 8.3e-5,-0.014 1.18e-4,-0.02786 0,-0.04186 -0.0074,-0.892174 -0.18279,-1.792526 -0.04392,-2.676839 z"
         id="path3" />
      <path
         style="display:inline;vector-effect:non-scaling-stroke;fill:none;fill-opacity:1;fill-rule:evenodd;stroke:#000000;stroke-width:0.264583;stroke-linecap:square;-inkscape-stroke:hairline"
         d="m 68.342089,52.761695 -3.230811,0.202572 -3.224092,0.328145 -3.230811,0.435116 -3.230294,0.5302 -3.224609,0.620117 -3.230294,0.697115 -2.294434,0.538469 c 0.03183,-0.0021 0.526791,0.01354 0.558621,0.01134 0.395966,-0.02685 0.557046,-0.06841 0.951484,-0.107143 0.24448,-0.0463 0.475165,-0.08357 0.826185,-0.127463 0.367385,-0.04595 0.732845,-0.101871 1.100708,-0.145211 0.365995,-0.04315 0.732537,-0.08987 1.101225,-0.114205 0.341889,-0.02256 0.685425,-0.03426 1.028361,-0.02946 0.299651,0.0044 0.74768,0.0699 1.091406,0.20774 1.024178,0.410709 2.48757,1.480313 2.778642,1.799373 0.291072,0.319059 0.540845,0.699474 0.665592,1.274858 0.03707,0.34565 0.05498,0.56077 0.09043,0.77928 0.06348,0.278048 0.09581,0.517838 0.180867,0.842843 0.07617,0.291065 0.14918,0.532091 0.24443,0.829406 0.07334,0.22892 0.181094,0.651234 0.396875,0.865581 0.183921,0.182703 0.391462,0.350282 0.588595,0.523999 0.146979,0.129566 0.295844,0.257541 0.442867,0.387056 0.126216,0.111217 0.24312,0.228749 0.376721,0.334347 0.131404,0.103859 0.266207,0.206835 0.416512,0.293005 0.16301,0.09335 0.340426,0.171399 0.521932,0.239779 0.206108,0.07769 0.423315,0.135066 0.639754,0.192236 0.230272,0.06085 0.463068,0.118014 0.699699,0.160714 0.228255,0.04132 0.459039,0.07786 0.692464,0.09198 0.232294,0.01415 0.468085,0.01599 0.699182,-0.0078 0.258027,-0.02653 0.512052,-0.0806 0.757577,-0.149345 0.28966,-0.08103 0.569732,-0.185839 0.836124,-0.307474 0.315431,-0.14404 0.618366,-0.30865 0.895036,-0.496611 0.319543,-0.217086 0.615241,-0.459679 0.874365,-0.722953 0.291016,-0.295672 0.533248,-0.621337 0.754993,-0.952913 0.238848,-0.357157 0.437816,-0.731762 0.6165,-1.110527 0.182496,-0.386876 0.326608,-0.784908 0.464054,-1.18339 0.129404,-0.375237 0.239521,-0.754288 0.338481,-1.135332 0.08593,-0.331036 0.146905,-0.666075 0.221175,-0.998905 0.06446,-0.289177 0.11559,-0.580295 0.19482,-0.867131 0.07192,-0.260125 0.133075,-0.52478 0.254248,-0.773079 0.115522,-0.236625 0.251249,-0.473104 0.446485,-0.673861 0.205049,-0.210845 0.463863,-0.390711 0.74259,-0.538468 0.340798,-0.180656 0.728018,-0.304158 1.113627,-0.413411 0.48234,-0.136675 0.985903,-0.223407 1.488798,-0.299207 0.563687,-0.08497 1.135319,-0.135003 1.706873,-0.173633 0.58082,-0.03917 1.16393,-0.06449 1.746663,-0.05839 0.03079,-10e-5 0.0617,0.0038 0.0925,0.0047 1.168332,0.04245 2.339608,0.02223 3.507796,0.06718 0.543766,0.02097 1.088491,0.04508 1.629358,0.09405 0.486382,0.04399 0.971457,0.09922 1.450558,0.178801 0.440857,0.0732 0.877265,0.166537 1.306896,0.273885 0.272988,0.06821 0.53844,0.153397 0.805636,0.235127 l 3.121257,2.295468 c 0.05885,0.118459 0.117893,0.237116 0.176733,0.355533 0.09744,0.195736 0.191389,0.392503 0.292489,0.587045 0.115181,0.221633 0.244772,0.438697 0.358117,0.660941 0.126391,0.247808 0.246858,0.497082 0.358635,0.749309 0.12145,0.273953 0.229511,0.551603 0.33848,0.828889 0.101324,0.257864 0.199726,0.516361 0.293006,0.776181 0.07688,0.214294 0.149161,0.430346 0.220141,0.645955 0.06465,0.197148 0.124382,0.395104 0.186552,0.592729 0.06663,0.211628 0.116288,0.426844 0.199988,0.634586 0.08859,0.220027 0.181102,0.441633 0.318844,0.644922 0.145316,0.214425 0.316897,0.42198 0.529166,0.59738 0.232616,0.192206 0.50665,0.356538 0.799951,0.485758 0.341258,0.15033 0.720065,0.241055 1.095024,0.326595 0.407565,0.093 0.828008,0.149041 1.246952,0.201021 0.419567,0.05213 0.84243,0.08723 1.266073,0.111105 0.432082,0.02436 0.865964,0.03806 1.299145,0.03256 0.455642,-0.0055 0.912463,-0.02255 1.364775,-0.06718 0.425728,-0.04204 0.859344,-0.0772 1.265039,-0.188619 0.313294,-0.08605 0.618224,-0.205555 0.882114,-0.365353 0.23536,-0.14252 0.42511,-0.32994 0.60513,-0.516764 0.20103,-0.208605 0.36701,-0.437822 0.52504,-0.668693 0.17707,-0.258705 0.32714,-0.528965 0.47232,-0.799951 0.15743,-0.29382 0.29172,-0.59526 0.43201,-0.894519 0.13676,-0.291771 0.25816,-0.587948 0.39895,-0.8785 0.12426,-0.256445 0.24537,-0.514347 0.39325,-0.762744 0.12986,-0.218164 0.26913,-0.434051 0.43305,-0.63717 0.14943,-0.185101 0.31249,-0.364516 0.49868,-0.5271 0.18579,-0.162202 0.3934,-0.309523 0.61237,-0.442867 0.23559,-0.143461 0.48458,-0.275285 0.74982,-0.380855 0.277,-0.110239 0.571,-0.194339 0.8692,-0.260449 0.29706,-0.06591 0.60302,-0.112219 0.91002,-0.134359 0.18961,-0.0139 0.3804,-0.0034 0.57102,0.001 l -1.01389,-0.2682 -3.23081,-0.816488 -3.22409,-0.75706 -3.230811,-0.697115 -3.230293,-0.620117 -3.22461,-0.5302 -3.230294,-0.435116 -3.23081,-0.328145 -3.224093,-0.202572 -3.23081,-0.07131 h -3.230294 -3.22461 z"
         id="path2" />
      <path
         style="display:inline;vector-effect:non-scaling-stroke;fill:none;fill-opacity:1;fill-rule:evenodd;stroke:#000000;stroke-width:0.264583;stroke-linecap:square;-inkscape-stroke:hairline"
         d="m 72.509269,3.7692804 c -0.075,7.4e-4 -0.438436,0.00699 -0.506946,0.00775 -13.987745,0.1657193 -26.703062,2.5391223 -40.081274,6.7355066 -3.829923,1.237674 -7.665585,2.664333 -11.121285,4.657596 -1.422033,0.83166 -2.288613,1.407414 -3.605465,2.410189 l -3.152779,2.612244 c -4.0764191,3.631429 -7.0142484,7.76025 -8.8128986,12.950114 -1.4343056,4.154666 -1.924614,8.988004 -0.7007324,13.348539 0.5023526,1.657607 1.5850321,4.421575 3.1843018,6.001692 1.2585314,1.587206 2.6980582,3.032233 4.3149822,4.243152 3.150398,2.05294 7.158946,2.394497 10.735779,1.770951 4.473483,-0.745508 13.136149,-3.411161 13.136149,-3.411161 0,0 2.699775,-0.751831 4.106209,-1.120862 4.245728,-1.114025 8.633097,-2.150583 12.943913,-2.978113 5.73881,-1.101658 11.536701,-1.845484 17.396871,-1.953886 8.188746,-0.200649 16.433509,0.07366 24.498763,1.598869 5.169173,0.932459 9.774803,2.038314 14.848703,3.379639 0.24444,0.06462 0.94913,0.237228 1.19218,0.306958 1.37707,0.39507 3.94767,1.079378 4.53771,1.251603 3.30201,0.963813 6.64083,1.796867 9.97665,2.628263 3.89152,0.959952 8.23999,0.863659 11.75225,-1.249019 2.12783,-1.230906 3.70147,-3.178736 5.22914,-5.058606 1.84433,-2.381561 3.02666,-5.26288 3.28094,-8.27133 0.7706,-7.013696 -1.96292,-14.043022 -6.30504,-19.468062 -2.4792,-3.116241 -5.45945,-5.776855 -8.80929,-7.89926 -0.51495,-0.326261 -2.95137,-1.696068 -4.14496,-2.393652 -2.09511,-1.233373 -3.9776,-1.801116 -6.27869,-2.554883 C 110.52797,8.0171379 100.57317,5.8765613 90.535559,4.6855019 85.922867,4.1410819 81.355409,3.863072 76.723999,3.795117 75.2655,3.780552 73.823324,3.776159 72.509269,3.769279 Z"
         id="path1"
         sodipodi:nodetypes="scccccccccccssccssscccccsccccss" />
      <path
         style="display:inline;vector-effect:non-scaling-stroke;fill:none;fill-opacity:1;fill-rule:evenodd;stroke:#000000;stroke-width:0.264583;stroke-linecap:square;-inkscape-stroke:hairline"
         d="m 74.796985,0.05529378 h 3.230294 l 3.302124,0.07131348 3.558439,0.22065836 3.761011,0.35139974 0.464571,0.0537435 3.421496,0.41134444 3.957381,0.5720581 3.927929,0.6557739 3.83232,0.7270874 3.64784,0.7808309 0.73897,0.1788004 2.65255,0.6376872 3.06958,0.84646 2.79518,0.8583455 2.61638,0.8702311 0.76895,0.2682007 0.41134,0.1431437 1.32912,0.4588868 2.49132,0.8702311 1.80041,0.738973 1.83554,0.8583459 1.89549,1.066601 1.97279,1.245967 h 0.006 l 2.0624,1.400431 2.03812,1.544092 1.93735,1.674833 1.81798,1.79989 1.6986,1.907377 1.54926,2.008147 1.39475,2.092378 1.23403,2.163693 1.06092,2.235005 0.88211,2.276864 0.68523,2.318205 0.50075,2.288749 v 0.0062 l 0.29817,2.253092 0.10129,2.258777 -0.10129,2.241207 -0.29817,2.211235 -0.50075,2.15129 -0.68523,2.080493 -0.447,0.977201 -1.49603,2.461865 -1.23403,1.549777 -1.39475,1.638659 -1.54926,1.60352 -1.6986,1.496033 -1.81798,1.102775 -1.93735,0.786515 -2.03812,0.578259 -2.12183,0.351917 -2.18747,0.130741 -2.2412,-0.09508 -2.27687,-0.316259 -2.29495,-0.5302 -3.23029,-0.900204 -3.22461,-0.905888 -1.95905,-0.545703 c 0.22071,0.115173 0.44964,0.220703 0.65525,0.351917 0.089,0.05681 0.16288,0.127248 0.24908,0.187068 l 2.16266,2.648417 c 0.20743,0.514047 0.38924,1.035259 0.53692,1.561662 0.0427,0.15194 0.057,0.307629 0.0873,0.461471 0.0409,0.208395 0.081,0.417626 0.12764,0.625285 0.0369,0.164917 0.0772,0.329044 0.12041,0.492993 0.0372,0.142148 0.0775,0.283529 0.11989,0.42478 0.0421,0.140372 0.0857,0.28088 0.13333,0.420129 0.0541,0.158191 0.10691,0.316616 0.17311,0.471806 0.0706,0.165215 0.14446,0.331049 0.23926,0.488343 0.0976,0.161782 0.20317,0.321815 0.33797,0.465604 0.15898,0.169557 0.34601,0.324267 0.5488,0.460954 0.25946,0.174888 0.54429,0.328105 0.84543,0.453719 0.36601,0.152677 0.75509,0.275484 1.15497,0.358634 0.46174,0.09598 0.94186,0.13094 1.418,0.15813 0.52825,0.0303 1.05897,0.014 1.58853,0.0052 0.55203,-0.0097 1.10321,-0.05169 1.6552,-0.06356 0.53609,-0.0108 1.07396,-0.0369 1.60868,-0.0052 0.49033,0.02907 0.98233,0.07732 1.45728,0.178284 0.15178,0.03227 0.29026,0.09476 0.43977,0.135392 l 2.34507,2.87166 c -0.16921,1.131451 -1.21698,1.745113 -1.21698,1.745113 -0.0445,0.02207 -0.0814,0.05102 -0.12712,0.07028 -0.24356,0.102877 -0.50755,0.174772 -0.77101,0.239262 -0.31664,0.0775 -0.63983,0.140723 -0.9679,0.176733 -0.39017,0.04287 -0.78683,0.05738 -1.18029,0.04547 -0.46062,-0.01394 -0.91906,-0.06937 -1.37201,-0.136942 -0.48135,-0.07176 -0.95694,-0.168443 -1.42472,-0.283704 -0.44827,-0.110446 -0.88811,-0.244805 -1.32033,-0.390157 -0.40638,-0.136648 -0.8026,-0.291848 -1.19476,-0.452686 -0.37156,-0.152395 -0.73226,-0.320945 -1.09606,-0.484724 -0.35813,-0.161224 -0.70943,-0.331728 -1.0697,-0.489893 -0.36829,-0.161689 -0.74348,-0.313338 -1.1157,-0.469222 -0.3827,-0.160231 -0.76908,-0.315133 -1.14928,-0.479041 -0.38141,-0.16443 -0.76628,-0.325138 -1.13585,-0.505912 -0.35037,-0.17138 -0.69927,-0.346603 -1.02371,-0.54777 -0.28959,-0.179545 -0.57202,-0.370252 -0.81959,-0.586011 -0.22138,-0.192926 -0.42805,-0.400131 -0.58911,-0.627868 -0.14753,-0.208627 -0.25516,-0.435834 -0.33796,-0.66611 -0.0822,-0.228754 -0.12302,-0.466637 -0.15452,-0.703316 -0.0331,-0.245615 -0.0321,-0.492994 -0.0351,-0.740006 -0.004,-0.257417 0.0161,-0.51514 0.0171,-0.772563 4e-4,-0.26438 0.005,-0.529162 -0.01,-0.793233 -0.015,-0.257935 -0.0364,-0.515886 -0.0816,-0.771529 -0.0431,-0.24374 -0.0962,-0.487711 -0.18035,-0.724504 -0.0797,-0.224306 -0.18068,-0.444424 -0.30541,-0.655257 -0.12203,-0.206353 -0.25793,-0.410221 -0.43046,-0.592212 -0.18532,-0.195508 -0.40356,-0.373752 -0.64182,-0.52865 -0.27087,-0.176129 -0.56989,-0.327205 -0.8847,-0.448551 -0.33328,-0.128476 -0.68644,-0.232352 -1.04955,-0.290422 -0.36051,-0.05756 -0.73387,-0.0695 -1.10123,-0.05426 -0.36915,0.0153 -0.73812,0.06573 -1.09399,0.145727 -0.34184,0.07684 -0.66929,0.192538 -0.98753,0.318327 -0.30643,0.12112 -0.60052,0.263904 -0.88264,0.418062 -0.29208,0.159571 -0.57525,0.331242 -0.83509,0.522966 -0.28773,0.21234 -0.55343,0.44475 -0.79582,0.690397 -0.28203,0.285759 -0.51762,0.598804 -0.76171,0.905888 -0.25547,0.321372 -0.48211,0.65703 -0.73484,0.979785 -0.23373,0.298508 -0.48547,0.587812 -0.72243,0.884701 -0.0246,0.03078 -1.19306,1.024244 -1.65882,1.302246 -0.46574,0.277998 -1.662939,0.595829 -1.662939,0.595829 -0.276251,0.02699 -0.5541,0.04781 -0.83199,0.05943 -0.364375,0.01567 -0.729681,0.01727 -1.094507,0.01447 -0.486056,-0.004 -0.97177,-0.01701 -1.456759,-0.04237 -0.533265,-0.02786 -1.065994,-0.06861 -1.596285,-0.120923 -0.518764,-0.05121 -1.037133,-0.110066 -1.550293,-0.189136 -0.492327,-0.07587 -0.98221,-0.162785 -1.463993,-0.273368 -0.455966,-0.10466 -0.906778,-0.226354 -1.346688,-0.367936 -0.362594,-0.116706 -0.724312,-0.240152 -1.062984,-0.395842 -0.22797,-0.10482 -0.454191,-0.217453 -0.646989,-0.360185 -0.151003,-0.111783 -0.274205,-0.246654 -0.390157,-0.382405 -0.121675,-0.142453 -0.22309,-0.295696 -0.31781,-0.450619 -0.09576,-0.156571 -0.180348,-0.317752 -0.252698,-0.482141 -0.07173,-0.163102 -0.124964,-0.331453 -0.179834,-0.498677 -0.06609,-0.201683 -0.118054,-0.406184 -0.179834,-0.608749 -0.08219,-0.269789 -0.166405,-0.538852 -0.253215,-0.807702 -0.09506,-0.294356 -0.188283,-0.589369 -0.293005,-0.8816 -0.09968,-0.27787 -0.200804,-0.555778 -0.31936,-0.82889 -0.120623,-0.27799 -0.247494,-0.554809 -0.398426,-0.823206 -0.154229,-0.274246 -0.326231,-0.542182 -0.516764,-0.801501 -0.189859,-0.258404 -0.398641,-0.50894 -0.622701,-0.749309 -0.222293,-0.238472 -0.458141,-0.469836 -0.714168,-0.685746 -0.231526,-0.195241 -0.472827,-0.385502 -0.740007,-0.54932 -0.22063,-0.135287 -0.454533,-0.260851 -0.706933,-0.354501 -0.238627,-0.08857 -0.494439,-0.149689 -0.752409,-0.191719 -0.307137,-0.05004 -0.623103,-0.05962 -0.936377,-0.07028 -0.445713,-0.01533 -0.892477,-0.0017 -1.33842,0.0098 -0.611461,0.01548 -1.223532,0.03202 -1.832446,0.07958 -0.658009,0.05142 -1.320029,0.102601 -1.964221,0.221692 -0.56686,0.104802 -1.127529,0.243398 -1.659847,0.430981 -0.429539,0.151357 -0.844982,0.334663 -1.224215,0.555522 -0.284008,0.165405 -0.543952,0.359799 -0.776697,0.569991 -0.197021,0.177952 -0.354727,0.3818 -0.518831,0.57981 -0.162133,0.195591 -0.311748,0.397765 -0.459403,0.60048 -0.147727,0.202825 -0.292453,0.407164 -0.426331,0.615983 -0.132901,0.207264 -0.253205,0.418936 -0.373621,0.630969 -0.12668,0.222985 -0.24653,0.448688 -0.366902,0.673861 -0.130936,0.244857 -0.255721,0.49167 -0.387057,0.736389 -0.135053,0.251705 -0.273652,0.502481 -0.412378,0.752926 -0.143031,0.258258 -0.275885,0.52039 -0.432531,0.773596 -0.07422,0.119961 -0.812686,0.954864 -1.156519,1.224214 -0.343832,0.269354 -1.322992,0.924539 -1.586983,1.037663 -0.263993,0.113124 -0.875371,0.329531 -1.032495,0.356051 -0.31184,0.05261 -0.627888,0.08623 -0.942062,0.129191 -0.408548,0.05584 -0.815546,0.119525 -1.225765,0.166915 -0.494888,0.05714 -0.990871,0.11062 -1.489314,0.14211 -0.559094,0.03539 -1.120971,0.06331 -1.681552,0.05271 -0.57802,-0.01096 -2.11615,-0.327112 -2.11615,-0.327112 l -3.581693,-2.042253 c 0,0 -0.562066,-1.171177 -0.81132,-2.062923 C 53.386285,62.937263 53.344187,62.562909 53.267047,62.194173 53.198557,61.866607 53.1335,61.5391 53.05259,61.213354 52.98487,60.940896 52.91664,60.667588 52.82573,60.39945 c -0.06659,-0.196661 -0.123239,-0.397781 -0.232544,-0.581877 -0.06592,-0.111007 -0.140793,-0.224311 -0.251664,-0.309541 -0.07939,-0.06111 -0.182792,-0.100533 -0.28422,-0.135393 -0.102782,-0.03524 -0.213236,-0.05482 -0.322978,-0.07235 -0.119418,-0.01909 -0.241507,-0.03054 -0.363285,-0.03514 -0.14495,-0.0051 -0.290514,0.0024 -0.435116,0.01189 -0.196658,0.01356 -0.391404,0.03813 -0.586011,0.06459 -0.267291,0.03637 -0.531392,0.08698 -0.797367,0.129192 -0.309493,0.04915 -0.619142,0.09974 -0.929659,0.144694 -0.322151,0.04665 -0.644724,0.08979 -0.968416,0.129191 -0.328823,0.03997 -0.658555,0.07592 -0.988571,0.109037 -0.337881,0.03394 -0.677998,0.05544 -1.015441,0.09198 -0.330528,0.03581 -0.660882,0.07254 -0.988054,0.12454 -0.307984,0.04892 -0.615701,0.104024 -0.916223,0.176734 -0.270855,0.06558 -0.539804,0.139107 -0.796851,0.233577 -0.201102,0.07394 -0.393849,0.162286 -0.578776,0.259416 -0.163792,0.08604 -0.316554,0.185544 -0.467671,0.285254 -0.160796,0.106076 -0.319325,0.214418 -0.466639,0.332279 -0.153846,0.123124 -0.306434,0.249291 -0.434082,0.390157 -0.132715,0.146433 -0.240515,0.306854 -0.341064,0.468705 -0.103608,0.166805 -0.191307,0.340186 -0.268717,0.515731 -0.08284,0.187736 -0.15544,0.378805 -0.20929,0.573092 -0.06479,0.233666 -0.109119,0.471231 -0.135909,0.709517 -0.03286,0.296628 -0.02646,0.595209 -0.02946,0.892969 -0.0033,0.323899 0.0097,0.647599 0.0098,0.971517 5e-4,0.306408 4.3e-4,0.613003 -0.0098,0.919324 -0.0087,0.264584 -0.01782,0.529358 -0.04393,0.793233 -0.01656,0.168038 -0.05582,0.410183 -0.233577,0.930692 -0.177757,0.520514 -1.332282,1.877973 -1.630391,2.086178 -0.298111,0.208204 -1.043131,0.572403 -1.228866,0.649573 -0.46495,0.193188 -0.954869,0.348648 -1.449007,0.488342 -0.53655,0.151679 -1.084784,0.278475 -1.64021,0.377755 -0.568851,0.101657 -1.146913,0.172332 -1.72651,0.221692 -0.575518,0.04905 -1.155572,0.0725 -1.734261,0.0739 -0.552378,0.0014 -1.105235,-0.01789 -1.654679,-0.06253 -0.480493,-0.03902 -0.960574,-0.09211 -1.430921,-0.179317 -0.376954,-0.06987 -0.74428,-0.180245 -1.108976,-0.273885 -0.290631,-0.07462 -0.994388,-0.297711 -1.242818,-0.484725 -0.842445,-0.633646 -2.388582,-1.778214 -3.197738,-2.444295 -0.05568,-0.0528 -0.159459,-0.215612 -0.207739,-0.272852 -0.129903,-0.175314 -0.28578,-0.46171 -0.448035,-0.683679 -0.150839,-0.206344 -0.298715,-0.415131 -0.430981,-0.629419 -0.133236,-0.215873 -0.2595,-0.434794 -0.364319,-0.660425 -0.111411,-0.239886 -0.206549,-0.484695 -0.279569,-0.733805 -0.07437,-0.253866 -0.135604,-0.512063 -0.160714,-0.772046 -0.02403,-0.24963 -0.01567,-0.501288 0.01033,-0.750858 0.02559,-0.245583 0.07503,-0.490191 0.142627,-0.730705 0.06569,-0.233598 0.148568,-0.464872 0.254765,-0.688847 0.0584,-0.123118 0.12135,-0.25147 0.20929,-0.358118 0.06626,-0.08035 0.135504,-0.134362 0.202054,-0.208772 l -1.0604,0.04496 L 17.369482,62.399841 15.247648,62.047924 13.215214,61.469665 11.278381,60.68315 9.4542033,59.580375 7.7618001,58.084342 6.2120239,56.480822 4.8110758,54.842163 3.5775594,53.292386 2.0877279,50.830521 1.64021,49.859004 v -0.0057 L 0.94929606,47.773327 0.45423584,45.621521 0.15657959,43.410286 0.05477702,41.169079 0.15657959,38.910302 0.45423584,36.65721 v -0.0057 L 0.94929606,34.36276 1.64021,32.044039 2.5223267,29.767175 3.5775594,27.53217 l 1.2335164,-2.163693 1.4009481,-2.091862 1.5497762,-2.008663 1.6924032,-1.907377 1.8241777,-1.79989 1.936833,-1.674833 2.032434,-1.544092 2.068091,-1.400431 1.979207,-1.245919 1.894975,-1.066601 1.836064,-0.8583459 1.79989,-0.738973 2.485636,-0.8702311 2.515092,-0.8702312 2.610694,-0.8702311 2.801379,-0.8583455 3.06958,-0.84646 2.06189,-0.4945434 0.40566,-0.1012859 0.917773,-0.2206583 3.653524,-0.7808309 3.832324,-0.7270874 3.927926,-0.6557739 3.957898,-0.5720581 2.562634,-0.30385747 1.317232,-0.16123047 3.761011,-0.35139974 3.564123,-0.22065836 3.302124,-0.07131348 z"
         id="path13" />
    </g>
  </g>
  <g
     inkscape:groupmode="layer"
     id="layer2"
     inkscape:label="LEDS"
     style="display:none"
     transform="translate(0,69.823439)">
    <rect
       style="vector-effect:non-scaling-stroke;fill:none;fill-opacity:1;stroke:#000000;stroke-width:0.264583;stroke-linecap:round;stroke-linejoin:round;stroke-dasharray:none;stroke-opacity:1;-inkscape-stroke:hairline"
       id="rect6"
       width="4.0000858"
       height="1.5000323"
       x="124.42164"
       y="-12.976581"
       transform="rotate(22.059755)" />
    <rect
       style="vector-effect:non-scaling-stroke;fill:none;fill-opacity:1;stroke:#000000;stroke-width:0.264583;stroke-linecap:round;stroke-linejoin:round;stroke-dasharray:none;stroke-opacity:1;-inkscape-stroke:hairline"
       id="rect7"
       width="4.0000858"
       height="1.5000323"
       x="229.35201"
       y="-17.282179"
       transform="rotate(10.233725)" />
    <rect
       style="vector-effect:non-scaling-stroke;fill:none;fill-opacity:1;stroke:#000000;stroke-width:0.264583;stroke-linecap:round;stroke-linejoin:round;stroke-dasharray:none;stroke-opacity:1;-inkscape-stroke:hairline"
       id="rect8"
       width="4.0000858"
       height="1.5000323"
       x="89.259789"
       y="38.113026"
       transform="rotate(-11.156459)" />
    <rect
       style="vector-effect:non-scaling-stroke;fill:none;fill-opacity:1;stroke:#000000;stroke-width:0.264583;stroke-linecap:round;stroke-linejoin:round;stroke-dasharray:none;stroke-opacity:1;-inkscape-stroke:hairline"
       id="rect9"
       width="4.0000858"
       height="1.5000323"
       x="61.07238"
       y="10.786538"
       transform="rotate(-28.170512)" />
    <rect
       style="vector-effect:non-scaling-stroke;fill:none;fill-opacity:1;stroke:#000000;stroke-width:0.264583;stroke-linecap:round;stroke-linejoin:round;stroke-dasharray:none;stroke-opacity:1;-inkscape-stroke:hairline"
       id="rect10"
       width="4.0000858"
       height="1.5000323"
       x="150.20255"
       y="-36.319298"
       transform="rotate(0.3218708)" />
    <rect
       style="vector-effect:non-scaling-stroke;fill:none;fill-opacity:1;stroke:#000000;stroke-width:0.264583;stroke-linecap:round;stroke-linejoin:round;stroke-dasharray:none;stroke-opacity:1;-inkscape-stroke:hairline"
       id="rect11"
       width="4.0000858"
       height="1.5000323"
       x="212.0945"
       y="-111.84724"
       transform="rotate(22.367338)" />
    <rect
       style="vector-effect:non-scaling-stroke;fill:none;fill-opacity:1;stroke:#000000;stroke-width:0.264583;stroke-linecap:round;stroke-linejoin:round;stroke-dasharray:none;stroke-opacity:1;-inkscape-stroke:hairline"
       id="rect1-0-5-2"
       width="4.0000858"
       height="1.5000323"
       x="78.178032"
       y="2.6851521"
       transform="rotate(27.93046)"
       inkscape:transform-center-x="0.046772166"
       inkscape:transform-center-y="-0.046772166" />
    <rect
       style="vector-effect:non-scaling-stroke;fill:none;fill-opacity:1;stroke:#000000;stroke-width:0.264583;stroke-linecap:round;stroke-linejoin:round;stroke-dasharray:none;stroke-opacity:1;-inkscape-stroke:hairline"
       id="rect1-1-5-8"
       width="4.0000858"
       height="1.5000323"
       x="161.88991"
       y="-59.050629"
       transform="rotate(27.132003)"
       inkscape:transform-center-x="0.087731461"
       inkscape:transform-center-y="-0.040016783" />
    <rect
       style="vector-effect:non-scaling-stroke;fill:none;fill-opacity:1;stroke:#000000;stroke-width:0.264583;stroke-linecap:round;stroke-linejoin:round;stroke-dasharray:none;stroke-opacity:1;-inkscape-stroke:hairline"
       id="rect1-6-4-7"
       width="4.0000858"
       height="1.5000323"
       x="209.01036"
       y="-130.29362"
       transform="rotate(40.881949)"
       inkscape:label="rect1-6-4-7" />
  </g>
</svg>
