<?xml version="1.0" encoding="UTF-8" standalone="no"?>
<svg
   width="12in"
   height="6in"
   viewBox="0 0 304.79998 152.4"
   version="1.1"
   id="svg1"
   sodipodi:docname="pcb-outline_longdog.svg"
   inkscape:version="1.3.2 (091e20e, 2023-11-25, custom)"
   xmlns:inkscape="http://www.inkscape.org/namespaces/inkscape"
   xmlns:sodipodi="http://sodipodi.sourceforge.net/DTD/sodipodi-0.dtd"
   xmlns="http://www.w3.org/2000/svg"
   xmlns:svg="http://www.w3.org/2000/svg">
  <defs
     id="defs1">
    <inkscape:path-effect
       effect="spiro"
       id="path-effect72"
       is_visible="true"
       lpeversion="1" />
  </defs>
  <sodipodi:namedview
     id="namedview1"
     pagecolor="#e30000"
     bordercolor="#000000"
     borderopacity="0.3254902"
     inkscape:showpageshadow="2"
     inkscape:pageopacity="0.0"
     inkscape:pagecheckerboard="0"
     inkscape:deskcolor="#d1d1d1"
     inkscape:document-units="mm"
     inkscape:zoom="0.7071068"
     inkscape:cx="471.64021"
     inkscape:cy="183.14065"
     inkscape:window-width="1920"
     inkscape:window-height="1017"
     inkscape:window-x="1912"
     inkscape:window-y="-8"
     inkscape:window-maximized="1"
     inkscape:current-layer="layer6" />
  <g
     inkscape:groupmode="layer"
     id="layer1"
     inkscape:label="Board Outline"
     style="display:inline"
     transform="translate(0,69.823439)">
    <g
       id="g145"
       transform="matrix(0.7878302,0,0,0.7878302,32.334676,1.6203935)"
       style="stroke:#000000;stroke-opacity:1;fill:none;stroke-width:0.33583802;stroke-dasharray:none;vector-effect:non-scaling-stroke;-inkscape-stroke:hairline">
      <path
         id="path72"
         style="color:#000000;display:inline;fill:none;stroke-linecap:round;stroke-linejoin:bevel;stroke-dashoffset:9.14117;paint-order:markers stroke fill;stroke:#000000;stroke-opacity:1;stroke-width:0.33583802;stroke-dasharray:none;vector-effect:non-scaling-stroke;-inkscape-stroke:hairline"
         d="m 145.81074,17.257345 -6.74068,0.101802 -7.27655,0.315226 -7.67809,0.502812 -2.68924,0.22996 -5.23224,0.434599 -8.07961,0.818038 -8.01863,0.936894 -7.823813,1.039729 -7.458976,1.116211 -1.873787,0.315227 -0.82734,0.144694 -4.210596,0.706933 -6.266284,1.210262 -5.719031,1.226799 -5.32939,1.243851 -5.135087,1.243852 -5.074109,1.243852 -3.674711,1.056266 -3.747575,1.227315 -3.869531,1.524972 -4.039547,1.78077 -4.222481,2.001945 -4.149101,2.206583 -3.954798,2.39417 -3.723286,2.572969 -3.455604,2.726449 -3.163631,2.871142 -2.8597735,2.990515 -2.5187093,3.092835 -2.1538737,3.195154 -1.8004069,3.254581 -1.4118001,3.31401 -1.00975749,3.271635 v 0.0088 l -0.60823161,3.220475 -0.20722249,3.22926 0.20722249,3.203423 0.60823161,3.161047 1.00975749,3.075264 1.4118001,2.973462 v 0.0093 l 0.42323,0.643888 c -9.297888,2.447875 -18.5430666,5.100207 -27.7109696,8.00623 a 24.254999,24.254999 0 0 0 -15.792835,30.448784 24.254999,24.254999 0 0 0 30.4487875,15.79335 C 42.682767,126.77414 97.565588,118.28374 152.39897,118.28374 c 54.83339,0 109.71618,8.4904 161.98649,25.05893 a 24.254999,24.254999 0 0 0 30.45086,-15.79335 24.254999,24.254999 0 0 0 -15.79284,-30.448787 c -9.16858,-2.906238 -18.41437,-5.558725 -27.71304,-8.006746 l 0.4253,-0.650607 1.3994,-2.973462 1.02164,-3.075781 0.60875,-3.161047 0.20722,-3.203422 -0.20722,-3.22926 -0.60875,-3.220476 v -0.0088 l -1.02164,-3.271635 -1.3994,-3.314009 -1.80092,-3.254582 -2.16576,-3.195154 -2.51871,-3.092834 -2.84737,-2.990515 -3.16363,-2.871143 -3.46801,-2.726449 -3.7114,-2.572969 -3.95428,-2.394169 -4.1615,-2.206584 -4.21008,-2.001945 h -0.0124 l -4.02662,-1.78077 -3.86953,-1.524971 -3.74758,-1.226799 -3.67574,-1.056783 -5.086,-1.243851 -2.71353,-0.655774 -0.83974,-0.204639 -1.56941,-0.383439 -5.3418,-1.243852 -5.70662,-1.226798 -6.2668,-1.209746 -5.41466,-0.911572 -1.50895,-0.255798 -7.44658,-1.116211 -7.82433,-1.039213 -8.01863,-0.937411 -8.07961,-0.818038 -6.98407,-0.587561 -0.94929,-0.07648 -7.67809,-0.502812 -7.26415,-0.315226 -6.74119,-0.102319 h -6.59495 z m -10.4619,52.793676 c -0.97065,0.02846 -1.94148,0.05092 -2.91196,0.08423 0.9706,-0.03343 1.94118,-0.05567 2.91196,-0.08423 z m 34.10025,0 c 0.97079,0.02856 1.94136,0.0508 2.91197,0.08423 -0.97049,-0.03331 -1.94131,-0.05577 -2.91197,-0.08423 z m -53.55746,0.889352 c -0.88945,0.05583 -1.77836,0.120454 -2.66753,0.18035 0.88932,-0.06009 1.77793,-0.12434 2.66753,-0.18035 z m 73.01725,5.16e-4 c 0.88719,0.05586 1.7734,0.119402 2.66031,0.179318 -0.8868,-0.05973 -1.77323,-0.123634 -2.66031,-0.179318 z M 78.079472,74.553072 c -0.404324,0.05186 -0.809149,0.09974 -1.213363,0.152446 0.40426,-0.05282 0.808993,-0.100471 1.213363,-0.152446 z m 148.644678,0.001 c 0.40142,0.0516 0.80326,0.09846 1.20457,0.150895 -0.40127,-0.05232 -0.80319,-0.09941 -1.20457,-0.150895 z M 59.105953,77.302775 c -0.315884,0.05106 -0.631429,0.103968 -0.947229,0.155546 0.315825,-0.05166 0.63132,-0.104399 0.947229,-0.155546 z m 186.601017,0.0021 c 0.30439,0.04929 0.60829,0.10061 0.9126,0.150379 -0.30428,-0.04968 -0.60825,-0.101174 -0.9126,-0.150379 z"
         transform="translate(0,-69.823439)" />
    </g>
    <circle
       style="vector-effect:non-scaling-stroke;fill:none;fill-opacity:1;stroke:#000000;stroke-width:0.264583;stroke-linecap:round;stroke-linejoin:bevel;stroke-dasharray:none;stroke-dashoffset:9.14117;stroke-opacity:1;-inkscape-stroke:hairline;paint-order:markers stroke fill"
       id="path145"
       cx="152.39999"
       cy="34.681862"
       r="3.7417734" />
  </g>
  <g
     inkscape:groupmode="layer"
     id="layer6"
     inkscape:label="SILK"
     style="display:inline">
    <g
       id="g72"
       transform="matrix(1.00008,0,0,0.79403997,-0.01218808,16.115794)">
      <g
         id="g305"
         style="display:inline;fill:none;fill-opacity:1;stroke:#000000;stroke-opacity:1"
         transform="translate(134.79969,41.712312)" />
      <g
         id="g159"
         style="display:inline;fill:none;fill-opacity:1;stroke:#000000;stroke-opacity:1"
         transform="translate(134.79969,41.712312)" />
      <g
         id="g4"
         transform="matrix(2.0386975,0,0,1.8171216,-158.2975,-62.264666)"
         style="display:inline" />
    </g>
    <path
       style="display:inline;vector-effect:non-scaling-stroke;fill:#ffffff;fill-opacity:1;fill-rule:evenodd;stroke:none;stroke-width:0.357521;stroke-linecap:square;-inkscape-stroke:hairline"
       d="m 148.66764,29.213116 c -19.15933,0.131335 -38.25171,2.117377 -56.862062,5.776216 -6.718706,1.330337 -13.404418,2.85067 -19.967701,4.635714 C 62.135084,42.42302 53.169799,46.86829 45.837359,52.644485 39.39971,57.786952 34.62297,64.346432 33.081596,71.510937 c -1.012623,4.652709 -0.641541,9.531841 1.632285,13.960806 1.977774,3.899419 5.458641,7.207219 9.468392,9.902449 3.943243,2.78423 8.879689,4.737768 14.14009,5.266748 6.147898,0.72326 12.338835,0.0263 18.325237,-1.126928 13.212397,-2.41576 26.28474,-5.40859 39.68093,-7.17242 12.66473,-1.8087 25.54695,-2.69822 38.41712,-2.48693 12.92215,0.0763 25.84852,1.06484 38.49774,3.18745 13.80919,2.18514 27.37514,5.19993 41.16745,7.444948 5.81804,0.79779 11.98856,0.66494 17.60783,-0.988568 5.99513,-1.74164 10.85615,-5.3024 14.64944,-9.2947 3.0433,-3.19425 4.99942,-7.084204 5.40947,-11.04231 0.87561,-6.77557 -1.62209,-13.623026 -6.15945,-19.38304 -2.94485,-3.799177 -6.67526,-7.177424 -10.90279,-10.068616 -3.92659,-2.700749 -8.27255,-4.936397 -12.89216,-6.836224 -5.14828,-2.197796 -10.652,-3.996809 -16.30412,-5.168789 -25.02585,-5.817486 -51.0804,-8.711281 -77.15142,-8.491697 z"
       id="path6" />
    <path
       style="display:none;fill:none;fill-opacity:1;fill-rule:evenodd;stroke:#ffe327;stroke-width:1.71;stroke-linecap:square;stroke-miterlimit:4;stroke-dasharray:none;stroke-opacity:1"
       d="m 149.17244,34.966258 -3.30199,0.07151 -3.56425,0.220528 -3.76094,0.351655 -1.31722,0.160932 -2.56292,0.303975 -3.95763,0.572182 -3.92783,0.655631 -3.83246,0.727151 -3.65365,0.780796 -0.91789,0.220527 -0.4053,0.101267 -2.06225,0.494788 -3.06955,0.846359 -2.80133,0.858281 -2.6106,0.870202 -2.51524,0.8702 -2.48544,0.870201 -1.80001,0.739075 -1.83576,0.858282 -1.89537,1.06689 -1.97882,1.245699 -2.06821,1.400665 -2.03246,1.543714 -1.93709,1.67484 -1.82385,1.800005 -1.69272,1.90729 -1.54967,2.008616 -1.40067,2.092058 -1.23378,2.163583 -1.05497,2.235106 -0.88212,2.276828 -0.69139,2.31855 -0.49471,2.288748 v 0.006 l -0.29801,2.25298 -0.10132,2.25895 0.10132,2.24107 0.29801,2.21126 0.49471,2.15167 0.69139,2.08013 v 0.006 l 0.44702,0.97154 -0.44702,1.20397 -0.69139,2.31855 -0.49471,2.28875 -0.29801,2.25299 -0.10132,2.25894 0.10132,2.24107 v 0.006 l 0.29801,2.205308 0.49471,2.15166 v 0.006 l 0.69139,2.08014 0.88212,1.99073 1.05497,1.8775 1.23378,1.74636 1.40067,1.59139 v 0.006 l 1.54967,1.42452 1.69272,1.19801 1.82385,0.99537 1.93709,0.79272 2.03246,0.57219 2.12186,0.35167 2.19338,0.13114 2.24107,-0.09 2.27682,-0.31591 2.29471,-0.53044 3.22452,-0.90599 3.23047,-0.90598 3.23047,-0.89999 3.22451,-0.88211 3.23048,-0.85235 3.23047,-0.8106 3.22451,-0.75696 3.23048,-0.69734 3.22451,-0.61983 3.23047,-0.53044 3.23048,-0.43506 3.22451,-0.32779 3.23047,-0.20265 3.23047,-0.0657 h 3.22452 3.23047 l 3.23047,0.0657 3.22451,0.20265 3.23048,0.32779 3.23047,0.43506 3.22451,0.53044 3.23048,0.61983 3.23047,0.69734 3.22451,0.75696 3.23048,0.8106 3.2245,0.85235 3.23047,0.88211 3.23049,0.89999 3.2245,0.90598 3.23047,0.90599 2.29472,0.53044 2.27683,0.31591 v -0.005 l 2.24105,0.0957 2.18744,-0.13114 2.12186,-0.35167 2.03841,-0.57219 1.93709,-0.79272 1.82385,-0.99538 1.69271,-1.198 1.54968,-1.42451 v -0.006 l 1.39471,-1.5914 1.23377,-1.74636 1.06088,-1.87749 0.88212,-1.99073 0.68545,-2.08015 v -0.006 l 0.50068,-2.15166 0.29804,-2.205308 v -0.006 l 0.10145,-2.24106 -0.10145,-2.25895 -0.29804,-2.25299 -0.50068,-2.28875 -0.68545,-2.31855 -0.44706,-1.20397 0.44706,-0.97748 0.68545,-2.08014 0.50068,-2.15167 0.29804,-2.21126 0.10145,-2.24107 -0.10145,-2.25894 -0.29804,-2.25299 v -0.006 l -0.50064,-2.288747 -0.68544,-2.31855 -0.88212,-2.276828 -1.06093,-2.235106 -1.23377,-2.163584 -1.39471,-2.092058 -1.54968,-2.008615 -1.69867,-1.90729 -1.81789,-1.800005 -1.93709,-1.67484 -2.03841,-1.543714 -2.06226,-1.400665 h -0.006 l -1.97235,-1.245579 -1.89537,-1.066893 -1.83576,-0.858279 -1.80049,-0.739109 -2.49138,-0.870206 -1.32916,-0.458943 -0.41129,-0.143043 -0.76884,-0.268209 -2.61657,-0.870205 -2.79537,-0.85828 -3.06955,-0.846366 -2.65232,-0.637753 -0.73908,-0.178809 -3.64769,-0.780795 -3.83246,-0.727152 -3.92783,-0.65563 -3.95762,-0.572183 -3.42121,-0.411262 -0.46489,-0.05363 -3.76095,-0.351655 -3.55829,-0.220528 -3.30199,-0.07151 h -3.23046 z"
       id="pcb001_f0000-4-4" />
  </g>
  <g
     inkscape:groupmode="layer"
     id="layer2"
     inkscape:label="LEDS"
     style="display:none"
     transform="translate(0,69.823439)">
    <rect
       style="vector-effect:non-scaling-stroke;fill:none;fill-opacity:1;stroke:#000000;stroke-width:0.264583;stroke-linecap:round;stroke-linejoin:round;stroke-dasharray:none;stroke-opacity:1;-inkscape-stroke:hairline"
       id="rect6"
       width="4.0000858"
       height="1.5000323"
       x="111.36804"
       y="-31.964296"
       transform="rotate(32.11663)" />
    <rect
       style="vector-effect:non-scaling-stroke;fill:none;fill-opacity:1;stroke:#000000;stroke-width:0.264583;stroke-linecap:round;stroke-linejoin:round;stroke-dasharray:none;stroke-opacity:1;-inkscape-stroke:hairline"
       id="rect7"
       width="4.0000858"
       height="1.5000323"
       x="228.21637"
       y="-26.471224"
       transform="rotate(13.845361)" />
    <rect
       style="vector-effect:non-scaling-stroke;fill:none;fill-opacity:1;stroke:#000000;stroke-width:0.264583;stroke-linecap:round;stroke-linejoin:round;stroke-dasharray:none;stroke-opacity:1;-inkscape-stroke:hairline"
       id="rect8"
       width="4.0000858"
       height="1.5000323"
       x="70.261436"
       y="45.739521"
       transform="rotate(-13.240678)" />
    <rect
       style="vector-effect:non-scaling-stroke;fill:none;fill-opacity:1;stroke:#000000;stroke-width:0.264583;stroke-linecap:round;stroke-linejoin:round;stroke-dasharray:none;stroke-opacity:1;-inkscape-stroke:hairline"
       id="rect9"
       width="4.0000858"
       height="1.5000323"
       x="39.056393"
       y="-6.4060402"
       transform="rotate(-39.51603)" />
    <rect
       style="vector-effect:non-scaling-stroke;fill:none;fill-opacity:1;stroke:#000000;stroke-width:0.264583;stroke-linecap:round;stroke-linejoin:round;stroke-dasharray:none;stroke-opacity:1;-inkscape-stroke:hairline"
       id="rect10"
       width="4.0000858"
       height="1.5000323"
       x="151.63885"
       y="7.4126115"
       transform="rotate(0.3218708,12429.142,-34.923952)" />
    <rect
       style="vector-effect:non-scaling-stroke;fill:none;fill-opacity:1;stroke:#000000;stroke-width:0.264583;stroke-linecap:round;stroke-linejoin:round;stroke-dasharray:none;stroke-opacity:1;-inkscape-stroke:hairline"
       id="rect11"
       width="4.0000858"
       height="1.5000323"
       x="209.65808"
       y="-166.01988"
       transform="rotate(29.810903)" />
    <rect
       style="vector-effect:non-scaling-stroke;fill:none;fill-opacity:1;stroke:#000000;stroke-width:0.264583;stroke-linecap:round;stroke-linejoin:round;stroke-dasharray:none;stroke-opacity:1;-inkscape-stroke:hairline"
       id="rect1-0-5-2"
       width="4.0000858"
       height="1.5000323"
       x="69.718628"
       y="22.966684"
       transform="rotate(33.596232)" />
    <rect
       style="vector-effect:non-scaling-stroke;fill:none;fill-opacity:1;stroke:#000000;stroke-width:0.264583;stroke-linecap:round;stroke-linejoin:round;stroke-dasharray:none;stroke-opacity:1;-inkscape-stroke:hairline"
       id="rect1-1-5-8"
       width="4.0000858"
       height="1.5000323"
       x="163.50578"
       y="-72.22094"
       transform="rotate(33.577425)"
       inkscape:transform-center-x="0.08268229"
       inkscape:transform-center-y="-0.049609374" />
    <rect
       style="vector-effect:non-scaling-stroke;fill:none;fill-opacity:1;stroke:#000000;stroke-width:0.264583;stroke-linecap:round;stroke-linejoin:round;stroke-dasharray:none;stroke-opacity:1;-inkscape-stroke:hairline"
       id="rect1-6-4-7"
       width="4.0000858"
       height="1.5000323"
       x="223.46669"
       y="-159.21481"
       transform="rotate(47.63988)"
       inkscape:label="rect1-6-4-7" />
  </g>
</svg>
